<svg xmlns="http://www.w3.org/2000/svg" width="45" height="45"><path fill-rule="evenodd" d="M35.214 17.352v6.463h9.276v15.51h-6.92v2.584h3.043v2.128H27.688v-2.128h3.043v-2.584H23.81v-15.51h9.277v-4.336H11.949v4.336h9.277v15.51h-6.921v2.584h3.043v2.128H4.423v-2.128h3.043v-2.584H.546v-15.51h9.276v-6.463h11.633v-3.877H5.716V.55H39.32v12.925H23.581v3.877h11.633Zm-2.356 24.557h2.585v-2.584h-2.585v2.584Zm-6.92-15.967v11.255h16.425V25.942H25.938ZM9.593 41.909h2.585v-2.584H9.593v2.584Zm-6.92-15.967v11.255h16.425V25.942H2.673Zm34.52-14.594V2.677H7.843v8.671h29.35ZM18.641 8.305h-7.755V5.72h7.755v2.585Zm5.169 0h-2.584V5.72h2.584v2.585Zm5.17 0h-2.584V5.72h2.584v2.585Zm5.171 0h-2.586V5.72h2.586v2.585Z"/></svg>