<svg xmlns="http://www.w3.org/2000/svg" width="44" height="44"><path fill-rule="evenodd" d="M19.891 19.725h21.917A2.191 2.191 0 0 0 44 17.533V2.191A2.19 2.19 0 0 0 41.808 0H19.891a2.19 2.19 0 0 0-2.192 2.191v6.575H5.644c-1.21 0-2.191.981-2.191 2.192v4.384H2.357a2.191 2.191 0 0 0-2.192 2.191V26.3c0 1.211.981 2.192 2.192 2.192h1.096v4.384c0 1.21.981 2.191 2.191 2.191h12.055v6.576c0 1.21.981 2.191 2.192 2.191h21.917A2.191 2.191 0 0 0 44 41.643V26.3c0-1.21-.981-2.191-2.192-2.191H19.891a2.191 2.191 0 0 0-2.192 2.191v6.576H5.644v-4.384H6.74A2.191 2.191 0 0 0 8.932 26.3v-8.767c0-1.21-.981-2.191-2.192-2.191H5.644v-4.384h12.055v6.575c0 1.211.981 2.192 2.192 2.192Zm0-17.534H41.808v2.192H19.891V2.191Zm0 4.384h21.917v10.958H19.891V6.575Zm0 19.725H41.808v2.192H19.891V26.3Zm0 4.384h21.917v10.959H19.891V30.684ZM6.74 17.533V26.3H2.357v-8.767H6.74Z"/></svg>