<svg xmlns="http://www.w3.org/2000/svg" width="36" height="40"><path fill-rule="evenodd" d="M29.73 1.854C26.549.945 22.342.445 17.883.445c-4.46 0-8.667.5-11.847 1.409C2.307 2.918.417 4.403.417 6.264v17.457c0 1.863 1.89 3.346 5.619 4.411 2.902.829 6.659 1.317 10.682 1.397v3.503H14.39v2.327H3.91v2.327h10.48v2.328h6.986v-2.328h10.48v-2.327h-10.48v-2.327h-2.329v-3.503c4.024-.08 7.781-.568 10.683-1.397 3.728-1.065 5.619-2.548 5.619-4.411V6.264c0-1.861-1.891-3.346-5.619-4.41ZM19.047 37.686h-2.329v-2.327h2.329v2.327ZM6.676 4.092c2.977-.851 6.958-1.318 11.207-1.318 4.249 0 8.229.467 11.207 1.318 3.208.916 3.93 1.9 3.93 2.172 0 .273-.722 1.257-3.93 2.173-2.978.851-6.958 1.319-11.207 1.319-4.249 0-8.23-.468-11.207-1.319-3.208-.916-3.931-1.9-3.931-2.173 0-.272.723-1.256 3.931-2.172ZM33.02 23.721c0 .273-.722 1.257-3.93 2.173-2.978.85-6.958 1.319-11.207 1.319-4.249 0-8.23-.469-11.207-1.319-3.208-.916-3.931-1.9-3.931-2.173v-2.709c.861.486 1.958.92 3.291 1.301 3.18.908 7.387 1.408 11.847 1.408 4.459 0 8.666-.5 11.847-1.408 1.332-.381 2.43-.815 3.29-1.301v2.709Zm-3.93-3.646c-2.978.851-6.958 1.319-11.207 1.319-4.249 0-8.23-.468-11.207-1.319-3.208-.916-3.931-1.9-3.931-2.173v-2.709c.861.486 1.958.92 3.291 1.301 3.18.908 7.387 1.408 11.847 1.408 4.459 0 8.666-.5 11.847-1.408 1.332-.381 2.43-.815 3.29-1.301v2.709c0 .273-.722 1.257-3.93 2.173Zm0-5.819c-2.978.85-6.958 1.319-11.207 1.319-4.249 0-8.23-.469-11.207-1.319-3.208-.916-3.931-1.9-3.931-2.173V9.374c.861.486 1.958.92 3.291 1.301 3.18.908 7.387 1.408 11.847 1.408 4.459 0 8.666-.5 11.847-1.408 1.332-.381 2.43-.815 3.29-1.301v2.709c0 .273-.722 1.257-3.93 2.173Z"/></svg>