<svg xmlns="http://www.w3.org/2000/svg" width="20" height="24"><path fill-rule="evenodd" d="M16.756 12.946c0 2.534 2.229 3.427 2.252 3.436l.898.348-.322.909c-.022.061-.547 1.528-1.431 3.014-1.312 2.206-2.74 3.324-4.243 3.324-.797 0-1.474-.253-2.071-.476-.527-.197-.982-.367-1.471-.367-.571 0-1.2.228-1.809.449-.604.219-1.174.426-1.735.426-1.551 0-3.229-1.359-4.605-3.729C.957 18.107.203 15.497.203 13.3c0-4.863 3.167-7.487 6.146-7.487 1.126 0 2.057.359 2.805.646.347.135.741.286.913.289.125-.011.49-.159.756-.266.763-.308 1.808-.729 3.064-.729 3.554 0 5.001 2.546 5.061 2.654l.504.912-.917.45a3.652 3.652 0 0 0-1.779 3.177Zm-2.869-5.21c-.871 0-1.642.311-2.322.585-.546.221-1.018.411-1.493.411-.538 0-1.069-.205-1.631-.422-.625-.241-1.334-.514-2.092-.514-1.013 0-2.024.481-2.775 1.32-.633.708-1.388 2.008-1.388 4.184 0 1.862.653 4.099 1.747 5.984 1.1 1.894 2.244 2.741 2.891 2.741.212 0 .662-.163 1.059-.307.698-.253 1.566-.568 2.485-.568.847 0 1.547.262 2.165.493.504.188.938.351 1.377.351.719 0 1.64-.85 2.525-2.332.414-.693.745-1.394.967-1.907-1.044-.681-2.628-2.152-2.628-4.809 0-2.124 1.044-3.487 1.87-4.232-.515-.456-1.402-.978-2.757-.978ZM9.893 4.934s-.319-1.412.933-3.062C12.232.017 14.188.008 14.188.008s.291 1.744-1.106 3.425c-1.493 1.794-3.189 1.501-3.189 1.501Z"/></svg>