<svg xmlns="http://www.w3.org/2000/svg" width="81" height="64"><path fill-rule="evenodd" d="M79 48.999H59l-9.726 11.288c-1.759 2.004-5.439 3.712-7.274 3.712-1.643 0-4.828-1.284-6.651-2.971L22 48.999H2c-.913 0-1.985-.591-1.985-1.511C.015 46.566 1.087 46 2 46h21c.411 0 .702.722 1 1l13 11.999c1.297 1.2 3.24 2.105 5 2.001 1.733-.09 3.831-.672 5-2.001L57 47c.314-.359.531-1 1-1h21c.921 0 1.969.566 1.969 1.488 0 .92-1.056 1.511-1.969 1.511Zm-37 15c.177 0-.178.008 0 0Zm-1-11C35.477 52.999 26 40 26 40c-2.679-3.104-3.381-5.637-2.429-7.748C23.976 31.372 25.136 30 28 30h6V15.999h-7c-4.944 0-11.771-2.859-15.44-7.03-2.646-3.006-2.227-5.295-1.735-6.395C10.366 1.352 12.167-.001 17-.001h22c6.47 0 10.992 4.458 11 11V30h5c2.742 0 4.229 1.325 4.607 2.179.952 2.103-.031 5.002-2.751 8.155 0 0-9.539 12.665-15.856 12.665Zm14-20h-6c-.911 0-2-.078-2-1v-21C47 6.299 43.653 3 39 3H17c-2.526 0-3.9.348-4.166.942-.267.595.175 1.925 1.166 3.057 3.017 3.429 9.024 6 13 6h8c.919 0 2 1.07 2 2.001v15.999c0 .923-1.081 2-2 2h-7c-.71 0-1.992-.021-2 1.001.836 4.218 12.012 16.642 15 15.999C44 51.302 56.665 38.511 57 34c-.05-.969-1.387-1.001-2-1.001Z"/></svg>