<svg xmlns="http://www.w3.org/2000/svg" width="65" height="65"><path fill-rule="evenodd" d="M60 53.999H38V62h6c.734 0 1.739.537 1.739 1.451 0 .881-1.005 1.551-1.739 1.548H21c-.732.005-1.701-.452-1.701-1.492 0-1.039.967-1.507 1.701-1.507h6v-8.001H5c-2.949 0-5-2.299-5-4.999V16c0-2.763 2.238-5 5-5h13c.734 0 1.117.877 1.117 1.612 0 .733-.383 1.387-1.117 1.387H5c-.731 0-2 1.266-2 2.001v33c0 .733 1.269 1.999 2 1.999h55c.731 0 2-1.266 2-1.999V16c0-.735-1.269-2.001-2-2.001H47c-.734 0-1.288-.654-1.288-1.387 0-.735.554-1.612 1.288-1.612h13c2.824 0 5 2.237 5 5v33c0 2.824-2.051 4.999-5 4.999Zm-25 0h-5V62h5v-8.001Zm11-21C46 33.734 44.734 35 44 35h-3v3.999c.003.735-1.069 1.548-1.56 1.548-.734 0-1.44-.813-1.44-1.548V35H27v3.999c-.002.735-.567 1.553-1.488 1.555-.733.001-1.512-.82-1.512-1.555V35h-3c-.734 0-2-1.266-2-2.001V31c0-1.779.808-3.666 2.063-4.921L24 22.999v-8c0-3.211 1.513-6.238 3.471-8.782l3.89-5.058c.503-.655 1.607-.655 2.109 0l3.892 5.06C39.316 8.761 41 11.788 41 14.999v8l2.766 3.08C45.021 27.334 46 29.221 46 31v1.999ZM43 31c0-1.068-.362-2.285-1.115-3.04l-3.76-3.763c-.25-.25-.125-.844-.125-1.198v-8c0-2.629-1.147-5.078-2.751-7.158L32.415 4.15 29.58 7.838C27.976 9.921 27 12.37 27 14.999v8c0 .354-.046.948-.293 1.198l-3.761 3.763C22.191 28.713 22 29.932 22 31v.999h21V31Z"/></svg>