<svg xmlns="http://www.w3.org/2000/svg" width="57" height="66"><path fill-rule="evenodd" d="M52.813 47.424C50.038 51.981 45.742 55.549 41 58v2.976C41 64.007 38.964 66 35.993 66H5.032C2.065 66 0 64.013 0 61.068V5c0-2.975 2.184-5 5-5h31c2.968 0 5 2.076 5 5v13.999h8l.286.709C50.414 22.665 53.013 25.959 56 27h1v5.999c0 5.336-1.411 9.866-4.187 14.425ZM3 60.956C3 62.034 4.044 63 5.032 63h30.923c.968 0 2.045-.973 2.045-2.024V58c-1.366-.705-4.293-2-5-3H3v5.956ZM38 4.974c0-.934-.966-1.975-1.987-1.975h-31C4.046 2.999 3 4.032 3 5v2.999h35V4.974ZM38 11H3v41l26.197-.134a29.09 29.09 0 0 1-3.325-4.442C23.097 42.865 22 37.335 22 31.999V27h1c2.988-1.041 5.272-4.335 6.4-7.292l.6-.709h8V11Zm16 17.999c-3.042-1.396-5.522-3.995-7-6.999H32c-1.478 3.004-3.958 5.603-7 6.999v3c0 20.022 13.908 23.029 14.47 23.029.693 0 14.53-3.525 14.53-23.029v-3ZM38.684 41.588l-.656-.62-4.844-4.574 2.031-2.149 2.813 2.657.633.597 2.323-2.245 3.882-3.749 2.054 2.125-5.936 5.734-2.3 2.224ZM18.667 56.922h3.878v3.877h-3.878v-3.877Z"/></svg>