<svg xmlns="http://www.w3.org/2000/svg" width="40" height="39"><path fill-rule="evenodd" d="M37 32V10c0-.521-.48-1-1-1h-6C28.965 4.21 24.678.005 19.582.005 14.486.005 9.366 3.662 9 9H4c-.521 0-1 .479-1 1v22H1c-.438 0-1 .561-1 1v5c0 .438.562 1 1 1h38c.438 0 1-.562 1-1v-5c0-.439-.562-1-1-1h-2ZM19.582 2.005c4.598 0 8.323 3.886 8.354 8.484.02 2.928-1.449 5.962-3.936 7.511v3h-3v-7l3.148-3.056a.75.75 0 0 0 0-1.061l-.556-.555a.75.75 0 0 0-1.061 0L20 12l-2.366-2.672a.749.749 0 0 0-1.06 0l-.556.555a.75.75 0 0 0 0 1.061L19 14v7h-3v-3c-2.763-1.441-4.983-4.547-4.983-7.452 0-4.606 3.958-8.543 8.565-8.543ZM16 23h8v5h-8v-5ZM6 11s2.877.089 2.953.013C9.094 14.315 11.059 17.635 14 19v10c0 .51.489 1 1 1h10c.511 0 1-.49 1-1V19c2.697-1.91 4.076-4.693 4.213-8.001L34 11c.413 0 1 .587 1 1v20H5V12c0-.413.587-1 1-1Zm31 26H3c-.534 0-1-.466-1-1v-1c0-.609.466-1 1-1h34c.534 0 1 .49 1 1v1c0 .608-.441 1-1 1Z"/></svg>