<svg xmlns="http://www.w3.org/2000/svg" width="50" height="45"><path fill-rule="evenodd" d="m48.819 5.147 1.075 3.726a.974.974 0 0 1-.937 1.246h-9.189v6.623h2.914c.539 0 .976.437.976.977v4.037h2.698c.539 0 .976.438.976.977V43.58a.976.976 0 0 1-.976.976H.975A.976.976 0 0 1 0 43.58v-8.617c0-.539.437-.977.975-.977h14.152v-5.138c0-.54.436-.977.975-.977h14.152v-5.138c0-.539.436-.977.975-.977h2.699v-4.037c0-.54.436-.977.975-.977h2.914V1.15c0-.54.437-.977.976-.977h10.164a.976.976 0 0 1 .937 1.248l-1.075 3.726ZM15.127 35.939H1.95v6.664h13.177v-6.664Zm15.127-6.114H17.077v12.778h13.177V29.825Zm1.95-6.116v18.894h13.177V23.709H32.204Zm3.674-5.014v3.061h5.829v-3.061h-5.829ZM47.66 2.126h-7.892v6.04h7.892l-.793-2.748a.98.98 0 0 1 0-.542l.793-2.75ZM26.17 20.138a.973.973 0 0 1-1.662.024l-1.761-2.788L4.971 28.869a.982.982 0 0 1-.739.133.98.98 0 0 1-.615-.431L.833 24.166a.978.978 0 0 1 .295-1.343L18.919 11.32l-1.771-2.803a.976.976 0 0 1 .718-1.492l15.279-1.679a.976.976 0 0 1 .944 1.471L26.17 20.138ZM19.632 8.794l1.452 2.299a.977.977 0 0 1-.295 1.342L2.998 23.94l1.741 2.754 17.776-11.495a.977.977 0 0 1 1.353.298l1.439 2.277 6.105-10.273-11.78 1.293Z"/></svg>