<svg xmlns="http://www.w3.org/2000/svg" width="28" height="39"><path fill-rule="evenodd" d="M27.707 26.396v-.001a1.16 1.16 0 0 0-1.539-.501l-1.001.489-1.701-4.474h3.094c.634 0 1.147-.501 1.147-1.121 0-.619-.513-1.122-1.147-1.122h-3.947l-3.414-8.979c1.453-3.253-.543-7.018-4.112-7.73V1.723c0-.62-.514-1.121-1.148-1.121-.634 0-1.147.501-1.147 1.121v1.234c-3.572.712-5.564 4.48-4.112 7.73l-3.415 8.979H1.319c-.634 0-1.148.503-1.148 1.122 0 .62.514 1.121 1.148 1.121h3.093l-2.349 6.179c-.975 2.563.092 5.349 2.342 6.714l-.793 2.086a1.114 1.114 0 0 0 .676 1.442 1.154 1.154 0 0 0 1.475-.66l5.993-15.761h4.367l5.992 15.761c.221.581.882.876 1.475.66h.001c.594-.216.896-.861.675-1.442l-.793-2.086c2.118-1.284 3.202-3.839 2.481-6.296l1.24-.606a1.11 1.11 0 0 0 .513-1.504ZM13.939 5.088c1.898 0 3.442 1.509 3.442 3.364s-1.544 3.365-3.442 3.365c-1.898 0-3.442-1.51-3.442-3.365 0-1.855 1.544-3.364 3.442-3.364ZM5.233 32.625c-1.067-.869-1.552-2.357-1.019-3.756l6.109-16.068a5.778 5.778 0 0 0 2.051 1.045L5.233 32.625Zm7.375-12.959 1.332-3.499 1.33 3.499h-2.662Zm10.038 12.959-7.141-18.779a5.796 5.796 0 0 0 2.05-1.044l6.11 16.067c.532 1.399.048 2.886-1.019 3.756Z"/></svg>