<svg xmlns="http://www.w3.org/2000/svg" width="40" height="33"><path fill-rule="evenodd" d="m35.916 22.339.069 6.712-6.362-2.14-3.338 1.123.049 4.7-6.362-2.14-6.362 2.14.048-4.719-3.281-1.104-6.362 2.14.069-6.712-4.001-5.39 6.405-2.008 3.889-5.472 3.888 5.471 3.632 1.132 2.075-2.919 2.085 2.934 3.677-1.147 3.889-5.471 3.889 5.472 6.405 2.008-4.001 5.39Zm-23.107-5.391-2.432-3.421-2.431 3.42-4.005 1.256 2.502 3.369-.043 4.196 3.977-1.337 2.827.951-3.526-4.75 6.405-2.008.381-.537-3.655-1.139Zm7.163.262-2.431 3.42-4.005 1.256 2.502 3.369-.043 4.197 3.977-1.339 3.977 1.339-.043-4.197 2.501-3.369-4.004-1.256-2.431-3.42Zm12.082-.263-2.431-3.42-2.432 3.421-3.701 1.154.371.522 6.405 2.008-3.545 4.775 2.902-.976 3.977 1.337-.043-4.196 2.501-3.369-4.004-1.256Zm-8.337-9.825 2.717-2.716 1.662 1.662-2.717 2.717-1.662-1.663ZM18.796.265h2.351v6.367h-2.351V.265Zm-6.955 5.802 1.662-1.663 2.717 2.717-1.662 1.662-2.717-2.716Z"/></svg>