<svg xmlns="http://www.w3.org/2000/svg" width="30" height="31"><path fill-rule="evenodd" d="M15 18.493a8.118 8.118 0 0 1-3.847-.97L2.467 12.86A3.852 3.852 0 0 1 .432 9.448a3.852 3.852 0 0 1 2.055-3.4l8.707-4.61a8.13 8.13 0 0 1 7.611 0l8.708 4.61a3.853 3.853 0 0 1 2.055 3.4 3.854 3.854 0 0 1-2.035 3.412l-8.686 4.663a8.124 8.124 0 0 1-3.847.97Zm0-15.722c-.942 0-1.883.227-2.741.681l-8.708 4.61a1.559 1.559 0 0 0-.843 1.393c-.002.594.31 1.116.835 1.398l8.686 4.663a5.847 5.847 0 0 0 5.542 0l8.686-4.663a1.56 1.56 0 0 0 .835-1.398 1.559 1.559 0 0 0-.843-1.393l-8.708-4.61A5.862 5.862 0 0 0 15 2.771Zm-3.274-.326h.001-.001Zm7.121 27.249 10.121-5.433a1.138 1.138 0 1 0-1.076-2.008l-10.121 5.433a5.852 5.852 0 0 1-5.547-.002L2.103 22.308a1.139 1.139 0 0 0-1.067 2.012l10.117 5.374a8.13 8.13 0 0 0 3.847.97 8.136 8.136 0 0 0 3.847-.97Zm0-6.057 10.121-5.433a1.14 1.14 0 0 0-1.076-2.008l-10.121 5.433a5.85 5.85 0 0 1-5.547-.002L2.103 16.251a1.139 1.139 0 0 0-1.067 2.012l10.117 5.374a8.13 8.13 0 0 0 3.847.97 8.136 8.136 0 0 0 3.847-.97Z"/></svg>