<svg xmlns="http://www.w3.org/2000/svg" width="39" height="39"><path fill-rule="evenodd" d="M37.819 21.009a1.115 1.115 0 0 1-1.115-1.116c0-9.269-7.541-16.81-16.811-16.81-9.269 0-16.81 7.541-16.81 16.81 0 9.27 7.541 16.811 16.81 16.811a1.116 1.116 0 1 1 0 2.232c-5.066 0-9.842-1.987-13.449-5.593a18.96 18.96 0 0 1 0-26.899 18.958 18.958 0 0 1 26.898 0c3.607 3.606 5.593 8.383 5.593 13.449 0 .617-.499 1.116-1.116 1.116Zm-17.926 8.479a1.116 1.116 0 0 1 0 2.232c-6.521 0-11.826-5.306-11.826-11.827S13.372 8.066 19.893 8.066c6.522 0 11.827 5.306 11.827 11.827a1.115 1.115 0 1 1-2.231 0c0-5.29-4.305-9.595-9.596-9.595-5.29 0-9.595 4.305-9.595 9.595 0 5.291 4.305 9.595 9.595 9.595Zm1.628-9.431 16.736 7.141a1.115 1.115 0 0 1-.088 2.086l-6.681 2.204-2.204 6.681a1.117 1.117 0 0 1-2.086.089l-7.141-16.736c-.393-.923.542-1.858 1.464-1.465Zm6.57 14.607 1.454-4.409c.11-.336.374-.599.71-.71l4.408-1.454-11.464-4.892 4.892 11.465Z"/></svg>