<svg xmlns="http://www.w3.org/2000/svg" width="36" height="36"><path fill-rule="evenodd" d="M34.681 25.576H21.418a3.657 3.657 0 0 1-3.499 2.608 3.658 3.658 0 0 1-3.499-2.608H1.158a1.043 1.043 0 0 1 0-2.086H14.42a3.659 3.659 0 0 1 3.499-2.609 3.658 3.658 0 0 1 3.499 2.609h13.263a1.042 1.042 0 1 1 0 2.086Zm-16.762-2.608c-.863 0-1.565.702-1.565 1.565a1.566 1.566 0 0 0 3.13 0c0-.863-.702-1.565-1.565-1.565Zm16.762-8.735h-6.449a10.63 10.63 0 0 1-3.085 4.59 3.363 3.363 0 0 1-3.639.529 3.389 3.389 0 0 1-2.011-3.117v-.092c0-.976.414-1.903 1.136-2.543a3.77 3.77 0 0 0 1.27-2.817 3.735 3.735 0 0 0-1.17-2.727 3.742 3.742 0 0 0-2.782-1.038c-1.903.091-3.476 1.651-3.58 3.554a3.762 3.762 0 0 0 1.242 3.008 3.465 3.465 0 0 1 1.158 2.563v.092c0 1.359-.77 2.554-2.01 3.117a3.363 3.363 0 0 1-3.64-.529 10.68 10.68 0 0 1-3.603-6.996H5.921a3.453 3.453 0 0 1-3.449-3.45c0-.518.115-1.01.321-1.451A3.455 3.455 0 0 1 .115 3.564 3.453 3.453 0 0 1 3.564.114h31.117c.576 0 1.043.467 1.043 1.043V13.19c0 .576-.467 1.043-1.043 1.043ZM5.921 9.74h1.596c.093-.951.311-1.865.637-2.726H5.922c-.752 0-1.364.611-1.364 1.363S5.17 9.74 5.921 9.74ZM3.564 2.201a1.365 1.365 0 0 0 0 2.727h5.657a10.756 10.756 0 0 1 2.583-2.727h-8.24Zm30.073 0H18.134c-4.732 0-8.581 3.85-8.582 8.582a8.587 8.587 0 0 0 2.942 6.468c.396.346.921.421 1.404.201.492-.223.787-.679.787-1.217v-.092c0-.376-.171-.745-.469-1.014a5.835 5.835 0 0 1-1.928-4.671 5.834 5.834 0 0 1 1.725-3.828 5.84 5.84 0 0 1 4.126-1.703c1.51 0 2.934.569 4.035 1.619a5.807 5.807 0 0 1 1.816 4.237c0 1.67-.719 3.265-1.972 4.377a1.311 1.311 0 0 0-.434.983v.092c0 .538.294.994.787 1.217.483.22 1.008.145 1.403-.201a8.542 8.542 0 0 0 2.671-4.321 1.043 1.043 0 0 1 1.01-.783h6.182V2.201ZM1.158 31.029h21.817a3.658 3.658 0 0 1 3.499-2.608 3.657 3.657 0 0 1 3.499 2.608h4.708a1.043 1.043 0 0 1 0 2.086h-4.708a3.658 3.658 0 0 1-3.499 2.609 3.659 3.659 0 0 1-3.499-2.609H1.158a1.042 1.042 0 1 1 0-2.086Zm25.316 2.608c.863 0 1.565-.702 1.565-1.565 0-.862-.702-1.565-1.565-1.565s-1.565.703-1.565 1.565c0 .863.702 1.565 1.565 1.565Z"/></svg>