<svg xmlns="http://www.w3.org/2000/svg" width="34" height="38"><path fill-rule="evenodd" d="M33.13 20.899 17.952 36.077c-.938.938-2.468.753-3.795.948-.607 0-1.782.044-2.846-.948l-8.537-8.538C1.836 26.604.877 25.07.877 23.745c0-3.673 2.993-5.692 5.691-5.692.202 0 .453.083.65.106 1.178-1.306 2.605-2.246 4.179-2.769A7.462 7.462 0 0 1 7.4 8.79c0-4.109 3.59-7.812 7.706-7.812 4.114 0 7.589 3.48 7.589 7.589 0 3.04-2.197 5.883-4.815 7.042 1.152.45 2.263 1.1 3.225 1.906l7.282-7.051c.178-.179.426-.464.673-.409.246.055.189.172.275.409l3.795 9.486c.099.271.204.745 0 .949ZM9.418 18.985c.454.307.712.591.712.591l3.551 3.676-.068-6.148H12.26c-2.125.897-2.596 1.622-2.842 1.881Zm11.396-9.556c.022-.21.035-.423.035-.639 0-3.295-2.444-5.915-5.743-5.915-3.855 0-5.654 4.046-5.724 5.327 1.663-.6 6.672-2.481 6.672-2.481.269-.097.91-.078 1.113.121l3.647 3.587Zm-.87 1.689c-1.029-1.029-3.89-3.5-3.89-3.5S11.55 9.371 9.488 9.99c.294 1.278 1.905 4.345 5.126 4.622 3.237-.242 4.869-2.489 5.33-3.494Zm-3.89 5.986h-.478l-.01 6.159 4.283-4.262c-1.055-.857-2.529-1.538-3.795-1.897Zm12.333-3.794L15.106 26.591c-.29.221-.683.264-.949 0 0 0-5.486-5.961-6.186-6.544-4.31-.914-5.197 2.268-5.197 3.698 0 .526.29 1.241.948 1.897l8.538 8.537a4.342 4.342 0 0 0 2.327.951c.931 0 1.757-.292 2.416-.951L31.232 19.95l-2.845-6.64ZM8.946 26.757a.737.737 0 0 1-.523-.217l-3.004-3.003a.74.74 0 0 1 1.046-1.044l3.005 3.003a.74.74 0 0 1-.524 1.261Z"/></svg>