<svg xmlns="http://www.w3.org/2000/svg" width="66" height="65"><path fill-rule="evenodd" d="M63.696 63.314a4.904 4.904 0 0 1-6.936-.121L39.414 45.849l-2.974-2.977a23.056 23.056 0 0 1-12.582 3.734c-.913 0-1.825-.052-2.732-.158a23.29 23.29 0 0 1-9.944-3.562C.372 35.914-2.741 21.497 4.228 10.684 11.198-.128 25.612-3.242 36.422 3.729c10.81 6.972 13.923 21.389 6.953 32.202l20.321 20.325a4.907 4.907 0 0 1 0 7.058Zm-19.178-37.61c1.328-11.439-6.866-21.788-18.302-23.116C14.78 1.26 4.433 9.457 3.106 20.895 1.791 32.33 9.979 42.671 21.408 44.011c11.436 1.328 21.783-6.868 23.11-18.307Zm-2.599 12.239a23.348 23.348 0 0 1-3.466 3.47l1.838 1.839 3.468-3.468-1.84-1.841Zm20.043 20.048L45.488 41.513l-3.468 3.468L58.494 61.46c.97.926 2.498.926 3.468 0a2.44 2.44 0 0 0 .718-1.735 2.435 2.435 0 0 0-.718-1.734Zm-25.86-35.765a3.595 3.595 0 0 1-4.755 1.801l-2.433 2.688a3.67 3.67 0 0 1-3.656 5.398 3.68 3.68 0 0 1-3.23-4.01l-4.276-1.999a3.658 3.658 0 0 1-3.751.921l-2.246 2.919a1.225 1.225 0 0 1-1.943-1.494l2.258-2.936a3.68 3.68 0 1 1 6.732-1.631l4.281 2.002a3.668 3.668 0 0 1 3.026-1.083c.338.044.669.136.981.272l2.447-2.702a3.664 3.664 0 0 1 6.239-3.824l3.037-.825a1.227 1.227 0 0 1 .643 2.369l-3.041.825a3.593 3.593 0 0 1-.313 1.309Zm-20.816.084a1.227 1.227 0 0 0-.283 2.436 1.225 1.225 0 1 0 .283-2.436Zm10.539 4.927a1.23 1.23 0 0 0-.901.256 1.226 1.226 0 0 0 1.52 1.925h-.006a1.225 1.225 0 0 0-.613-2.181Zm7.203-7.798a1.225 1.225 0 1 0-.531 2.394 1.226 1.226 0 1 0 .531-2.394ZM25.65 7.461c-4.2-.499-8.426.701-11.734 3.338a15.845 15.845 0 0 0-5.945 10.663c-.087.758-.121 1.52-.102 2.282a1.224 1.224 0 0 1-1.193 1.258h-.033a1.226 1.226 0 0 1-1.226-1.192c-.022-.88.019-1.759.123-2.633C6.712 11.084 15.842 3.853 25.933 5.025a1.227 1.227 0 0 1-.283 2.436Z"/></svg>