<svg xmlns="http://www.w3.org/2000/svg" width="62" height="62"><path fill-rule="evenodd" d="M58.083 43.658H45.38v1.198a3.598 3.598 0 0 1-3.595 3.592h-.075l4.195 11.322a1.197 1.197 0 1 1-2.248.831l-4.503-12.153H22.846l-4.503 12.153a1.199 1.199 0 0 1-2.248-.831l4.195-11.322h-.075a3.599 3.599 0 0 1-3.596-3.592v-1.198H3.917a3.599 3.599 0 0 1-3.595-3.594V8.925a3.598 3.598 0 0 1 3.595-3.592h16.897V3.895A3.599 3.599 0 0 1 24.409.302h13.182a3.599 3.599 0 0 1 3.595 3.593v1.438h16.897a3.598 3.598 0 0 1 3.595 3.592v31.139a3.599 3.599 0 0 1-3.595 3.594Zm-39.067 1.198c0 .66.538 1.196 1.199 1.196h21.57c.661 0 1.199-.536 1.199-1.196v-1.198H19.016v1.198ZM38.789 3.895a1.2 1.2 0 0 0-1.198-1.198H24.409a1.2 1.2 0 0 0-1.198 1.198v1.198h15.578V3.895Zm20.492 5.03a1.2 1.2 0 0 0-1.198-1.197H3.917a1.2 1.2 0 0 0-1.199 1.197v31.139a1.2 1.2 0 0 0 1.199 1.198h54.166a1.2 1.2 0 0 0 1.198-1.198V8.925ZM47.777 38.864h-4.793a1.2 1.2 0 0 1-1.199-1.199V16.108c0-.662.537-1.198 1.199-1.198h4.793c.662 0 1.198.536 1.198 1.198v21.557c0 .662-.536 1.199-1.198 1.199Zm-1.198-21.559h-2.397v19.163h2.397V17.305Zm-8.089-4.709H27.704a1.197 1.197 0 1 1 0-2.396H38.49a1.198 1.198 0 0 1 0 2.396Zm-14.977 0a1.198 1.198 0 1 1-.002-2.396h.002a1.199 1.199 0 0 1 0 2.396Zm-4.497 26.268h-4.793a1.2 1.2 0 0 1-1.199-1.199V23.846c0-.966.774-1.75 1.725-1.75h3.74c.952 0 1.726.784 1.726 1.75v13.819a1.2 1.2 0 0 1-1.199 1.199Zm-1.198-14.372h-2.397v11.976h2.397V24.492Zm6.518 2.395h3.74c.952 0 1.726.805 1.726 1.796v8.982a1.2 1.2 0 0 1-1.199 1.199H23.81a1.2 1.2 0 0 1-1.199-1.199v-8.982c0-.991.774-1.796 1.725-1.796Zm.672 9.581h2.397v-7.186h-2.397v7.186Zm8.915-14.372h3.74c.952 0 1.725.784 1.725 1.75v13.819c0 .662-.536 1.199-1.198 1.199h-4.793a1.2 1.2 0 0 1-1.199-1.199V23.846c0-.966.774-1.75 1.725-1.75Zm.672 14.372h2.397V24.492h-2.397v11.976Z"/></svg>