<svg xmlns="http://www.w3.org/2000/svg" width="61" height="61"><path fill-rule="evenodd" d="m59.731 54.285-5.626-3.723a1.29 1.29 0 0 0-1.423 2.149l2.056 1.36H6.96v-11.57c1.359.036 3.512-.041 5.788-.65 5.095-1.366 8.303-4.706 9.28-9.66 1.296-6.571 4.726-9.499 7.569-9.499l.046.001c3.002.033 5.408 3.174 6.281 8.196.525 3.022.744 5.741.936 8.141.297 3.697.531 6.617 1.742 8.761 1.373 2.429 3.849 3.56 7.792 3.56a1.289 1.289 0 1 0 0-2.577c-3.767 0-4.918-1.137-5.547-2.25-.931-1.649-1.146-4.319-1.417-7.7-.197-2.455-.421-5.236-.966-8.377-1.315-7.559-5.403-10.293-8.791-10.331-2.25-.027-4.478 1.067-6.284 3.075-1.855 2.062-3.199 5.002-3.889 8.502-.781 3.957-3.253 6.531-7.35 7.651-2.036.555-4.006.613-5.19.578v-33.6l1.362 2.054a1.289 1.289 0 0 0 2.149-1.423L6.746 1.332a1.29 1.29 0 0 0-2.149 0L.872 6.954a1.29 1.29 0 0 0 2.149 1.422l1.361-2.055v6.689H2.694a1.289 1.289 0 1 0 0 2.576h1.688v7.689H2.694a1.29 1.29 0 0 0 0 2.577h1.688v7.689H2.694a1.289 1.289 0 1 0 0 2.576h1.688v7.689H2.694a1.289 1.289 0 1 0 0 2.576h1.688v7.689H2.694a1.289 1.289 0 1 0 0 2.576h1.688v1.688c0 .711.577 1.287 1.289 1.287s1.289-.576 1.289-1.287v-1.688h7.693v1.688c0 .711.577 1.287 1.289 1.287s1.289-.576 1.289-1.287v-1.688h7.694v1.688a1.288 1.288 0 0 0 2.577 0v-1.688h7.694v1.688a1.288 1.288 0 0 0 2.577 0v-1.688h7.694v1.688c0 .711.577 1.287 1.289 1.287s1.289-.576 1.289-1.287v-1.688h6.693l-2.056 1.361a1.288 1.288 0 1 0 1.423 2.148l5.626-3.724a1.287 1.287 0 0 0 0-2.147Z"/></svg>