<svg xmlns="http://www.w3.org/2000/svg" width="60" height="60"><path fill-rule="evenodd" d="M31.441 29.783h26.99c.677 0 1.226-.549 1.226-1.225C59.657 12.999 46.999.341 31.441.341c-.677 0-1.226.55-1.226 1.227v26.99c0 .676.549 1.225 1.226 1.225Zm1.227-26.959C45.9 3.447 56.551 14.098 57.174 27.33H32.668V2.824Zm25.763 29.414H33.895a1.223 1.223 0 0 0-.954 1.997l15.948 19.744a1.22 1.22 0 0 0 .954.456c.309 0 .609-.118.837-.329a28.327 28.327 0 0 0 8.977-20.642c0-.676-.549-1.226-1.226-1.226Zm-8.482 19.147L36.464 34.692h20.71a25.88 25.88 0 0 1-7.225 16.693ZM27.761 30.591V4.021c0-.677-.55-1.226-1.227-1.226C12.328 2.795.772 15.453.772 31.011c0 15.558 12.658 28.216 28.216 28.216 6.961 0 10.727-1.262 15.501-5.187a1.226 1.226 0 0 0 .189-1.7L27.761 30.591Zm1.227 26.182c-14.206 0-25.763-11.556-25.763-25.762 0-13.75 9.797-25.019 22.082-25.728v25.728c0 .272.091.537.261.753l16.429 21.123c-3.875 2.959-7.106 3.886-13.009 3.886Z"/></svg>