<svg xmlns="http://www.w3.org/2000/svg" width="50" height="47"><path fill-rule="evenodd" d="M46.224 8.645v18.933a4.327 4.327 0 0 1-4.324 4.319l-16.59.015v3.3l7.703 8.803c.485.631.508 1.267-.123 1.752a1.437 1.437 0 0 1-.878.298c-.433 0-.916-.582-1.2-.949l-5.502-6.603v4.402c0 .795-.304 1.1-1.101 1.1-.796 0-1.1-.305-1.1-1.1v-4.402l-4.774 6.991c-.485.63-1.39.748-2.021.263-.632-.485-.293-1.121.192-1.752l6.654-9.056-.051-3.047H7.703c-2.385 0-4.402-2.021-4.402-4.403V8.803C1.574 8.236 0 6.454 0 4.541 0 2.16 2.017-.001 4.402-.001h40.715c2.385 0 4.402 2.02 4.402 4.401 0 1.913-1.567 3.678-3.295 4.245ZM5.502 27.509c0 .794 1.406 2.202 2.201 2.202h34.113c.795 0 2.201-1.408 2.201-2.202V8.803H5.502v18.706ZM45.117 2.2H4.402c-.795 0-2.201 1.407-2.201 2.2 0 .795 1.406 2.201 2.201 2.201h40.715c.795 0 2.201-1.406 2.201-2.201 0-.793-1.406-2.2-2.201-2.2ZM33.013 25.308c-3.974 0-6.603-2.633-6.603-6.602 0-3.97 2.629-6.602 6.603-6.602 3.974 0 6.602 2.632 6.602 6.602 0 3.969-2.628 6.602-6.602 6.602Zm1.1-11.003v3.3h3.301c0-1.489-1.854-3.3-3.301-3.3Zm-1.1 5.501c-.797 0-1.101-.305-1.101-1.1v-4.401c-1.678.593-3.301 2.524-3.301 4.401 0 2.381 2.255 4.552 4.64 4.552 1.879 0 3.833-1.731 4.163-3.452h-4.401Zm-11.005 5.502c-.796 0-1.1-.304-1.1-1.1v-5.502c0-.796.304-1.101 1.1-1.101.797 0 1.101.305 1.101 1.101v5.502c0 .796-.304 1.1-1.101 1.1Zm-5.502 0c-.796 0-1.1-.304-1.1-1.1v-8.804c0-.795.304-1.099 1.1-1.099.797 0 1.101.304 1.101 1.099v8.804c0 .796-.304 1.1-1.101 1.1Zm-5.502 0h-1.1c-.797 0 0-.304 0-1.1V13.204c0-.795.304-1.1 1.1-1.1s1.101.305 1.101 1.1v11.004c0 .796-.305 1.1-1.101 1.1Z"/></svg>