<svg xmlns="http://www.w3.org/2000/svg" width="40" height="40"><path fill-rule="evenodd" d="M29.852 25.457c.379 1.066.586 2.215.586 3.41 0 5.641-4.593 10.231-10.237 10.231-5.645 0-10.237-4.59-10.237-10.231 0-1.195.207-2.344.585-3.41H.902v-2.261h4.542v-9.079h6.813V9.578h6.813V5.039h6.813V.499h9.075v22.697H39.5v2.261h-9.648Zm-17.595-9.079H7.705v6.818h3.979c.179-.267.37-.525.573-.775v-6.043Zm6.813-4.539h-4.552v8.521a10.187 10.187 0 0 1 4.552-1.662v-6.859Zm-6.844 17.028c0 4.395 3.577 7.97 7.975 7.97s7.975-3.575 7.975-7.97-3.577-7.971-7.975-7.971-7.975 3.576-7.975 7.971ZM25.883 7.299h-4.552v11.399c1.671.184 3.221.771 4.552 1.662V7.299Zm6.813-4.54h-4.551v19.662c.203.25.394.508.573.775h3.978V2.759ZM20.201 27.737a3.487 3.487 0 0 1 3.484 3.481 3.487 3.487 0 0 1-2.354 3.293v1.346H19.07v-1.346a3.487 3.487 0 0 1-2.353-3.293h2.262a1.223 1.223 0 1 0 1.222-1.221 3.487 3.487 0 0 1-3.484-3.483c0-1.524.986-2.822 2.353-3.292v-1.335h2.261v1.335a3.487 3.487 0 0 1 2.354 3.292h-2.262a1.223 1.223 0 0 0-2.444 0c0 .674.548 1.223 1.222 1.223Z"/></svg>