<svg xmlns="http://www.w3.org/2000/svg" width="38" height="38"><path fill-rule="evenodd" d="M36.821 37.741H11.477a4.455 4.455 0 0 1-4.45-4.377l-.001-4.672H1.361a1.103 1.103 0 0 1-1.103-1.103V5.519c0-.61.494-1.104 1.103-1.104h16.82L20.503.603c.2-.327.557-.528.942-.528h10.962c.61 0 1.103.494 1.103 1.104v12.16l3.304-.023a1.106 1.106 0 0 1 1.111 1.104v22.217c0 .61-.494 1.104-1.104 1.104ZM9.233 29.448c1.542-.905 2.805-.513 4.414-.608V11.183h-2.17a2.248 2.248 0 0 0-2.244 2.245v16.02Zm22.07-27.167h-9.238l-2.322 3.812c-.2.328-.557.529-.942.529H2.465v19.863h4.561V13.428a4.457 4.457 0 0 1 4.451-4.452h3.274c.609 0 1.103.495 1.103 1.103v3.377l15.449-.102V2.281Zm4.414 13.25-19.863.133v14.279c0 .61-.494 1.103-1.103 1.103h-3.274a2.247 2.247 0 0 0-2.244 2.245 2.246 2.246 0 0 0 2.244 2.243h24.24V15.531Zm-16.016 4.665 13.316 8.828c.908.601.48 2.022-.61 2.022H19.091a1.103 1.103 0 0 1-1.103-1.103v-8.828c0-.883.984-1.403 1.713-.919Zm.494 8.644h8.55l-8.55-5.669v5.669Z"/></svg>