<svg xmlns="http://www.w3.org/2000/svg" width="40" height="40"><path fill-rule="evenodd" d="M38.39 37.092h-5.876v1.297a1.144 1.144 0 1 1-2.289 0v-1.297h-4.578v1.297a1.145 1.145 0 1 1-2.29 0v-1.297h-4.578v1.297a1.144 1.144 0 1 1-2.289 0v-1.297h-4.579v1.297a1.144 1.144 0 1 1-2.289 0v-1.297H5.044v1.297a1.145 1.145 0 1 1-2.289 0v-1.297H1.61a1.145 1.145 0 1 1 0-2.289h1.145v-4.578H1.61a1.145 1.145 0 0 1 0-2.29h1.145v-4.579H1.61a1.145 1.145 0 1 1 0-2.289h1.145v-4.578H1.61a1.145 1.145 0 1 1 0-2.289h1.145V9.621H1.61a1.145 1.145 0 1 1 0-2.289h1.145V1.609c0-.632.512-1.145 1.144-1.145C4.531.464 5 1.367 5 1.999v33h33c.632 0 1.535.316 1.535.949 0 .632-.513 1.144-1.145 1.144Zm-9.309-20.603h4.578c.632 0 1.145.512 1.145 1.144v13.736c0 .632-.513 1.145-1.145 1.145h-4.578a1.145 1.145 0 0 1-1.145-1.145V17.633c0-.632.512-1.144 1.145-1.144Zm1.144 13.736h2.289V18.778h-2.289v11.447ZM19.924 9.621h4.578c.632 0 1.145.512 1.145 1.145v20.603c0 .632-.513 1.145-1.145 1.145h-4.578a1.145 1.145 0 0 1-1.145-1.145V10.766c0-.633.512-1.145 1.145-1.145Zm1.144 20.604h2.289V11.911h-2.289v18.314Zm-5.723-13.736c.633 0 1.145.512 1.145 1.144v13.736c0 .632-.512 1.145-1.145 1.145h-4.578a1.145 1.145 0 0 1-1.145-1.145V17.633c0-.632.512-1.144 1.145-1.144h4.578Zm-3.434 13.736h2.29V18.778h-2.29v11.447ZM35.948 14.2c-3.505 0-5.693-3.16-7.809-6.216-1.862-2.69-3.62-5.23-5.926-5.23s-4.065 2.54-5.927 5.23C14.17 11.04 11.983 14.2 8.478 14.2a1.145 1.145 0 1 1 0-2.289c2.305 0 4.064-2.54 5.926-5.231C16.52 3.625 18.707.464 22.213.464c3.505 0 5.693 3.161 7.809 6.216 1.862 2.691 3.62 5.231 5.926 5.231a1.144 1.144 0 1 1 0 2.289Z"/></svg>