<svg xmlns="http://www.w3.org/2000/svg" width="47" height="40"><path fill-rule="evenodd" d="M37.589 18.649h-5.72l-4.88 4.888a1.318 1.318 0 0 1-2.248-.933v-4.049c-4.46-.641-7.899-4.493-7.899-9.134 0-5.089 4.134-9.229 9.215-9.229h11.532c5.13 0 9.303 4.14 9.303 9.229 0 5.088-4.173 9.228-9.303 9.228Zm0-15.821H26.057c-3.629 0-6.582 2.957-6.582 6.593 0 3.635 2.953 6.592 6.582 6.592.728 0 1.317.589 1.317 1.318v2.091l3.019-3.024c.247-.247.581-.385.93-.385h6.266c3.678 0 6.671-2.957 6.671-6.592 0-3.636-2.993-6.593-6.671-6.593Zm.392 8.704a1.713 1.713 0 0 1-1.711-1.714 1.712 1.712 0 1 1 3.422 0c0 .946-.766 1.714-1.711 1.714Zm-6.235.053c-.96 0-1.737-.779-1.737-1.74a1.738 1.738 0 1 1 3.474 0c0 .961-.777 1.74-1.737 1.74Zm-6.074-.072c-.94 0-1.701-.763-1.701-1.704a1.702 1.702 0 1 1 3.403 0c0 .941-.762 1.704-1.702 1.704Zm-14.005 8.04c1.691 3.537 5.942 7.757 9.538 9.466l3.351-2.237a1.316 1.316 0 0 1 1.148-.155l7.88 2.637c.537.18.899.684.899 1.251v5.274c0 2.18-1.764 3.955-3.931 3.955-7.281 0-14.761-3.295-20.521-9.04C4.264 24.953.957 17.477.957 10.193a3.947 3.947 0 0 1 3.949-3.937h5.266c.566 0 1.069.363 1.249.901l2.633 7.891c.128.387.072.811-.154 1.15l-2.233 3.355Zm-2.59-.864 2.275-3.416-2.128-6.38H4.906c-.738 0-1.317.571-1.317 1.3 0 13.835 13.104 26.914 26.963 26.914.728 0 1.298-.579 1.298-1.318v-4.324l-6.369-2.132-3.414 2.279c-.36.241-.817.288-1.219.127-2.201-.881-4.675-2.617-6.965-4.886-2.306-2.285-4.058-4.75-4.933-6.942a1.32 1.32 0 0 1 .127-1.222Z"/></svg>