<svg xmlns="http://www.w3.org/2000/svg" width="40" height="40"><path fill-rule="evenodd" d="M38.103 26.459H35.85a1.126 1.126 0 1 1 0-2.254h2.253a1.127 1.127 0 0 1 0 2.254Zm-1.147-6.535-1.952 1.126a1.124 1.124 0 0 1-1.539-.413 1.127 1.127 0 0 1 .412-1.539l1.952-1.126a1.126 1.126 0 1 1 1.127 1.952Zm-4.674 17.444a1.127 1.127 0 0 1-1.54-.414l-1.126-1.951a1.126 1.126 0 1 1 1.951-1.127l1.127 1.952a1.128 1.128 0 0 1-.412 1.54Zm-.769-8.467a7.141 7.141 0 0 1-8.727 3.097l-1.735 3.005a1.127 1.127 0 0 1-1.539.413l-3.253-1.878a3.386 3.386 0 0 1-1.633-3.545l-7.649-4.416c-4.222-2.438-5.835-7.683-3.846-12.032A8.643 8.643 0 0 1 .77 7.605V1.896a1.126 1.126 0 1 1 2.253 0v5.709c0 1.438.482 2.818 1.35 3.933a9.343 9.343 0 0 1 4.81-3.146V1.896c0-.623.504-1.127 1.127-1.127h4.507c.622 0 1.127.504 1.127 1.127v7.189c.143.073.284.148.423.228l7.647 4.416a3.375 3.375 0 0 1 1.323-.696 3.363 3.363 0 0 1 2.565.338l3.253 1.878a1.129 1.129 0 0 1 .412 1.54l-1.734 3.004c2.674 2.17 3.456 6.031 1.68 9.108ZM13.69 3.023h-2.253v13.295c0 .621.505 1.127 1.126 1.127.622 0 1.127-.506 1.127-1.127V3.023Zm2.254 8.648v4.647a3.384 3.384 0 0 1-3.381 3.38 3.383 3.383 0 0 1-3.38-3.38v-5.561a7.114 7.114 0 0 0-3.691 3.12 7.091 7.091 0 0 0-.713 5.415 7.088 7.088 0 0 0 3.325 4.333l7.481 4.32 7.136-12.36-6.777-3.914Zm10.831 3.652a1.12 1.12 0 0 0-.854-.113 1.12 1.12 0 0 0-.685.525l-8.263 14.312a1.13 1.13 0 0 0 .413 1.54l2.277 1.314 9.389-16.264-2.277-1.314Zm1.909 6.459-4.75 8.227a4.889 4.889 0 0 0 5.628-2.235 4.892 4.892 0 0 0-.878-5.992Zm-3.351 12.94c.623 0 1.127.504 1.127 1.127v2.253a1.126 1.126 0 1 1-2.253 0v-2.253c0-.623.504-1.127 1.126-1.127Zm9.671-5.107 1.952 1.126a1.127 1.127 0 0 1-1.127 1.952l-1.952-1.127a1.126 1.126 0 1 1 1.127-1.951Z"/></svg>