<svg xmlns="http://www.w3.org/2000/svg" width="33" height="44"><path fill-rule="evenodd" d="M29 43.999H4c-2.013 0-4-1.987-4-4v-36c0-2.014 1.987-4 4-4h25c2.013 0 4 1.986 4 4v36c0 2.013-1.987 4-4 4Zm2-40c0-1.007-.993-2-2-2H4c-1.007 0-2 .993-2 2v36c0 1.006.993 2 2 2h25c1.007 0 2-.994 2-2v-36Zm-20 27c-.505 0-1-.496-1-1v-18c0-.505.495-1 1-1h10c.505 0 1 .495 1 1v9l2 5-2 5H11Zm1-3.001 3-1.999-3-2v3.999Zm8-14.999h-8v7h8v-7Zm-.455 9H13l3 3h5l-1.455-3Zm-3.545 5-2 2h6l1-2h-5Zm0-19c-1.151 0-2-.849-2-2s.849-2 2-2 2 .849 2 2-.849 2-2 2Zm0 28c1.061 0 2 .94 2 2 0 1.061-.939 2-2 2s-2-.939-2-2c0-1.06.939-2 2-2Z"/></svg>