<svg xmlns="http://www.w3.org/2000/svg" width="21" height="30"><path fill-rule="evenodd" d="M15.399 19.562v2.144a1.08 1.08 0 0 1-1.08 1.081H6.645a1.08 1.08 0 0 1-1.08-1.081v-2.147C2.239 17.743.125 14.23.125 10.42.125 4.694 4.779.036 10.5.036c5.72 0 10.375 4.658 10.375 10.384 0 3.818-2.127 7.334-5.476 9.142ZM10.5 2.2c-4.529 0-8.213 3.687-8.213 8.22 0 3.203 1.888 6.143 4.811 7.49.382.177.628.561.628.983v1.731h5.512v-1.731c0-.424.247-.809.633-.985 2.941-1.34 4.842-4.28 4.842-7.488 0-4.533-3.684-8.22-8.213-8.22ZM7.51 24.229h5.98a1.082 1.082 0 0 1 0 2.164H7.51a1.082 1.082 0 0 1 0-2.164Zm1.729 3.57h2.522a1.08 1.08 0 0 1 0 2.162H9.239a1.08 1.08 0 1 1 0-2.162Z"/></svg>