<svg xmlns="http://www.w3.org/2000/svg" width="22" height="32"><path fill-rule="evenodd" d="M18.059 26.588h-1.176v.941c0 .649.528 1.177 1.176 1.177h1.177v2.353h-1.177a3.534 3.534 0 0 1-3.529-3.53v-.941h-2.353v4.471H9.823v-4.471H7.47v.941a3.534 3.534 0 0 1-3.53 3.53H2.764v-2.353H3.94c.649 0 1.177-.528 1.177-1.177v-.941H3.94a3.533 3.533 0 0 1-3.529-3.529V4.468A3.534 3.534 0 0 1 3.94.939h14.119a3.534 3.534 0 0 1 3.53 3.529v18.591a3.533 3.533 0 0 1-3.53 3.529Zm1.177-22.12c0-.649-.528-1.176-1.177-1.176H3.94c-.648 0-1.176.527-1.176 1.176v18.591c0 .648.528 1.177 1.176 1.177h14.119c.649 0 1.177-.529 1.177-1.177V4.468ZM5.117 17.175h11.766v2.354H5.117v-2.354Zm6.409-1.95-2.105-1.053.852-1.703H7.92l2.554-5.108 2.104 1.053-.851 1.702h2.353l-2.554 5.109Z"/></svg>