<svg xmlns="http://www.w3.org/2000/svg" width="45" height="45"><path fill-rule="evenodd" d="m42.145 11.005 2.085.953-10.818 11.713v17.102a4.165 4.165 0 0 1-4.164 4.166H4.267a4.164 4.164 0 0 1-4.163-4.166V4.668c0-2.301 1.166-4.669 3.465-4.669h26.31c2.299 0 3.533 2.368 3.533 4.669l.055 3.702L40.466.909l1.372 1.481-15.807 16.886-.936 4.641 5.98-1.196 11.07-11.716ZM2.373 40.659c0 .767 1.128 1.503 1.894 1.503h24.981c.766 0 1.827-.736 1.827-1.503v-7.175H2.373v7.175Zm21.526-22.722 7.176-7.175V4.783c0-.767-.43-2.393-1.196-2.393H3.569c-.766 0-1.196 1.626-1.196 2.393v26.308h28.702v-5.979l-8.371 1.197 1.195-8.372Zm-7.175 8.372h2.392V28.7h-2.392v-2.391Zm-2.392-5.98-3.587 1.196c-.71.242-1.435 1.488-1.439 2.238.003.961.479 2.548 1.439 2.546h3.587V28.7h-3.587c-1.945 0-2.975-1.741-3.588-3.588-.786-2.367 1.222-5.192 3.588-5.979l2.349-.82a2.283 2.283 0 0 0-.274-4.408c-3.367-.682-6.016-3.398-6.859-6.731V5.979h2.392v1.195c.58 2.294 2.466 4.313 4.783 4.784 2.673.521 3.588 2.298 3.588 3.587.002 2.181-.324 4.098-2.392 4.784Zm1.038 16.278h2.775v2.778H15.37v-2.778Z"/></svg>