<svg xmlns="http://www.w3.org/2000/svg" width="105" height="120"><path fill-rule="evenodd" d="M92.404 53.922v-3.473h12.144v3.473H92.404Zm-6.217-23.224 10.517-6.078 1.735 3.008-10.518 6.078-1.734-3.008Zm-14.602 52.52v8.549a7.316 7.316 0 0 1-3.459 6.209 6.918 6.918 0 0 1 1.723 4.571 6.944 6.944 0 0 1-6.168 6.902 6.908 6.908 0 0 1 .963 3.517 6.944 6.944 0 0 1-6.94 6.947H47.295a6.944 6.944 0 0 1-6.94-6.947c0-1.285.355-2.484.963-3.517a6.944 6.944 0 0 1-6.167-6.902c0-1.753.653-3.349 1.723-4.571a7.314 7.314 0 0 1-3.459-6.209v-8.549c-13.887-8.547-20.41-25.29-15.974-40.991C21.879 26.523 36.197 15.684 52.5 15.684c16.303 0 30.621 10.839 35.058 26.543 4.437 15.701-2.087 32.444-15.973 40.991Zm-24.29 33.222h10.409a3.47 3.47 0 0 0 3.47-3.474 3.47 3.47 0 0 0-3.47-3.472H47.295a3.471 3.471 0 0 0-3.47 3.472 3.47 3.47 0 0 0 3.47 3.474Zm-5.206-10.42H62.91a3.471 3.471 0 0 0 3.469-3.473 3.47 3.47 0 0 0-3.469-3.473H42.089a3.47 3.47 0 0 0-3.468 3.473 3.47 3.47 0 0 0 3.468 3.473Zm10.428-86.832c-.598 0-1.198.016-1.801.047-14.565.783-26.88 11.06-30.275 25.259-3.394 14.198 2.944 28.941 15.577 36.237.535.31.867.883.867 1.502v9.534a3.838 3.838 0 0 0 3.831 3.834h23.568a3.837 3.837 0 0 0 3.83-3.834v-9.539c0-.619.332-1.192.868-1.502a33.123 33.123 0 0 0 16.482-28.542c0-18.216-14.748-32.986-32.947-32.996Zm-2.3 50.561c-.7.006-1.4-.028-2.097-.093a8.34 8.34 0 0 0-.913 6.878l-3.293 1.093a11.864 11.864 0 0 1 1.27-9.818c-2.523-3.778-3.467-7.21-2.878-10.46 1.034-5.673 6.542-9.28 11.402-12.462 3.616-2.369 7.033-4.606 7.502-6.947.316-1.579 2.424-1.914 3.212-.51.348.607 8.266 15.008-.125 26.206-3.916 5.235-10.259 6.113-14.08 6.113Zm12.545-27.534a33.822 33.822 0 0 1-7.155 5.586c-4.485 2.937-9.12 5.97-9.889 10.176-.433 2.399.399 5.09 2.545 8.203 2.255.206 9.475.431 13.259-4.618 4.935-6.588 2.906-14.935 1.24-19.347Zm8.193-25.483 6.072-10.527 3.005 1.736-6.072 10.527-3.005-1.736ZM50.765.085h3.469v12.157h-3.469V.085ZM24.972 7.933l3.005-1.737 6.073 10.527-3.005 1.738-6.073-10.528ZM6.556 27.64l1.735-3.009 10.517 6.079-1.735 3.009L6.556 27.64Zm6.04 26.282H.451v-3.473h12.145v3.473Zm6.217 19.731L8.295 79.729l-1.734-3.007 10.517-6.078 1.735 3.009Zm79.63 3.083-1.736 3.008-10.517-6.078 1.735-3.009 10.518 6.079Z"/></svg>