<svg xmlns="http://www.w3.org/2000/svg" width="120" height="120"><path fill-rule="evenodd" d="M118 85h-11c1.71 5.041 3 11.387 3 17v15.999c0 1.109-.889 1.001-2 1.001H12c-1.109 0-2 .108-2-1.001V102c0-5.613 1.29-11.959 3-17H2c-1.11 0-2-.892-2-2.001v-7c-.003-6.184 1.989-12.285 6-17 3.444-4.046 6.239-6.627 11-8-2.371-1.367-3-4.604-3-8v-9c0-6.085 3.904-10 10-10h3c6.095 0 10 4.915 10 11v8c0 3.392-1.25 6.401-4 8 3.019.713 6.344 1.952 9 4 5.649-2.201 11.58-3 18-3 6.179 0 12.473 1.913 18 4 2.066-2.553 6.948-5.493 9-6-2.352-1.144-4-3.608-4-7v-9c0-6.086 3.906-10 10-10h2c6.094 0 10 4.915 10 11v8c0 3.386-1.18 5.537-4 7 4.181 1.21 8.445 3.983 11.607 7.143 4.932 4.928 7.397 10.891 7.393 17.857v9c0 1.109-.888 1.001-2 1.001ZM34 42.999v-9c0-4.348-2.594-7-7-7h-3c-4.513 0-7 2.493-7 7v9c0 2.628.309 7 5 7h7c3.531 0 5-4.002 5-7Zm-25 17c-4.008 3.457-6.003 10.768-6 16v6h11c5.002-14.548 19.18-22.976 25-25-6.732-6.051-23.686-5.564-30 3Zm68.853-.877a1.954 1.954 0 0 1-.218-.089c-5.448-2.26-11.378-4.034-17.635-4.034-10.774 0-47 8.445-47 47.001v14h94v-14c0-19.12-12.519-35.882-29.147-42.878ZM102 42.999v-9c0-3.872-3.123-7-7-7h-2c-3.879 0-7 3.128-7 7v9c0 2.628 2.368 6 5 6h6c2.632 0 5-3.372 5-6Zm15 32c0-14.303-11.634-22.995-23-23-4.138 0-10.281 1.713-13 5 10.127 5.085 19.67 14.636 24.542 24.994l11.458.006v-7Zm-51-26H54c-7.757 0-14-6.254-14-14v-18C40 7.041 48.027-.002 58-.002h4c9.974 0 18 7.043 18 17.001V36c0 7.744-6.244 12.999-14 12.999Zm11-32c0-7.745-7.244-14-15-14h-4c-7.757 0-15 6.255-15 14V36c0 5.532 5.459 9.999 11 9.999h12c6.704 0 11-4.146 11-11v-18Z"/></svg>