<svg xmlns="http://www.w3.org/2000/svg" width="120" height="120"><path fill-rule="evenodd" d="M66 31.999v-3c17.075 0 30 13.925 30 31s-12.925 31-30 31v-3c15.577 0 27-13.05 27-28 0-14.926-11.073-28-27-28Zm54 17v22l-11 2c-.85 2.81-3.074 8.24-4 9l5 7-14 17s-5.957-3.433-8.416-4.786c-2.459 1.239-4.924 1.981-7.584 2.786l-3 10H55l-3-10 2.477-.825L57 110.999h18L77 102c3.259-.945 7.116-2.031 11-4.001l7.552 4.72L107 88.999l-5-7c2.338-3.731 4.313-8.645 5.092-11.549L117 68.999V51.554l-10-1.555c-.26-1.96-1.945-8.812-4-12l5-8-12.386-11.317L88 22.999c-1.96-1.157-5.71-3.678-11-5l-3-9H57l-2 8-3-1 3-10h21.271l3.189 9.659c2.811.851 5.942 1.971 8.54 3.341l8-4 15.594 14.619s-2.157 3.531-5.014 8.511c1.117 2.646 2.503 6.129 2.941 8.965L120 48.999Zm-58-3-.063 27.592c0 6.802-5.372 12.463-11.937 13.408v33H12v-34C5.434 85.054.013 80.369.013 73.567V46.479c0-7.463 6.5-13.457 13.987-13.48h4l13 22 12-22h6c4.221 0 13 5.928 13 13Zm-59 0v28c0 4.652 3.956 8.061 9 9v-25L5.081 40.208C4.439 40.783 3 42.025 3 45.999ZM45 36 31 59.999 16 36s-4.988-1.219-9 1.999l8 20v59h14v-22h3v22h15v-59l7-20C51.249 35.469 45 36 45 36Zm11 3.999-6 18v26c4.872-.962 9-4.998 9-10v-28c0-1.889-1.145-4.852-3-6Zm-25-10c-8.526 0-15-6.451-15-15C16 6.473 22.474-.024 31-.002c8.526 0 15 6.475 15 15.001s-6.474 15-15 15Zm0-27c-6.4 0-12 5.599-12 12 0 6.424 5.6 12 12 12s12-5.6 12-12c0-6.401-5.6-12-12-12Z"/></svg>