<svg xmlns="http://www.w3.org/2000/svg" width="80" height="119"><path fill-rule="evenodd" d="M37 104.999c.142.129 1.142 1 2 1h2c3.371 0 5.422-4.54 5.428-6.526.588-.48 1.51-.638 2.174-.309.865.429.717.923.398 1.835-1.95 5.577-5.88 8-8 8h-2c-1.085 0-7.221-2.99-9.187-10.306-1.491-4.821-.896-9.577 1.871-14.172a70.008 70.008 0 0 0 1.507-2.609c.042-.097.092-.19.151-.278 2.965-5.381 1.895-5.765.438-9.67a6.796 6.796 0 0 1-.446-2.429c0-1.884.789-3.705 2.164-4.994 1.395-1.308 2.871-1.527 4.787-1.54 3.594-.022 6.425 2.665 6.715 5.998.091 1.044-.064 2.004-.435 2.978-1.456 3.899-1.939 5.2.45 9.673.05.077.093.157.131.242a56.91 56.91 0 0 0 1.519 2.629c2.092 3.405 2.143 7.449 2.08 8.663-.066.746-.463 1.435-1.084 1.466-.961.056-1.693-.685-1.661-1.651.175-5.277-1.394-7.585-3-9H35c-1.048 1.398-7.867 12.039 2 21Zm7-24c-.58-1.413-.936-2.877-1-4h-5c-.064 1.124-.422 2.587-1 4h7Zm-6.333-6.706h5.014c1.312-1.233 1.687-2.602 1.803-4.552-.097-1.955-.988-4.263-4-4.263-2.287 0-4.458.939-4.458 3.993 0 2.786.752 3.782 1.641 4.822ZM79 3.999l-11 17c-.529.81-.521.87-1.33.342a1.75 1.75 0 0 1-.508-2.423L77 2.999H61l-19 29 5 8h6l9-14c.528-.81 1.33-1.309 2.139-.78.809.528 1.389.97.861 1.78L56 41c.88.583 1 .868 1 1.999v14c9.745 5.935 17 16.776 17 29C74 104.634 58.627 119 40 119c-18.627 0-33-14.366-33-33.001 0-6.724 1.275-13.436 5-19 .537-.804 1.712-1.038 2.515-.499.802.537.022 1.697-.515 2.499-3.338 4.987-4 10.973-4 17C10 102.705 23.302 116 40 116c16.697 0 31-13.295 31-30.001 0-16.705-14.303-31-31-31-7.43 0-14.455 3.065-20 8-.722.642-1.773.7-2.416-.022-.449-.505-.42-1.443-.116-2.183.948-.995 4.063-3.219 5.532-3.795v-14c0-1.131.24-1.873 1.12-2.457L.675 4.612a2.942 2.942 0 0 1-.123-3.011A2.938 2.938 0 0 1 3.14.058h15.776c1.402 0 2.697.702 3.464 1.877L40 28.999l18-27C58.765.824 60.028.058 61.433.058h15.775c2.336 0 3.068 1.985 1.792 3.941Zm-53 51c4.362-1.991 9.293-3.032 14.175-3.032 4.996 0 9.552 1.076 13.825 3.032v-12h-5l1.845 2.558c.944 1.448-.097 3.369-1.824 3.369H30.769a2.17 2.17 0 0 1-1.823-.988L26 42.999v12Zm-6-52c-.119-.181-.784 0-1 0H3l28 43h16l-27-43Z"/></svg>