<svg xmlns="http://www.w3.org/2000/svg" width="260" height="262"><path fill-rule="evenodd" d="M140 239.999c-58.133 0-105.884-41.508-117.075-95.937C19 129.714 29.749 114.748 44 112.999c.513-.063.476.03 1 0v13c-.524.062-1.397-.063-1.9.066-5.122 1.315-9.01 5.989-9.01 11.633 0 2.344 3.056 19.156 12.767 36.011 18.657 32.372 53.175 54.289 93.143 54.289 59.614 0 108-48.283 108-107.999 0-59.731-48.386-108.001-108-108.001-54.23 0-98.732 39.648-106.389 91.859a35.932 35.932 0 0 0-12.903 8.255C24.624 49.289 76.317-.001 140-.001c66.238 0 120 53.634 120 120 0 66.352-53.762 120-120 120Zm-111.6-48.11 41.688 41.689a5.79 5.79 0 0 1 0 8.207l-.342.329a5.77 5.77 0 0 1-8.191 0L19.85 200.423c-2.257-2.258-2.257-5.931 0-8.205l.344-.329c2.274-2.274 5.946-2.274 8.206 0Zm27.343 51.251c2.263 2.276 2.263 5.947 0 8.206l-.342.343c-2.274 2.261-5.944 2.261-8.206 0l-36.906-36.907a5.811 5.811 0 0 1 0-8.207l.343-.342a5.798 5.798 0 0 1 8.193 0l36.918 36.907Zm-15.383 8.549c2.259 2.261 2.259 5.932 0 8.206l-.342.343a5.813 5.813 0 0 1-8.206 0l-4.493-4.506c-5.576 1.603-11.963.355-16.348-4.043-4.395-4.396-5.657-10.781-4.038-16.343l-5.192-5.192a5.795 5.795 0 0 1 0-8.194l.343-.341a5.785 5.785 0 0 1 8.205 0l30.071 30.07Z"/></svg>