<?xml version="1.0" encoding="utf-8"?>
<!-- Generator: Adobe Illustrator 23.0.1, SVG Export Plug-In . SVG Version: 6.00 Build 0)  -->
<svg version="1.1" id="Layer_1" xmlns="http://www.w3.org/2000/svg" xmlns:xlink="http://www.w3.org/1999/xlink" x="0px" y="0px"
	 viewBox="0 0 70 60.5" style="enable-background:new 0 0 70 60.5;" xml:space="preserve">
<g>
	<path d="M0,43.8C0,53,7.5,60.5,16.7,60.5S33.3,53,33.3,43.8s-7.5-16.7-16.7-16.7c-1.9,0-3.7,0.3-5.4,0.9c3.8-21.5,20.5-35.4,5-24
		C-1,16.8,0,43.3,0,43.8C0,43.8,0,43.8,0,43.8"/>
	<path d="M36.7,43.8c0,9.2,7.5,16.7,16.7,16.7C62.5,60.5,70,53,70,43.8s-7.5-16.7-16.7-16.7c-1.9,0-3.7,0.3-5.4,0.9
		c3.8-21.5,20.5-35.4,5-24C35.7,16.8,36.7,43.3,36.7,43.8C36.7,43.8,36.7,43.8,36.7,43.8"/>
</g>
</svg>
