<svg xmlns="http://www.w3.org/2000/svg" width="21" height="25"><path fill-rule="evenodd" d="M19.758 23.839c-.813.769-1.89 1.159-3.198 1.159H4.44c-1.309 0-2.385-.39-3.199-1.159C.418 23.06 0 22.004 0 20.698c0-.502.017-.998.05-1.476.034-.488.103-1.019.204-1.58a12.46 12.46 0 0 1 .391-1.588 7.84 7.84 0 0 1 .657-1.481c.284-.496.617-.927.991-1.283a4.348 4.348 0 0 1 1.425-.888 4.921 4.921 0 0 1 1.817-.328c.257 0 .505.105.985.415.3.194.646.415 1.027.657.329.21.776.405 1.328.582a5.306 5.306 0 0 0 1.624.261c.54 0 1.086-.088 1.624-.261.552-.177.999-.372 1.329-.582.385-.245.731-.465 1.026-.656.48-.311.728-.416.985-.416.655 0 1.266.11 1.818.328a4.349 4.349 0 0 1 1.424.888c.374.355.708.787.991 1.283.274.477.495.976.658 1.481.157.489.289 1.023.391 1.588.101.562.17 1.092.204 1.579.034.477.051.974.051 1.477 0 1.306-.418 2.362-1.242 3.141Zm-.281-4.515c-.03-.435-.092-.913-.184-1.423a10.82 10.82 0 0 0-.344-1.4 6.392 6.392 0 0 0-.535-1.205 4.2 4.2 0 0 0-.728-.949 2.944 2.944 0 0 0-.948-.584 3.398 3.398 0 0 0-1.162-.222c-.051.028-.143.078-.292.176-.304.196-.643.413-1.039.664-.436.277-.997.525-1.668.741a6.791 6.791 0 0 1-2.078.332 6.762 6.762 0 0 1-2.078-.333c-.67-.215-1.231-.463-1.667-.739-.386-.245-.736-.469-1.039-.665a3.609 3.609 0 0 0-.293-.176 3.402 3.402 0 0 0-1.162.222 2.921 2.921 0 0 0-.947.584 4.2 4.2 0 0 0-.728.949c-.223.39-.403.796-.535 1.205-.138.427-.253.898-.344 1.4-.092.509-.154.987-.184 1.423a19.21 19.21 0 0 0-.047 1.374c0 .901.256 1.581.783 2.08.538.508 1.251.755 2.182.755h12.119c.931 0 1.645-.247 2.182-.755.527-.499.783-1.178.784-2.08a19.738 19.738 0 0 0-.048-1.374Zm-9.136-7.284c-1.665 0-3.108-.592-4.286-1.763-1.179-1.171-1.776-2.602-1.776-4.258 0-1.654.597-3.086 1.776-4.257C7.233.593 8.675-.001 10.341-.001c1.666 0 3.108.594 4.286 1.763 1.179 1.171 1.777 2.603 1.777 4.257 0 1.656-.598 3.087-1.776 4.258-1.179 1.171-2.621 1.763-4.287 1.763Zm3.244-9.242c-.905-.899-1.966-1.334-3.244-1.334-1.278 0-2.339.435-3.243 1.334-.905.898-1.345 1.953-1.345 3.221 0 1.27.44 2.323 1.345 3.221.904.899 1.965 1.336 3.243 1.336 1.278 0 2.339-.437 3.244-1.336.904-.898 1.344-1.951 1.344-3.221 0-1.268-.44-2.323-1.344-3.221Z"/></svg>