<svg xmlns="http://www.w3.org/2000/svg" width="25" height="21"><path fill-rule="evenodd" d="M18.359-.002c-2.634 0-4.302 1.495-5.237 2.751a9.157 9.157 0 0 0-.622.959 9.157 9.157 0 0 0-.622-.959C10.942 1.493 9.275-.002 6.641-.002c-1.873 0-3.584.733-4.817 2.063C.648 3.33 0 5.03 0 6.847c0 1.978.812 3.818 2.556 5.79 1.558 1.761 3.8 3.578 6.397 5.681.967.785 1.967 1.595 3.033 2.481l.031.027a.756.756 0 0 0 .483.172.752.752 0 0 0 .482-.172l.032-.027c1.065-.886 2.066-1.696 3.033-2.481 2.596-2.103 4.839-3.92 6.397-5.681C24.188 10.665 25 8.825 25 6.847c0-1.817-.648-3.517-1.824-4.786-1.233-1.33-2.944-2.063-4.817-2.063Zm-3.262 17.261c-.834.675-1.692 1.371-2.597 2.119a303.806 303.806 0 0 0-2.598-2.119c-5.081-4.117-8.437-6.838-8.437-10.412 0-1.478.518-2.851 1.458-3.865.951-1.026 2.271-1.591 3.718-1.591 2.008 0 3.306 1.177 4.041 2.163a8.122 8.122 0 0 1 1.122 2.121.729.729 0 0 0 .696.479.729.729 0 0 0 .696-.479 8.122 8.122 0 0 1 1.122-2.121c.735-.986 2.033-2.163 4.041-2.163 1.447 0 2.767.565 3.718 1.591.94 1.014 1.458 2.387 1.458 3.865 0 3.574-3.357 6.295-8.438 10.412Z"/></svg>