<svg xmlns="http://www.w3.org/2000/svg" width="49" height="49"><path fill-rule="evenodd" d="M46.311 36.285h-9.832l6.08 10.135a1.19 1.19 0 0 1-1.024 1.806c-.404 0-.8-.206-1.024-.58l-4.946-8.244v7.631c0 .661-.534 1.194-1.194 1.194-.66 0-1.194-.533-1.194-1.194v-7.631l-4.946 8.245a1.187 1.187 0 0 1-1.637.411 1.19 1.19 0 0 1-.411-1.637l6.08-10.135h-9.832a2.388 2.388 0 0 1-2.388-2.388v-3.436l2.388.597v2.839h23.88V14.79h-23.88v3.018l-2.388-1.194V14.79a2.388 2.388 0 0 1 2.388-2.388h23.88a2.388 2.388 0 0 1 2.388 2.388v19.106a2.389 2.389 0 0 1-2.388 2.389ZM10.491 14.79a7.172 7.172 0 0 1-7.165-7.165c0-3.95 3.214-7.165 7.165-7.166 3.95 0 7.164 3.215 7.164 7.166 0 3.952-3.214 7.165-7.164 7.165Zm0-11.942a4.778 4.778 0 0 0 0 9.555 4.777 4.777 0 0 0 0-9.555ZM5.714 17.18h9.553c.371 0 .736.086 1.068.252l9.552 4.777c.22.11.412.256.584.423l14.735-4.212a1.186 1.186 0 0 1 1.476.818 1.192 1.192 0 0 1-.818 1.477l-14.657 4.189v1.828a2.387 2.387 0 0 1-2.967 2.318l-6.901-1.726-2.087 18.78a2.386 2.386 0 0 1-2.373 2.123H8.102a2.387 2.387 0 0 1-2.38-2.199l-.87-10.936H3.326a2.39 2.39 0 0 1-2.349-2.816L3.365 19.14a2.388 2.388 0 0 1 2.349-1.96Zm1.344 15.523L8.102 45.84h4.777l2.388-21.496 9.552 2.389v-2.389l-9.552-4.776h-3.583v7.265a1.194 1.194 0 1 1-2.388 0v-7.265H5.714L3.326 32.703h3.732Z"/></svg>