<svg xmlns="http://www.w3.org/2000/svg" width="23" height="25"><path fill-rule="evenodd" d="M6.555 16.459h13.637c1.546 0 2.808-1.274 2.808-2.836V7.765c0-.009 0-.02-.005-.031 0-.01-.005-.026-.005-.036 0-.01-.005-.021-.005-.03-.005-.011-.005-.021-.01-.036-.006-.011-.006-.021-.011-.031-.005-.01-.005-.021-.01-.031-.005-.011-.01-.02-.015-.036a.12.12 0 0 0-.015-.026l-.015-.031c-.006-.01-.011-.015-.016-.025-.005-.011-.015-.021-.02-.031-.005-.011-.01-.015-.021-.026-.004-.01-.015-.015-.02-.026-.005-.01-.015-.016-.02-.025-.005-.01-.015-.015-.021-.021l-.025-.025c-.01-.005-.015-.016-.025-.022-.011-.004-.021-.014-.031-.019-.01-.005-.015-.01-.025-.016a.1.1 0 0 1-.031-.021l-.061-.03-.03-.015c-.011-.006-.021-.006-.031-.011-.01-.004-.025-.011-.035-.011-.011 0-.021-.005-.026-.005-.015-.005-.025-.005-.041-.005-.005 0-.01-.005-.02-.005L5.125 4.729V2.293c0-.025 0-.052-.005-.072 0-.004 0-.01-.005-.02 0-.016-.005-.03-.005-.046-.005-.015-.005-.026-.01-.042 0-.01-.005-.015-.005-.025l-.015-.046c0-.006-.005-.016-.005-.021a.235.235 0 0 0-.021-.042c-.005-.005-.005-.015-.01-.019a.1.1 0 0 0-.02-.032l-.016-.026-.015-.025c-.005-.01-.015-.021-.02-.031L4.927 1.8l-.015-.016c-.011-.01-.021-.02-.036-.03-.005-.006-.015-.011-.02-.015-.01-.011-.021-.016-.031-.026a.325.325 0 0 0-.04-.026c-.005-.006-.011-.006-.016-.01l-.066-.031L.954.053a.682.682 0 0 0-.9.37.694.694 0 0 0 .366.909L3.747 2.75v15.199a2.83 2.83 0 0 0 2.447 2.81c-.25.421-.397.915-.397 1.439 0 1.546 1.246 2.8 2.772 2.8 1.526 0 2.772-1.259 2.772-2.8 0-.514-.137-1.002-.381-1.413h6.175a2.785 2.785 0 0 0-.381 1.413c0 1.546 1.246 2.8 2.772 2.8 1.526 0 2.772-1.259 2.772-2.8s-1.246-2.8-2.772-2.8H6.555a1.444 1.444 0 0 1-1.435-1.449v-1.881c.417.247.911.391 1.435.391Zm3.418 5.734c0 .781-.631 1.412-1.399 1.412a1.412 1.412 0 0 1-1.399-1.412c0-.777.631-1.413 1.399-1.413s1.399.632 1.399 1.413Zm10.957 0c0 .781-.631 1.412-1.399 1.412a1.412 1.412 0 0 1-1.399-1.412c0-.777.631-1.413 1.399-1.413s1.399.632 1.399 1.413Zm-.738-7.122H6.555a1.443 1.443 0 0 1-1.435-1.448V6.126l16.507 2.297v5.194c0 .807-.646 1.454-1.435 1.454Z"/></svg>