<svg xmlns="http://www.w3.org/2000/svg" width="14" height="22"><path fill-rule="evenodd" d="M11.781 21.645H3.136a2.164 2.164 0 0 1-2.161-2.162V2.181c0-1.192.97-2.162 2.161-2.162h8.645c1.192 0 2.162.97 2.162 2.162v17.302c0 1.192-.97 2.162-2.162 2.162Zm1.081-19.464c0-.597-.484-1.081-1.081-1.081H3.136a1.08 1.08 0 0 0-1.08 1.081v17.302a1.08 1.08 0 0 0 1.08 1.081h8.645c.597 0 1.081-.484 1.081-1.081V2.181Zm-3.422.721H7.279a.54.54 0 1 1 0-1.081H9.44a.54.54 0 1 1 0 1.081Zm-.9 15.86a1.081 1.081 0 1 1-2.162 0 1.081 1.081 0 0 1 2.162 0ZM5.478 2.902a.54.54 0 1 1 0-1.081.54.54 0 0 1 0 1.081Z"/></svg>