<svg xmlns="http://www.w3.org/2000/svg" width="21" height="21"><path fill-rule="evenodd" d="M18.858 19.483h-1.731v.576a.576.576 0 1 1-1.153 0v-.576H5.512v.576a.577.577 0 1 1-1.154 0v-.576h-1.73a1.733 1.733 0 0 1-1.731-1.73V6.14c0-.954.776-1.73 1.731-1.73H9.35L6.874 1.934a.576.576 0 1 1 .816-.816l3.053 3.053 3.053-3.053a.578.578 0 0 1 .816.816L12.136 4.41h6.722c.954 0 1.731.776 1.731 1.73v11.613c0 .953-.777 1.73-1.731 1.73Zm.577-13.343a.578.578 0 0 0-.577-.577H2.628a.578.578 0 0 0-.577.577v11.613c0 .317.259.576.577.576h16.23a.578.578 0 0 0 .577-.576V6.14Zm-1.731 9.882a.577.577 0 0 1-.577-.577v-2.384a.578.578 0 0 1 1.154 0v2.384a.577.577 0 0 1-.577.577Zm0-4.691a.577.577 0 1 1 0-1.154.577.577 0 0 1 0 1.154Zm0-2.307a.577.577 0 1 1 0-1.154.577.577 0 0 1 0 1.154Zm-2.307 8.152H3.782a.577.577 0 0 1-.577-.577V7.294c0-.319.258-.577.577-.577h11.615c.318 0 .577.258.577.577v9.305a.578.578 0 0 1-.577.577ZM14.82 7.87H4.358v8.152H14.82V7.87Z"/></svg>