<svg xmlns="http://www.w3.org/2000/svg" width="23" height="16"><path fill-rule="evenodd" d="M22.199 13.886c-.305.723-.777 1.113-1.332 1.279-.528.139-1.139.056-1.778-.194-1.083-.445-2.332-1.39-3.554-2.53-.861-.834-2.471-1.252-4.082-1.252-1.611 0-3.221.418-4.082 1.252-1.222 1.14-2.471 2.085-3.554 2.53-.639.278-1.25.333-1.778.194-.583-.166-1.027-.583-1.333-1.251-.305-.723-.444-1.751-.388-3.169.055-1.279.277-2.697.611-4.032.305-1.279.749-2.474 1.249-3.392C4.122-.126 6.232.43 8.759 1.069c.806.195 1.667.417 2.555.501h.278c.888-.084 1.749-.306 2.555-.501 2.526-.667 4.637-1.195 6.581 2.224.5.918.916 2.113 1.249 3.392.334 1.335.556 2.753.611 4.032.056 1.446-.083 2.474-.389 3.169Zm-.638-3.114c-.056-1.223-.278-2.558-.583-3.837-.306-1.223-.694-2.307-1.167-3.141-1.527-2.752-3.304-2.28-5.415-1.752-.86.223-1.749.445-2.749.529h-.416c-.972-.084-1.861-.306-2.722-.529-2.11-.556-3.887-1-5.414 1.752-.472.834-.861 1.946-1.167 3.141a19.257 19.257 0 0 0-.583 3.837c-.055 1.279.056 2.141.278 2.67.167.389.389.611.666.695.306.111.694.027 1.139-.139.944-.362 2.082-1.252 3.221-2.308 1.083-1.001 2.943-1.529 4.804-1.529 1.86 0 3.721.528 4.776 1.585 1.111 1.056 2.25 1.918 3.221 2.307.445.167.834.223 1.139.139.278-.083.5-.306.666-.695.25-.584.361-1.446.306-2.725Zm-3.305-3.364a.973.973 0 1 1 .001-1.945.973.973 0 0 1-.001 1.945Zm-1.971 1.974a.972.972 0 1 1 0-1.944.972.972 0 0 1 0 1.944Zm0-3.948a.972.972 0 1 1 0-1.944.972.972 0 0 1 0 1.944Zm-1.972 1.974a.972.972 0 1 1 0-1.944.972.972 0 0 1 0 1.944Zm-6.414.64c-.028.389-.223.723-.472 1.001a1.64 1.64 0 0 1-1.139.472c-.444 0-.833-.167-1.138-.472a1.485 1.485 0 0 1-.473-1.001 1.55 1.55 0 0 1-1.027-.473 1.641 1.641 0 0 1-.472-1.14c0-.445.167-.834.472-1.14l.028-.028c.277-.25.611-.417.999-.444.028-.39.223-.751.473-1.001a1.637 1.637 0 0 1 1.138-.473c.444 0 .833.167 1.139.473l.027.027c.25.251.417.612.445.974.388.027.722.222.999.472.278.278.472.695.472 1.14 0 .445-.166.834-.472 1.14-.25.278-.611.445-.999.473Zm.305-2.03a.566.566 0 0 0-.417-.167h-.388a.527.527 0 0 1-.528-.528v-.389a.66.66 0 0 0-.139-.389l-.027-.028a.566.566 0 0 0-.417-.167.564.564 0 0 0-.416.167.562.562 0 0 0-.167.417v.389c0 .306-.25.528-.528.528h-.388a.666.666 0 0 0-.389.139l-.028.028a.566.566 0 0 0 0 .806c.111.111.25.167.417.167h.388c.306 0 .528.251.528.529v.389c0 .166.055.305.167.417a.564.564 0 0 0 .416.167.566.566 0 0 0 .583-.584v-.362c0-.305.25-.528.528-.528h.388a.566.566 0 0 0 .417-.167.566.566 0 0 0 .167-.417.566.566 0 0 0-.167-.417Z"/></svg>