<svg xmlns="http://www.w3.org/2000/svg" width="19" height="17"><path fill-rule="evenodd" d="M15.526 7.307h-1.37V5.936h1.37v1.371Zm2.741 7.195V5.251a2.058 2.058 0 0 0-2.055-2.056h-2.521a.211.211 0 0 1-.189-.114l-.697-1.465-.006-.012a1.576 1.576 0 0 0-1.417-.876H7.659a1.576 1.576 0 0 0-1.422.888l-.698 1.465a.211.211 0 0 1-.189.114H2.781A2.058 2.058 0 0 0 .725 5.251v9.251c0 1.133.922 2.056 2.056 2.056h13.431a2.058 2.058 0 0 0 2.055-2.056ZM5.35 4.566c.604 0 1.147-.336 1.417-.876l.006-.012.697-1.465a.211.211 0 0 1 .189-.114h3.723c.08 0 .152.043.189.114l.697 1.465.006.012c.27.54.813.876 1.417.876h2.521c.378 0 .685.307.685.685v9.251a.685.685 0 0 1-.685.685H2.781a.686.686 0 0 1-.686-.685V5.251c0-.378.308-.685.686-.685H5.35Zm8.429 4.968a4.287 4.287 0 0 0-4.283-4.283 4.288 4.288 0 0 0-4.283 4.283 4.289 4.289 0 0 0 4.283 4.283 4.288 4.288 0 0 0 4.283-4.283Zm-1.37 0a2.916 2.916 0 0 1-2.913 2.912 2.915 2.915 0 0 1-2.912-2.912 2.916 2.916 0 0 1 2.912-2.913 2.917 2.917 0 0 1 2.913 2.913Z"/></svg>