<svg xmlns="http://www.w3.org/2000/svg" width="19" height="27"><path fill-rule="evenodd" d="M18.943 8.189C18.494 3.914 15.075.494 10.847.043c-.269 0-.539-.045-.854-.045-.315 0-.585.045-.855.045C4.91.538 1.492 3.958 1.042 8.189a9.243 9.243 0 0 0 2.789 7.694c1.124 1.081 1.844 2.341 2.114 3.556v5.31c0 .27.18.45.45.45h.674l.81 1.08c.36.449.855.719 1.439.719h1.349c.585 0 1.125-.27 1.44-.719l.809-1.08h.675c.27 0 .45-.18.45-.45v-5.31c.225-1.215.989-2.475 2.114-3.556 2.069-2.024 3.103-4.814 2.788-7.694Zm-10.749 3.06h-.9a.902.902 0 0 1-.899-.901c0-.494.404-.899.899-.899s.9.405.9.899v.901Zm2.698 7.65H9.093v-6.75h1.799v6.75Zm2.249.9v.9h-1.349c-.27 0-.45.18-.45.45 0 .269.18.45.45.45h1.349v.9h-2.698c-.27 0-.45.18-.45.449 0 .271.18.451.45.451h2.698v.899H6.844v-.899h1.35c.27 0 .449-.18.449-.451 0-.269-.179-.449-.449-.449h-1.35v-.9h2.699c.27 0 .45-.181.45-.45 0-.27-.18-.45-.45-.45H6.844v-.9h6.297Zm-1.754 5.94a.94.94 0 0 1-.72.36H9.318a.937.937 0 0 1-.719-.36l-.405-.54h3.598l-.405.54Zm4.138-10.53c-1.124 1.125-1.934 2.385-2.294 3.69h-1.439v-6.75h.899c.99 0 1.799-.81 1.799-1.801 0-.989-.809-1.8-1.799-1.8-.989 0-1.799.811-1.799 1.8v.901H9.093v-.901c0-.989-.809-1.8-1.799-1.8-.989 0-1.799.811-1.799 1.8 0 .991.81 1.801 1.799 1.801h.9v6.75H6.755c-.36-1.305-1.17-2.565-2.294-3.69-1.889-1.801-2.789-4.32-2.519-6.931.45-3.825 3.508-6.885 7.331-7.335.225 0 .45-.045.72-.045.27 0 .495.045.719.045 3.823.45 6.927 3.51 7.332 7.335.27 2.611-.63 5.13-2.519 6.931Zm-3.733-3.96v-.901c0-.494.405-.899.899-.899.495 0 .9.405.9.899a.903.903 0 0 1-.9.901h-.899Z"/></svg>