<svg xmlns="http://www.w3.org/2000/svg" width="22" height="18"><path fill-rule="evenodd" d="M11 .255C5.428.255.91 4.773.91 10.345v4.036a3.363 3.363 0 0 0 3.363 3.363h.828a1.21 1.21 0 0 0 1.19-1.211v-5.65c0-.661-.529-1.2-1.19-1.21h-.828c-.757 0-1.455.25-2.017.672a8.744 8.744 0 0 1 17.488 0 3.347 3.347 0 0 0-2.018-.672h-.807c-.668 0-1.211.542-1.211 1.21v5.65a1.212 1.212 0 0 0 1.211 1.211h.807a3.364 3.364 0 0 0 3.364-3.363v-4.036C21.09 4.773 16.572.255 11 .255ZM4.273 11.018h.673v5.381h-.673a2.017 2.017 0 0 1-2.017-2.018V13.036c0-1.115.903-2.018 2.017-2.018Zm15.471 3.363a2.017 2.017 0 0 1-2.018 2.018h-.672v-5.381h.672c1.115 0 2.018.903 2.018 2.018V14.381Z"/></svg>