<svg xmlns="http://www.w3.org/2000/svg" width="18" height="19"><path fill-rule="evenodd" d="M16.149 18.448H.659V.552h16.682v17.896h-1.192Zm0-16.703H1.85v3.579h14.299V1.745Zm0 4.772H1.85v10.738h14.299V6.517ZM9 7.71a4.177 4.177 0 0 1 0 8.352 4.178 4.178 0 0 1-4.171-4.176A4.179 4.179 0 0 1 9 7.71Zm0 7.158a2.985 2.985 0 0 0 2.919-2.385h-1.33v-1.194h1.33A2.985 2.985 0 0 0 9 8.903a2.983 2.983 0 0 0 0 5.965Zm5.958 1.194h-1.192v-1.194h1.192v1.194ZM7.808 4.131H3.042V2.938h4.766v1.193Zm2.384 0H9V2.938h1.192v1.193Zm2.383 0h-1.192V2.938h1.192v1.193Zm2.383 0h-1.192V2.938h1.192v1.193Z"/></svg>