<svg xmlns="http://www.w3.org/2000/svg" width="56" height="38"><path fill-rule="evenodd" d="M55.097 33.475h-4.701c-.615 2.587-2.927 4.523-5.695 4.523-2.777 0-5.097-1.947-5.703-4.547l-1.747-.055c-.021.05-.083.079-.219.079H18.804c-.616 2.587-2.934 4.523-5.709 4.523-2.776 0-5.094-1.936-5.71-4.523H.903A.887.887 0 0 1 0 32.569V.903c0-.511.388-.904.903-.904h35.226c.516 0 .903.393.903.904v7.238h9.936c.317 0 .312.392.483.657l8.401 12.961a.92.92 0 0 1 .148.501v10.183c0 .513-.387 1.032-.903 1.032Zm-42.002 2.698a4.075 4.075 0 0 0 4.072-4.07 4.075 4.075 0 0 0-4.072-4.07 4.075 4.075 0 0 0-4.073 4.07 4.076 4.076 0 0 0 4.073 4.07Zm22.131-8.127H20.774v-1.809h14.452V7.236H11.742V5.427h23.484V1.808H1.806v24.429h3.613v1.809H1.806v3.619h5.452c.236-3.028 2.748-5.426 5.837-5.426 3.089 0 5.6 2.398 5.837 5.426h16.294v-3.619Zm9.49 8.127a4.075 4.075 0 0 0 4.072-4.07 4.075 4.075 0 0 0-4.072-4.07 4.075 4.075 0 0 0-4.073 4.07 4.075 4.075 0 0 0 4.073 4.07Zm3.671-22.603h-7.742v7.238h12.387l-4.645-7.238Zm5.806 16.285h-1.806v-1.809h1.806v-5.429H39.742a.885.885 0 0 1-.903-.905v-9.047c0-.511.387-.905.903-.905h7.483l-1.161-1.809h-9.032v21.714h1.846c.236-3.028 2.741-5.426 5.823-5.426 3.081 0 5.586 2.398 5.822 5.426h3.67v-1.81Zm-8.118 3.631H43.36v-2.735h2.715v2.735Zm-31.623 0h-2.716v-2.735h2.716v2.735Z"/></svg>