<svg xmlns="http://www.w3.org/2000/svg" width="42" height="42"><path fill-rule="evenodd" d="M35.849 35.847A20.86 20.86 0 0 1 21 41.998a20.86 20.86 0 0 1-14.849-6.151A20.858 20.858 0 0 1 0 20.997 20.859 20.859 0 0 1 6.151 6.149 20.863 20.863 0 0 1 21-.001a20.863 20.863 0 0 1 14.849 6.15A20.859 20.859 0 0 1 42 20.997a20.858 20.858 0 0 1-6.151 14.85Zm4.416-13.96H30.046a9.1 9.1 0 0 1-.554 2.34 9.087 9.087 0 0 1-1.487 2.564l7.218 7.218a19.222 19.222 0 0 0 5.042-12.122ZM21.844 40.265a19.216 19.216 0 0 0 12.167-5.044l-7.219-7.218a9.1 9.1 0 0 1-2.071 1.284 9.095 9.095 0 0 1-2.877.762v10.216Zm-1.714-.002V30.045a9.145 9.145 0 0 1-4.923-2.042l-7.218 7.218a19.21 19.21 0 0 0 12.141 5.042ZM6.777 34.009l7.218-7.219a9.17 9.17 0 0 1-1.284-2.071 9.001 9.001 0 0 1-.747-2.832H1.735a19.217 19.217 0 0 0 5.042 12.122ZM1.733 20.172h10.228a9.124 9.124 0 0 1 2.038-4.963L6.777 7.987a19.211 19.211 0 0 0-5.044 12.185Zm18.778-6.53a.857.857 0 0 1-.381-1.647V1.732A19.223 19.223 0 0 0 7.989 6.776l7.569 7.568a.858.858 0 0 1 .269 1.401 7.404 7.404 0 0 0-1.552 8.272 7.327 7.327 0 0 0 4.105 3.872 7.324 7.324 0 0 0 5.639-.166 7.319 7.319 0 0 0 3.871-4.105c.7-1.84.641-3.843-.165-5.639a7.404 7.404 0 0 0-7.214-4.337Zm1.333-11.91v10.221a9.147 9.147 0 0 1 4.941 2.049l7.226-7.226a19.205 19.205 0 0 0-12.167-5.044Zm13.379 6.255L28 15.211a9.071 9.071 0 0 1 2.052 4.961h10.215a19.216 19.216 0 0 0-5.044-12.185ZM17.988 14.27l-.02.009a.856.856 0 0 1-1.131-.434.857.857 0 0 1 .433-1.132l.02-.009a.857.857 0 1 1 .698 1.566Z"/></svg>