<svg xmlns="http://www.w3.org/2000/svg" width="38" height="39"><path fill-rule="evenodd" d="M20.25 38.218c6.17-.537 11.717-4.086 14.838-9.494 5.24-9.097 2.2-20.669-6.788-25.845C19.929-1.942 9.222.451 3.546 8.41L2.402 4.032a.777.777 0 0 0-.949-.57.798.798 0 0 0-.569.987l1.593 6.093a.772.772 0 0 0 .96.553l6.072-1.666a.798.798 0 0 0 .544-.979.777.777 0 0 0-.942-.544l-4.08 1.12c5.738-7.717 16.56-9.358 24.17-3.665 7.611 5.692 9.128 16.563 3.39 24.279-5.738 7.717-16.56 9.358-24.17 3.665-2.183-2.172-2.713-.023-1.551.806a18.545 18.545 0 0 0 13.38 4.107Z"/></svg>