<svg xmlns="http://www.w3.org/2000/svg" width="19" height="16"><path fill-rule="evenodd" d="M9.489 15.258a.605.605 0 0 1-.418-.166L2.359 8.821C1.381 7.907.841 6.689.841 5.388c0-1.3.54-2.519 1.518-3.433 1.789-1.673 4.7-1.672 6.486 0l.644.6.643-.6c1.787-1.673 4.7-1.673 6.487 0 .978.914 1.517 2.133 1.517 3.433 0 1.301-.539 2.521-1.517 3.433l-6.713 6.271a.6.6 0 0 1-.417.166ZM5.603 1.949a3.52 3.52 0 0 0-2.407.93c-.721.673-1.117 1.563-1.117 2.508 0 .944.396 1.835 1.117 2.507l6.294 5.881 6.295-5.881c.72-.672 1.116-1.563 1.116-2.507 0-.945-.396-1.835-1.116-2.508-1.329-1.24-3.488-1.24-4.817 0l-1.06.99a.605.605 0 0 1-.834 0l-1.063-.99a3.522 3.522 0 0 0-2.408-.93Z"/></svg>