<svg xmlns="http://www.w3.org/2000/svg" width="52" height="43"><path fill-rule="evenodd" d="M47.932 34.94H37.798v5.684h2.618a.75.75 0 1 1 0 1.501H24.482a.75.75 0 0 1 0-1.501h2.165V34.94h-9.329v6.419a.763.763 0 0 1-.75.766H1.127a.763.763 0 0 1-.75-.766V4.103c0-1.77 1.439-3.261 3.209-3.261h10.448c1.78 0 3.284 1.521 3.284 3.261v3.816h30.614a3.248 3.248 0 0 1 3.269 3.237v20.466c0 1.803-1.466 3.318-3.269 3.318Zm-19.784 5.684h8.149V34.94h-8.149v5.684Zm-26.27 0h13.939v-5.808a3.274 3.274 0 0 1-2.573-3.194v-4.08h-3.217a.75.75 0 1 1 0-1.501h3.217v-8.042H1.878v22.625Zm0-24.127h11.366v-1.93H4.237a.75.75 0 1 1 0-1.501h9.007v-1.91c-.001-.042 0-.085.004-.127H1.878v5.468ZM15.817 4.103c0-.926-.817-1.759-1.783-1.759H3.586c-.942 0-1.708.817-1.708 1.759v5.425h11.816c.455-.751 1.22-1.369 2.123-1.566V4.103ZM49.7 11.156a1.745 1.745 0 0 0-1.768-1.736H16.513a1.744 1.744 0 0 0-1.768 1.736v17.458H49.7V11.156Zm0 18.959H14.745v1.507c0 .975.793 1.817 1.768 1.817h31.419c.975 0 1.768-.842 1.768-1.817v-1.507Zm-37.804 5.453a3.095 3.095 0 1 1-6.19 0 3.095 3.095 0 0 1 6.19 0Zm-2.487-1.474a1.596 1.596 0 0 0-2.078 2.09 1.595 1.595 0 1 0 2.078-2.09Zm-1.955-6.552h-3.86a.75.75 0 1 1 0-1.501h3.86a.75.75 0 0 1 0 1.501Z"/></svg>