<svg xmlns="http://www.w3.org/2000/svg" width="47" height="37"><path fill-rule="evenodd" d="M45.209 36.682H1.711A1.574 1.574 0 0 1 .14 35.109v-1.735a.59.59 0 0 1 .002-.042l.001-.021a.52.52 0 0 1 .012-.079l.002-.008a.56.56 0 0 1 .02-.07l.006-.018.026-.061.005-.01 3.653-7.214V2.115c0-.73.594-1.324 1.323-1.324h36.539c.73 0 1.323.594 1.323 1.324v23.736l3.654 7.214a.542.542 0 0 1 .03.071l.007.018a.804.804 0 0 1 .02.07l.002.008a.96.96 0 0 1 .013.1l.002.042v1.735c0 .867-.705 1.573-1.571 1.573ZM41.686 2.159H5.234V25.33h36.452V2.159Zm.263 24.539H4.97L1.935 32.69h15.011l.753-2.734a1.289 1.289 0 0 1 1.24-.945h9.041c.577 0 1.087.388 1.24.945l.754 2.734h15.01l-3.035-5.992ZM18.363 32.69h10.193l-.637-2.312H19l-.637 2.312Zm27.05 1.368H1.506v1.051c0 .113.092.205.205.205h43.498a.204.204 0 0 0 .204-.205v-1.051ZM7.763 3.618h31.394c.59 0 1.071.481 1.071 1.072v7.231a.683.683 0 1 1-1.366 0V4.986H8.058v6.935a.683.683 0 1 1-1.366 0V4.69c0-.591.48-1.072 1.071-1.072Zm-.388 11.266c.377 0 .683.306.683.684v6.935h30.804v-6.935a.683.683 0 1 1 1.366 0v7.231c0 .591-.481 1.072-1.071 1.072H7.763a1.072 1.072 0 0 1-1.071-1.072v-7.231c0-.378.305-.684.683-.684Z"/></svg>