<svg xmlns="http://www.w3.org/2000/svg" width="41" height="41"><path fill-rule="evenodd" d="M38.057 14.43c-.328 0-.639-.072-.919-.2l-2.311 2.31a.776.776 0 0 1-.551.229h-3.63v2.766h5.33a2.227 2.227 0 0 1 2.081-1.443c1.226 0 2.223.998 2.223 2.223a2.225 2.225 0 0 1-2.223 2.223 2.227 2.227 0 0 1-2.081-1.443h-5.33v2.766h3.63c.207 0 .405.082.551.229l2.311 2.31a2.225 2.225 0 0 1 3.142 2.023 2.225 2.225 0 0 1-2.223 2.222 2.225 2.225 0 0 1-2.022-3.142l-2.082-2.082h-3.307v4.445a.78.78 0 0 1-.78.779h-4.445v3.307l2.082 2.083a2.225 2.225 0 0 1 3.143 2.022 2.225 2.225 0 0 1-2.223 2.223 2.225 2.225 0 0 1-2.023-3.143l-2.31-2.31a.781.781 0 0 1-.229-.551v-3.631h-2.766v5.331a2.227 2.227 0 0 1 1.443 2.081 2.225 2.225 0 0 1-2.223 2.223 2.226 2.226 0 0 1-2.223-2.223c0-.951.601-1.764 1.443-2.081v-5.331h-2.766v3.631a.777.777 0 0 1-.229.551l-2.31 2.31a2.225 2.225 0 0 1-2.023 3.143 2.225 2.225 0 0 1-2.222-2.223 2.225 2.225 0 0 1 3.142-2.022l2.082-2.083v-3.307h-4.444a.78.78 0 0 1-.78-.779v-4.445H6.678l-2.083 2.082c.129.281.201.592.201.92a2.226 2.226 0 0 1-2.223 2.223A2.226 2.226 0 0 1 .35 28.423 2.225 2.225 0 0 1 3.493 26.4l2.31-2.31a.778.778 0 0 1 .552-.229h3.63v-2.766H4.654a2.227 2.227 0 0 1-2.081 1.443A2.225 2.225 0 0 1 .35 20.315c0-1.225.997-2.223 2.223-2.223.951 0 1.764.601 2.081 1.443h5.331v-2.766h-3.63a.778.778 0 0 1-.552-.229l-2.31-2.31A2.225 2.225 0 0 1 .35 12.207c0-1.225.997-2.222 2.223-2.222a2.225 2.225 0 0 1 2.023 3.142l2.082 2.082h3.307v-4.445a.78.78 0 0 1 .78-.779h4.444V6.678l-2.082-2.083a2.213 2.213 0 0 1-.92.201 2.226 2.226 0 0 1-2.222-2.223c0-1.226.997-2.223 2.222-2.223a2.225 2.225 0 0 1 2.023 3.143l2.31 2.31a.778.778 0 0 1 .229.552v3.63h2.766V4.654a2.227 2.227 0 0 1-1.443-2.081c0-1.226.998-2.223 2.223-2.223 1.226 0 2.223.997 2.223 2.223 0 .951-.601 1.764-1.443 2.081v5.331h2.766v-3.63c0-.207.083-.406.229-.552l2.31-2.31A2.226 2.226 0 0 1 28.423.35c1.226 0 2.223.997 2.223 2.223a2.226 2.226 0 0 1-2.223 2.223c-.328 0-.639-.073-.92-.201l-2.082 2.083v3.306h4.445a.78.78 0 0 1 .78.78v4.445h3.307l2.082-2.082a2.226 2.226 0 0 1 2.022-3.143c1.226 0 2.223.998 2.223 2.223a2.225 2.225 0 0 1-2.223 2.223Zm0 6.548a.663.663 0 1 0 0-1.326.663.663 0 0 0 0 1.326Zm0 8.108a.664.664 0 1 0-.002-1.328.664.664 0 0 0 .002 1.328Zm-9.634 9.634a.663.663 0 1 0 0-1.326.663.663 0 0 0 0 1.326Zm-16.216-1.326a.664.664 0 1 0 .002 1.324.664.664 0 0 0-.002-1.324ZM2.573 27.76a.663.663 0 1 0 0 1.326.663.663 0 0 0 0-1.326Zm0-8.108a.663.663 0 1 0 0 1.326.663.663 0 0 0 0-1.326Zm0-8.108a.664.664 0 1 0 .002 1.328.664.664 0 0 0-.002-1.328Zm9.634-9.634a.664.664 0 1 0 .002 1.328.664.664 0 0 0-.002-1.328Zm16.216 1.326a.664.664 0 1 0-.002-1.328.664.664 0 0 0 .002 1.328ZM20.315 38.72a.663.663 0 1 0 0-1.326.663.663 0 0 0 0 1.326Zm0-36.81a.664.664 0 1 0 .002 1.328.664.664 0 0 0-.002-1.328Zm8.771 9.634H11.544v17.542h17.542V11.544Zm8.971 0a.664.664 0 1 0 .002 1.324.664.664 0 0 0-.002-1.324Zm-24.213 9.041c.43 0 .779.35.779.78v.037a.78.78 0 1 1-1.559 0v-.037c0-.43.349-.78.78-.78Zm0 2.306a.78.78 0 0 1 .779.78v3.231a.78.78 0 1 1-1.559 0v-3.231a.78.78 0 0 1 .78-.78Zm12.943-9.943c.43 0 .78.349.78.78v3.232a.78.78 0 0 1-1.56 0v-3.232a.78.78 0 0 1 .78-.78Zm0 5.5c.43 0 .78.349.78.78v.037a.78.78 0 0 1-1.56 0v-.037a.78.78 0 0 1 .78-.78Z"/></svg>