<svg xmlns="http://www.w3.org/2000/svg" width="49" height="39"><path fill-rule="evenodd" d="m47.598 29.835-3.813 2.99a2.99 2.99 0 0 1-1.835.633h-2.777a.705.705 0 1 1 0-1.41h2.777c.348 0 .69-.119.964-.333l3.812-2.99c.072-.056.136-.119.196-.186H32.713a15.721 15.721 0 0 1-3.565 3.509h6.729a.706.706 0 1 1 0 1.41h-3.833v3.392c0 .805-.656 1.461-1.462 1.461H12.33a1.464 1.464 0 0 1-1.462-1.461v-3.392H6.722v3.12c0 .649-.528 1.176-1.177 1.176H1.702a1.177 1.177 0 0 1-1.177-1.176V11.266a.706.706 0 0 1 1.412 0v25.077h3.372V2.182H1.937v5.792a.705.705 0 0 1-1.412 0V1.948c0-.649.528-1.176 1.177-1.176h3.843c.649 0 1.177.527 1.177 1.176v3.119H41.95c.662 0 1.314.226 1.835.634l3.813 2.99a2.95 2.95 0 0 1 1.137 2.336v16.472c0 .918-.415 1.77-1.137 2.336Zm-19.507 7.064h2.491a.05.05 0 0 0 .049-.049v-3.392h-2.54v3.441Zm-3.952 0h2.54v-3.441h-.101l-.003.001-.003-.001h-2.433v3.441Zm-3.953 0h2.54v-3.441h-2.54v3.441Zm-3.952 0h2.54v-3.441h-2.54v3.441Zm-3.953-.049c0 .027.022.05.05.049h2.49v-3.441h-2.54v3.392Zm35.042-25.823c0-.482-.218-.929-.597-1.227l-3.812-2.989a1.568 1.568 0 0 0-.964-.333H6.722v25.57h19.684a14.263 14.263 0 0 0 7.937-12.785c0-1.624-.271-3.217-.805-4.735a1.618 1.618 0 0 1 .207-1.471 1.63 1.63 0 0 1 1.327-.686h12.251v-1.344Zm0 2.756H35.072a.21.21 0 0 0-.202.277c.369 1.048.623 2.129.762 3.23h11.691v-3.507Zm0 4.918H35.744a15.593 15.593 0 0 1-.269 3.509h11.848v-3.509Zm0 4.92H35.139a15.541 15.541 0 0 1-1.501 3.507h13.685v-3.507Zm-27.268 5.99c-5.701 0-10.358-4.633-10.358-10.348 0-5.707 4.648-10.348 10.358-10.348 5.722 0 10.359 4.654 10.359 10.348 0 5.707-4.648 10.348-10.359 10.348Zm-.707-1.439a8.908 8.908 0 0 0 5.01-1.076 6.909 6.909 0 0 1-4.23-4.962 2.856 2.856 0 0 1-.818-.097 5.466 5.466 0 0 0 .038 6.135Zm2.171-8.909a1.464 1.464 0 0 0-2.927 0 1.464 1.464 0 0 0 2.927 0Zm-3.964 8.581a6.902 6.902 0 0 1 .521-6.5 2.91 2.91 0 0 1-.511-.647 5.474 5.474 0 0 0-4.315 4.361 8.967 8.967 0 0 0 4.305 2.786Zm-6.446-8.581c0 1.557.401 3.022 1.105 4.299a6.91 6.91 0 0 1 4.968-4.226 2.869 2.869 0 0 1 .096-.819 5.48 5.48 0 0 0-6.141.04 9.154 9.154 0 0 0-.028.706Zm.356-2.498a6.915 6.915 0 0 1 6.507.521c.19-.201.408-.372.648-.512a5.474 5.474 0 0 0-4.365-4.31 8.963 8.963 0 0 0-2.79 4.301Zm9.297-6.411a8.896 8.896 0 0 0-5.009 1.075c2.126.831 3.748 2.702 4.229 4.963l.073-.002c.259 0 .509.035.747.098a5.46 5.46 0 0 0-.04-6.134Zm1.794.327a6.898 6.898 0 0 1-.521 6.501c.2.19.372.407.511.647a5.474 5.474 0 0 0 4.315-4.361 8.98 8.98 0 0 0-4.305-2.787Zm5.341 4.283a6.908 6.908 0 0 1-4.967 4.225l.002.074c0 .258-.036.508-.099.746a5.48 5.48 0 0 0 6.141-.04 8.883 8.883 0 0 0-1.077-5.005Zm-2.022 7.375a6.875 6.875 0 0 1-3.737-1.098 2.84 2.84 0 0 1-.648.51 5.474 5.474 0 0 0 4.366 4.31 8.953 8.953 0 0 0 2.79-4.3 6.911 6.911 0 0 1-2.771.578Z"/></svg>