<svg xmlns="http://www.w3.org/2000/svg" width="31" height="47"><path fill-rule="evenodd" d="M30.245 21.045a9.888 9.888 0 0 0-1.011-6.366 10.1 10.1 0 0 0-4.122-4.143V9.182c0-.579-.26-1.12-.713-1.482a1.88 1.88 0 0 0-1.598-.368 33.837 33.837 0 0 1-6.792.82V1.315a.669.669 0 1 0-1.336 0v6.837a33.765 33.765 0 0 1-6.792-.82 1.895 1.895 0 0 0-2.311 1.85v1.355C2.745 12.053.766 14.91.367 18.094a.67.67 0 1 0 1.326.166c.315-2.513 1.768-4.793 3.877-6.171v11.207c0 2.177-.837 4.221-2.378 5.864l-1.376-7.979a.668.668 0 1 0-1.317.228l2.493 14.465A12.507 12.507 0 0 0 15.341 46.28a12.537 12.537 0 0 0 9.326-4.163.669.669 0 0 0-.994-.894 11.201 11.201 0 0 1-8.332 3.72 11.172 11.172 0 0 1-11.032-9.297l-.843-4.889c1.437-1.286 2.454-2.842 2.994-4.55a14.15 14.15 0 0 0 8.881 3.12 14.16 14.16 0 0 0 8.882-3.119c.539 1.707 1.556 3.263 2.992 4.549l-.842 4.89a11.202 11.202 0 0 1-.975 3.019.67.67 0 0 0 1.2.588 12.552 12.552 0 0 0 1.092-3.38l2.555-14.829Zm-14.904-.465a1.533 1.533 0 0 1-1.532-1.532v-2.679c0-.845.687-1.532 1.532-1.532.844 0 1.532.687 1.532 1.532v2.679c0 .845-.688 1.532-1.532 1.532Zm1.532-6.635a2.847 2.847 0 0 0-1.532-.445c-.563 0-1.089.163-1.532.445V9.463c.886.038 1.923.049 3.064 0v4.482Zm-9.967 9.351V9.182c0-.171.077-.331.211-.437a.547.547 0 0 1 .47-.109c1.605.363 3.24.611 4.886.744v9.668c0 1.352.94 2.487 2.2 2.79v6.134a12.822 12.822 0 0 1-7.875-3.228c.071-.475.108-.958.108-1.448Zm9.103 4.676v-6.134a2.875 2.875 0 0 0 2.2-2.79V9.38a34.951 34.951 0 0 0 4.886-.744.559.559 0 0 1 .681.546v14.114c0 .49.037.974.108 1.449a12.82 12.82 0 0 1-7.875 3.227Zm9.103-4.676V12.09a8.743 8.743 0 0 1 2.941 3.216 8.556 8.556 0 0 1 .875 5.512l-1.437 8.342c-1.542-1.643-2.379-3.687-2.379-5.864Z"/></svg>