<svg xmlns="http://www.w3.org/2000/svg" width="45" height="47"><path fill-rule="evenodd" d="M22.689.325c-3.07 0-6.04.627-8.828 1.863a21.82 21.82 0 0 0-7.109 5.054.672.672 0 1 0 .981.919 20.578 20.578 0 0 1 14.956-6.493c11.303 0 20.499 9.193 20.499 20.493 0 4.953-1.788 12.362-4.557 18.875a.934.934 0 0 1-1.341.438l3.044-8.772a2.747 2.747 0 0 0-.182-2.209c.76-3.167 1.163-6.046 1.163-8.332 0-1.64-.216-3.272-.642-4.849l-.009-.031c-1.102-3.409-3.464-6.476-6.652-8.637-3.277-2.22-7.192-3.394-11.323-3.394s-8.046 1.174-11.323 3.395c-3.188 2.16-5.55 5.227-6.652 8.636l-.009.031a18.608 18.608 0 0 0-.642 4.849c0 2.289.402 5.165 1.163 8.332a2.747 2.747 0 0 0-.182 2.209l3.044 8.772a.937.937 0 0 1-1.341-.437C3.978 34.523 2.19 27.114 2.19 22.161c0-4.254 1.297-8.336 3.752-11.805a.671.671 0 1 0-1.098-.776A21.667 21.667 0 0 0 .845 22.161c0 5.119 1.831 12.735 4.664 19.401A2.285 2.285 0 0 0 8.5 42.769c.011-.005.021-.011.032-.015l.268.771a2.747 2.747 0 0 0 1.81 1.73l3.037.901a3.104 3.104 0 0 0 1.909-.043l2.74-.957c.979-.339 1.573-.966 2.025-1.898a3.852 3.852 0 0 0 .174-2.962l-4.269-12.3a3.883 3.883 0 0 0-4.935-2.392l-2.547.883a3.097 3.097 0 0 0-1.525 1.148l-.957 1.357c-.56-2.592-.855-4.932-.855-6.831 0-1.516.199-3.024.591-4.483 2.118-6.527 8.979-11.084 16.691-11.084s14.573 4.557 16.691 11.084c.392 1.459.591 2.967.591 4.483 0 1.896-.295 4.238-.855 6.831l-.957-1.357a3.093 3.093 0 0 0-1.526-1.147l-2.546-.884a3.884 3.884 0 0 0-4.935 2.392l-4.269 12.3a3.854 3.854 0 0 0 .174 2.963 3.857 3.857 0 0 0 2.219 1.971l2.546.883a3.12 3.12 0 0 0 1.909.043l3.037-.901a2.747 2.747 0 0 0 1.81-1.73l.268-.771.032.015a2.28 2.28 0 0 0 2.991-1.207c2.833-6.666 4.664-14.282 4.664-19.401C44.533 10.12 34.734.325 22.689.325ZM8.317 28.41c.216-.305.515-.531.868-.653l2.547-.883a2.538 2.538 0 0 1 3.224 1.563l4.269 12.3a2.515 2.515 0 0 1-.114 1.935 2.517 2.517 0 0 1-1.449 1.288l-1.912.663-5.122-14.758a.672.672 0 1 0-1.27.441l5.079 14.633a1.729 1.729 0 0 1-.407-.071l-3.037-.902a1.398 1.398 0 0 1-.923-.881L6.314 32.262a1.403 1.403 0 0 1 .178-1.265l1.825-2.587Zm26.991 14.675a1.398 1.398 0 0 1-.923.881l-3.037.902c-.134.04-.27.064-.407.071l1.11-3.197a.671.671 0 0 0-1.27-.44l-1.153 3.321-1.912-.663a2.52 2.52 0 0 1-1.449-1.288 2.52 2.52 0 0 1-.114-1.935l4.269-12.3a2.54 2.54 0 0 1 3.225-1.563l1.911.663-3.827 11.026a.672.672 0 0 0 1.27.441l3.784-10.903c.102.091.195.194.275.309l1.826 2.587c.259.367.326.84.179 1.265l-3.757 10.823Z"/></svg>