<svg xmlns="http://www.w3.org/2000/svg" width="34" height="49"><path fill-rule="evenodd" d="m21.435 36.088.924 6.309a5.488 5.488 0 0 1 3.412 5.073.698.698 0 0 1-.698.698H9.211a.698.698 0 0 1-.697-.698 5.488 5.488 0 0 1 3.412-5.073l.925-6.309A16.57 16.57 0 0 1 11.44 4.53v-.512A3.093 3.093 0 0 1 14.529.929h5.228a3.093 3.093 0 0 1 3.089 3.089v.512a16.541 16.541 0 0 1 10.859 15.557 16.593 16.593 0 0 1-12.27 16.001ZM9.97 46.772h14.346a4.093 4.093 0 0 0-4.025-3.388h-6.296a4.093 4.093 0 0 0-4.025 3.388Zm10.924-4.748-.823-5.633a16.352 16.352 0 0 1-5.853 0l-.826 5.633c.2-.023.401-.035.603-.035h6.296c.202 0 .403.012.603.035Zm.557-38.006a1.696 1.696 0 0 0-1.694-1.694h-5.228a1.696 1.696 0 0 0-1.694 1.694v11.677a8.636 8.636 0 0 1 8.616 0V4.018Zm-4.308 11.919a7.284 7.284 0 0 0-7.273 7.276 7.275 7.275 0 0 0 4.49 6.721 7.27 7.27 0 0 0 7.926-1.577 7.276 7.276 0 0 0-5.143-12.42Zm5.703-9.911v10.669a8.671 8.671 0 0 1-5.703 15.2 8.673 8.673 0 0 1-5.703-15.2V6.026a15.149 15.149 0 0 0-9.465 14.061 15.177 15.177 0 0 0 8.044 13.395 15.164 15.164 0 0 0 15.599-.81 15.176 15.176 0 0 0-2.772-26.646Zm-5.703 22.269a5.083 5.083 0 1 1 3.593-8.676 5.083 5.083 0 0 1-3.593 8.676Zm3.406-6.493a3.688 3.688 0 0 0-3.406-2.277 3.686 3.686 0 1 0 3.406 2.277ZM15.25 6.41a1.894 1.894 0 1 1 3.787.002 1.894 1.894 0 0 1-3.787-.002Zm2.245.352a.498.498 0 1 0-.704-.704.498.498 0 0 0 .704.704Z"/></svg>