<svg xmlns="http://www.w3.org/2000/svg" width="38" height="48"><path fill-rule="evenodd" d="M37.252 12.035a.684.684 0 0 1-.684-.684V3.675a1.877 1.877 0 0 0-1.876-1.873H4.179a1.877 1.877 0 0 0-1.875 1.873v27.427a.685.685 0 0 1-1.369 0V3.675A3.246 3.246 0 0 1 4.179.435h30.513a3.247 3.247 0 0 1 3.245 3.24v7.676a.685.685 0 0 1-.685.684Zm-4.918 31.958a2.546 2.546 0 0 1-2.545-2.542 2.547 2.547 0 0 1 2.545-2.542 2.547 2.547 0 0 1 2.545 2.542 2.546 2.546 0 0 1-2.545 2.542Zm0-3.716c-.648 0-1.176.527-1.176 1.174a1.177 1.177 0 0 0 2.352 0c0-.647-.527-1.174-1.176-1.174Zm0-36.738a2.547 2.547 0 0 1 2.545 2.542 2.546 2.546 0 0 1-2.545 2.542 2.546 2.546 0 0 1-2.545-2.542 2.547 2.547 0 0 1 2.545-2.542Zm0 3.717c.649 0 1.176-.527 1.176-1.175a1.176 1.176 0 0 0-2.352 0c0 .648.528 1.175 1.176 1.175ZM6.537 38.909a2.546 2.546 0 0 1 2.545 2.542 2.546 2.546 0 0 1-5.09 0 2.547 2.547 0 0 1 2.545-2.542Zm0 3.717c.649 0 1.176-.527 1.176-1.175a1.176 1.176 0 0 0-2.352 0c0 .648.528 1.175 1.176 1.175Zm0-39.087a2.546 2.546 0 0 1 2.545 2.542 2.546 2.546 0 0 1-5.09 0 2.547 2.547 0 0 1 2.545-2.542Zm0 3.717c.649 0 1.176-.527 1.176-1.175a1.176 1.176 0 0 0-2.352 0c0 .648.528 1.175 1.176 1.175Zm20.834.522c.378 0 .685.306.685.684v2.001h.882c.993 0 1.801.806 1.801 1.798v23.01c0 .992-.808 1.799-1.801 1.799h-.882v2.001a.685.685 0 0 1-1.369 0V37.07h-2.599v2.001a.684.684 0 1 1-1.369 0V37.07H20.12v2.001a.684.684 0 1 1-1.369 0V37.07h-2.598v2.001a.685.685 0 0 1-1.369 0V37.07h-2.599v2.001a.685.685 0 0 1-1.369 0V37.07h-.882a1.802 1.802 0 0 1-1.801-1.799v-23.01c0-.992.808-1.798 1.801-1.798h.882V8.462a.684.684 0 1 1 1.369 0v2.001h2.599V8.462a.684.684 0 1 1 1.369 0v2.001h2.598V8.462a.685.685 0 0 1 1.369 0v2.001h2.599V8.462a.685.685 0 0 1 1.369 0v2.001h2.599V8.462c0-.378.306-.684.684-.684ZM9.934 11.83a.432.432 0 0 0-.432.431v23.01c0 .238.194.432.432.432h19.004a.433.433 0 0 0 .432-.432v-23.01a.432.432 0 0 0-.432-.431H9.934ZM1.619 34.065c.378 0 .685.306.685.684v9.108c0 1.033.841 1.873 1.875 1.873h30.513c1.034 0 1.876-.84 1.876-1.873V14.998a.684.684 0 1 1 1.369 0v28.859a3.247 3.247 0 0 1-3.245 3.241H4.179a3.246 3.246 0 0 1-3.244-3.241v-9.108c0-.378.306-.684.684-.684Z"/></svg>