<svg xmlns="http://www.w3.org/2000/svg" width="54" height="49"><path fill-rule="evenodd" d="M20.606 48.567a.774.774 0 0 1-.773-.773v-9.277a.773.773 0 0 1 1.545 0v9.277a.773.773 0 0 1-.772.773Zm0-34.014c-5.537 0-10.042 4.508-10.042 10.05 0 5.541 4.505 10.049 10.042 10.049 1.828 0 3.617-.496 5.174-1.435a9.98 9.98 0 0 0 4.868-8.614.773.773 0 1 1 1.545 0c0 2.035-.535 4.038-1.546 5.791a11.66 11.66 0 0 1-2.164 2.712h22.353a.773.773 0 0 0 .772-.773v-3.865h-8.497a.774.774 0 0 1 0-1.546h8.497v-1.546h-8.497a.774.774 0 0 1 0-1.546h8.497v-1.546h-8.497a.774.774 0 0 1 0-1.547h8.497v-2.319a2.32 2.32 0 0 0-2.317-2.319H30.505a.773.773 0 1 1 0-1.546h18.786a3.868 3.868 0 0 1 3.862 3.865v13.915a2.32 2.32 0 0 1-2.317 2.319h-.773v.773a2.32 2.32 0 0 1-2.317 2.319h-3.09a2.321 2.321 0 0 1-2.318-2.319v-.773H26.39a11.568 11.568 0 0 1-5.784 1.546 11.51 11.51 0 0 1-5.776-1.546h-3.597v.773a2.32 2.32 0 0 1-2.317 2.319h-3.09a2.321 2.321 0 0 1-2.318-2.319v-.773h-.772a2.321 2.321 0 0 1-2.318-2.319V18.418a3.869 3.869 0 0 1 3.863-3.865h6.426a.774.774 0 0 1 0 1.546H4.281a2.322 2.322 0 0 0-2.318 2.319v13.915c0 .426.347.773.773.773h10a11.57 11.57 0 0 1-3.717-8.503c0-6.394 5.198-11.596 11.587-11.596 5.239 0 9.678 3.498 11.105 8.282l.002.001a.773.773 0 1 1-1.481.44h-.002c-1.237-4.146-5.084-7.177-9.624-7.177Zm23.277 20.099v.773c0 .426.347.773.773.773h3.09a.773.773 0 0 0 .772-.773v-.773h-4.635Zm-38.83 0v.773c0 .426.347.773.773.773h3.09a.773.773 0 0 0 .772-.773v-.773H5.053Zm15.553-1.546c-4.685 0-8.497-3.815-8.497-8.503 0-4.689 3.812-8.504 8.497-8.504 4.685 0 8.497 3.815 8.497 8.504 0 4.688-3.812 8.503-8.497 8.503Zm0-15.461c-3.833 0-6.952 3.121-6.952 6.958 0 3.836 3.119 6.957 6.952 6.957 3.833 0 6.952-3.121 6.952-6.957 0-3.837-3.119-6.958-6.952-6.958Zm0-6.184a.774.774 0 0 1-.773-.773V1.412a.774.774 0 0 1 1.545 0v9.276a.773.773 0 0 1-.772.773Zm6.566 1.761a.774.774 0 0 1-.283-1.056l4.635-8.034a.772.772 0 1 1 1.338.773l-4.635 8.034a.773.773 0 0 1-1.055.283Zm5.407 32.134a.772.772 0 0 1-1.055-.283l-4.635-8.034a.774.774 0 0 1 1.338-.773l4.635 8.034a.772.772 0 0 1-.283 1.056ZM8.35 44.3l4.635-8.034a.773.773 0 1 1 1.338.773l-4.635 8.034A.772.772 0 1 1 8.35 44.3Zm5.69-31.078a.773.773 0 0 1-1.055-.283L8.35 4.905a.773.773 0 1 1 1.338-.773l4.635 8.034a.774.774 0 0 1-.283 1.056Z"/></svg>