<svg xmlns="http://www.w3.org/2000/svg" width="46" height="48"><path fill-rule="evenodd" d="M3.376 41.933h2.692l-1.757 3.571a1.674 1.674 0 0 0 2.894 1.673l3.455-5.171a.774.774 0 0 0 .043-.073h24.512l.043.073 3.456 5.171a1.674 1.674 0 0 0 2.894-1.673l-1.758-3.571h2.692a2.945 2.945 0 0 0 2.94-2.943V12.356a2.943 2.943 0 0 0-2.94-2.942h-5.27C34.97 4.027 29.622.242 23.407.242S11.844 4.027 9.541 9.414H3.376a2.945 2.945 0 0 0-2.94 2.943V38.99a2.945 2.945 0 0 0 2.94 2.943Zm2.591 4.416c-.127.201-.431.025-.321-.186l2.082-4.23h1.191l-2.952 4.416Zm34.306-.186c.112.211-.195.389-.322.186L37 41.933h1.191l2.082 4.23Zm2.27-5.72H3.376a1.453 1.453 0 0 1-1.451-1.453v-.618h42.069v.618a1.454 1.454 0 0 1-1.451 1.453Zm-7.072-19.72a5.508 5.508 0 0 1 0 9.897v-9.897ZM23.407 1.732c7.49 0 13.584 6.1 13.584 13.598v4.557a7.03 7.03 0 0 0-1.302-.699V15.33c0-6.779-5.51-12.294-12.282-12.294S11.125 8.551 11.125 15.33v3.858a7.03 7.03 0 0 0-1.302.699V15.33c0-7.498 6.093-13.598 13.584-13.598ZM8.256 25.672a5.497 5.497 0 0 1 3.087-4.949v9.897a5.502 5.502 0 0 1-3.087-4.948ZM32.435 9.417H14.378a10.781 10.781 0 0 1 18.057 0ZM3.376 10.904h5.619a15.021 15.021 0 0 0-.661 4.426v5.895l.001.027a7.006 7.006 0 0 0 3.01 10.989 3.006 3.006 0 0 0 6.008-.105V19.207a3.002 3.002 0 0 0-4.739-2.453V15.33a10.76 10.76 0 0 1 .946-4.424h19.693c.626 1.391.949 2.899.947 4.424v1.424a3.004 3.004 0 0 0-4.739 2.453v12.93a3.005 3.005 0 0 0 6.007.104 6.998 6.998 0 0 0 4.329-4.718 7.01 7.01 0 0 0-1.317-6.269V15.33c.001-1.5-.222-2.992-.662-4.426h4.725c.801.001 1.45.651 1.451 1.453v24.525H1.925V12.357c0-.802.65-1.452 1.451-1.453Zm9.455 21.233v-12.93a1.518 1.518 0 0 1 2.589-1.074c.285.285.445.671.445 1.074v12.93a1.518 1.518 0 1 1-3.033 0h-.001Zm21.151-12.93v12.93a1.514 1.514 0 0 1-1.516 1.544 1.518 1.518 0 0 1-1.516-1.544v-12.93c0-.838.679-1.517 1.516-1.518.837.001 1.515.68 1.516 1.518ZM23.705 39.408a.744.744 0 1 1-1.434-.282.743.743 0 0 1 .686-.463h.004c.412 0 .744.333.744.745Z"/></svg>