<svg xmlns="http://www.w3.org/2000/svg" width="49" height="49"><path fill-rule="evenodd" d="M37.007 2.87v19.047c-.887 0-1.583.718-1.584 1.583l-.003 7.147H3.681a3.168 3.168 0 0 0-3.176 3.176v7.931a3.172 3.172 0 0 0 3.176 3.176h.791v2.377a.794.794 0 0 0 .796.797h5.554a.798.798 0 0 0 .794-.797V44.93h25.391v2.377a.796.796 0 0 0 .799.797h5.552c.441.002.8-.356.798-.797V44.93h.79a3.167 3.167 0 0 0 3.175-3.176v-7.931a3.167 3.167 0 0 0-3.175-3.176h-1.588V23.5c0-.865-.702-1.583-1.586-1.583L41.771 2.87A2.377 2.377 0 0 0 39.393.491a2.384 2.384 0 0 0-2.386 2.379Zm2.386-.791c.431 0 .79.337.79.791l.002 19.047h-1.587L38.596 2.87c0-.454.365-.791.797-.791ZM16.82 9.465c-5.44 0-10.654 2.192-14.498 6.081-.774.723.416 1.901 1.13 1.113a18.79 18.79 0 0 1 13.368-5.606c5.016 0 9.826 2.016 13.375 5.606.718.793 1.898-.396 1.13-1.113A20.402 20.402 0 0 0 16.82 9.465Zm0 4.992a15.48 15.48 0 0 0-11.012 4.615c-.821.698.455 1.915 1.123 1.113a13.902 13.902 0 0 1 9.889-4.147c3.709 0 7.265 1.492 9.889 4.147.728.768 1.885-.375 1.132-1.113a15.5 15.5 0 0 0-11.021-4.615Zm0 4.984c-2.826 0-5.53 1.132-7.526 3.151-.771.711.402 1.908 1.123 1.119a9 9 0 0 1 6.403-2.683 9.01 9.01 0 0 1 6.41 2.683c.736.777 1.888-.386 1.13-1.119a10.607 10.607 0 0 0-7.54-3.151Zm20.191 4.063h4.76v7.143h-4.764l.004-7.143Zm-20.191.922c-1.52 0-2.975.609-4.047 1.694-.779.753.384 1.905 1.13 1.119a4.096 4.096 0 0 1 2.917-1.225c1.094 0 2.147.44 2.924 1.225.745.781 1.901-.369 1.125-1.119a5.696 5.696 0 0 0-4.049-1.694Zm-13.139 7.81h41.265c.893 0 1.588.706 1.588 1.587v7.931a1.58 1.58 0 0 1-1.588 1.587H3.681a1.574 1.574 0 0 1-1.587-1.587v-7.931c0-.881.694-1.587 1.587-1.587Zm3.963 1.587A2.375 2.375 0 0 0 5.267 36.2a2.376 2.376 0 0 0 2.377 2.379A2.384 2.384 0 0 0 10.03 36.2a2.382 2.382 0 0 0-2.386-2.377Zm6.357 0a2.374 2.374 0 0 0-2.385 2.377 2.385 2.385 0 0 0 2.385 2.379 2.379 2.379 0 0 0 2.378-2.379 2.368 2.368 0 0 0-2.378-2.377Zm6.347 0a2.38 2.38 0 0 0-2.385 2.377 2.385 2.385 0 0 0 2.385 2.379 2.379 2.379 0 0 0 0-4.756ZM7.644 35.404c.423 0 .799.348.799.796a.796.796 0 0 1-1.589 0c0-.448.367-.796.79-.796Zm6.357 0c.426 0 .791.348.791.796a.795.795 0 0 1-1.589 0c0-.448.372-.796.798-.796Zm6.347 0a.8.8 0 0 1 .791.796.787.787 0 0 1-.791.791.793.793 0 0 1-.798-.791c0-.448.381-.796.798-.796Zm4.756 0c-1.036 0-1.036 1.587 0 1.587h7.148c1.035 0 1.035-1.587 0-1.587h-7.148Zm10.715 0c-1.036 0-1.036 1.587 0 1.587h1.987c1.035 0 1.035-1.587 0-1.587h-1.987ZM6.059 44.93h3.969v1.587H6.059V44.93Zm32.539 0h3.968v1.587h-3.968V44.93Z"/></svg>