<svg xmlns="http://www.w3.org/2000/svg" width="53" height="60"><path fill-rule="evenodd" d="m.683 59.921 2.115-12.682a10.524 10.524 0 0 1 7.07-8.272l8.253-2.75V34.99h1.918v1.799l1.431 5.726 3.874-4.648h2.817l3.873 4.648 1.432-5.726V34.99h1.919v1.227l8.252 2.75a10.52 10.52 0 0 1 7.07 8.272l2.114 12.682H.683Zm22.006-15.872-2.163 2.594-2.125-8.498-7.926 2.642a8.613 8.613 0 0 0-5.785 6.768L2.948 58.004H9.58l.872-8.726 1.909.191-.854 8.534h10.578l1.748-12.238-1.144-1.716Zm4.573-4.264h-1.02l-2.273 2.726 1.867 2.799-1.814 12.693h5.461L27.668 45.31l1.867-2.799-2.273-2.726Zm21.553 7.769a8.611 8.611 0 0 0-5.785-6.768l-7.925-2.642-2.126 8.498-2.163-2.594-1.144 1.716 1.749 12.238h10.577l-.854-8.534 1.909-.191.872 8.726h6.632l-1.742-10.449ZM38.798 26.307a10.495 10.495 0 0 1-2.666 4.499l-3.741 3.739a4.765 4.765 0 0 1-3.39 1.404h-4.496a4.763 4.763 0 0 1-3.39-1.404l-3.741-3.739a10.495 10.495 0 0 1-2.666-4.499c-2.39-.271-4.26-2.28-4.26-4.741 0-1.573.773-2.961 1.948-3.835h-.03v-2.877C12.366 6.923 18.82.471 26.752.471h.691c4.31 0 8.173 2.75 9.616 6.766a4.801 4.801 0 0 1 4.08 4.74v5.754h-.029c1.174.874 1.947 2.262 1.947 3.835 0 2.461-1.87 4.47-4.259 4.741Zm-22.597-2.959c0 2.305.898 4.472 2.528 6.102l3.741 3.74a2.898 2.898 0 0 0 2.034.841H29c.757 0 1.499-.306 2.034-.841l3.741-3.74a8.574 8.574 0 0 0 2.528-6.103v-4.722a7.775 7.775 0 0 1-5.674-3.691l-.294-.488a17.208 17.208 0 0 1-11.365 4.243h-3.769v4.659Zm-3.835-1.782c0 1.265.827 2.33 1.963 2.715-.027-.309-.045-.62-.045-.933v-4.482a2.874 2.874 0 0 0-1.918 2.7Zm26.855-9.589a2.88 2.88 0 0 0-2.877-2.876h-.723l-.199-.696a8.334 8.334 0 0 0-7.979-6.016h-.691c-6.874 0-12.468 5.592-12.468 12.465v2.014c.31-.063.631-.096.959-.096h4.728a15.31 15.31 0 0 0 10.898-4.514l.869-.868 1.536 2.558a5.845 5.845 0 0 0 4.988 2.824c.328 0 .649.033.959.096v-4.891Zm0 6.889v4.482c0 .313-.018.624-.045.932a2.872 2.872 0 0 0 1.963-2.714 2.872 2.872 0 0 0-1.918-2.7Z"/></svg>