<svg xmlns="http://www.w3.org/2000/svg" width="44" height="44"><path fill-rule="evenodd" d="M39.154 43.831H4.846a4.678 4.678 0 0 1-4.679-4.678V9.523a4.678 4.678 0 0 1 4.679-4.678h4.678V1.726a1.559 1.559 0 1 1 3.119 0v3.119h18.714V1.726a1.558 1.558 0 1 1 3.119 0v3.119h4.678a4.677 4.677 0 0 1 4.678 4.678v29.63a4.677 4.677 0 0 1-4.678 4.678Zm1.56-34.308a1.56 1.56 0 0 0-1.56-1.56h-4.678v3.12a1.56 1.56 0 0 1-3.119 0v-3.12H12.643v3.12a1.559 1.559 0 0 1-3.119 0v-3.12H4.846a1.56 1.56 0 0 0-1.56 1.56v6.238h37.428V9.523Zm0 9.357H3.286v20.273a1.56 1.56 0 0 0 1.56 1.559h34.308a1.56 1.56 0 0 0 1.56-1.559V18.88ZM19.983 37.137a1.56 1.56 0 0 1-2.205 0l-6.237-6.239a1.558 1.558 0 0 1 0-2.166 1.561 1.561 0 0 1 2.205-.039l5.135 5.136 11.373-11.373a1.56 1.56 0 0 1 2.205 2.205L19.983 37.137Z"/></svg>