<svg xmlns="http://www.w3.org/2000/svg" width="55" height="44"><path fill-rule="evenodd" d="M46.965 11.676V1.375a1.202 1.202 0 0 0-.573-.973 1.435 1.435 0 0 0-1.089-.171L22.54 9.273H11.302a5.85 5.85 0 0 0-5.045 3.09l-1.032.401a6.467 6.467 0 0 0-4.358 6.123 6.351 6.351 0 0 0 4.358 6.066l.687.287a5.9 5.9 0 0 0 2.867 3.147l3.039 10.988a5.62 5.62 0 0 0 6.898 3.938 5.614 5.614 0 0 0 3.021-2.049 5.885 5.885 0 0 0 .918-4.979l-2.064-7.554h1.949l22.762 9.214.402.114c.24.004.477-.056.687-.171a1.09 1.09 0 0 0 .574-.916V26.099c3.99 0 7.224-3.229 7.224-7.212 0-3.982-3.234-7.21-7.224-7.211ZM5.683 22.664a3.834 3.834 0 0 1-2.408-3.777 3.835 3.835 0 0 1 2.408-3.777v7.554Zm14.22 17.169a3.27 3.27 0 0 1-2.695 1.316 3.44 3.44 0 0 1-3.211-2.518l-2.695-9.9h6.938l2.179 8.126a3.432 3.432 0 0 1-.516 2.976Zm1.834-13.392H11.302a3.15 3.15 0 0 1-3.325-3.204V15.11a3.436 3.436 0 0 1 3.321-3.548h10.439v14.879Zm22.934 8.814-20.64-8.241V11.333l20.64-8.24v32.162Zm2.294-11.446v-9.843a4.926 4.926 0 0 1 4.931 4.922 4.926 4.926 0 0 1-4.931 4.921Z"/></svg>