<svg xmlns="http://www.w3.org/2000/svg" width="38" height="46"><path fill-rule="evenodd" d="M34.217 45.826H3.783c-1.563 0-3.261-1.698-3.261-3.261V3.434C.522 1.871 2.22.173 3.783.173h25c.25 0 .071.246.248.423L37 8c.177.177.478.619.478.869v33.696c0 1.563-1.698 3.261-3.261 3.261ZM35 9l-5.693-5.458v3.384c0 .521.423.944.943.944h1.886v1.887H30.25a2.83 2.83 0 0 1-2.829-2.831V2.539S6.46 2.475 3.19 2.475a.94.94 0 0 0-.285.676v39.636c0 .304.144.575.367.747 6.302 0 23.969-.027 31.36-.027.204-.173.368-.219.368-.508V9Zm-5.693 29.069H9.505a.943.943 0 0 1-.942-.944V19.194H6.677v-1.887h2.828c.521 0 .943.422.943.944v17.93H30.25c.521 0 .943.423.943.944v2.831h-1.886v-1.887Zm-1.886-14.156h-1.885v10.381H23.65v-6.606h-1.886v6.606h-1.886V18.251h-1.886v16.043h-1.886V22.025H14.22v12.269h-1.886V21.082c0-.521.422-.944.943-.944h2.829v-2.831c0-.521.422-.944.943-.944h3.772c.521 0 .943.423.943.944V25.8h1.886v-2.831c0-.521.422-.944.943-.944h3.771c.521 0 .943.423.943.944v11.325h-1.886V23.913ZM10.448 11.645V9.757h1.886v1.888h-1.886ZM6.677 5.982h9.429V7.87H6.677V5.982Zm1.886 5.663H6.677V9.757h1.886v1.888Z"/></svg>