<?xml version="1.0" encoding="utf-8"?>
<!-- Generator: Adobe Illustrator 24.0.1, SVG Export Plug-In . SVG Version: 6.00 Build 0)  -->
<svg version="1.1" id="Layer_1" xmlns="http://www.w3.org/2000/svg" xmlns:xlink="http://www.w3.org/1999/xlink" x="0px" y="0px"
	 viewBox="0 0 46 46" style="enable-background:new 0 0 46 46;" xml:space="preserve">
<style type="text/css">
	.st0{fill-rule:evenodd;clip-rule:evenodd;}
</style>
<path class="st0" d="M44.6,43.8h-6.7v1.1c0,0.8-0.4,1.1-1.1,1.1c-0.8,0-1.1-0.4-1.1-1.1v-1.1H29v1.1c0,0.8-0.4,1.1-1.1,1.1
	c-0.8,0-1.1-0.4-1.1-1.1v-1.1h-5.6v1.1c0,0.8-0.4,1.1-1.1,1.1c-0.8,0-1.1-0.4-1.1-1.1v-1.1h-5.6v1.1c0,0.8-0.4,1.1-1.1,1.1
	s-1.1-0.4-1.1-1.1v-1.1H4.5v1.1c0,0.8-0.4,1.1-1.1,1.1s-1.1-0.1-1.1-0.9l0-1.4H1.1c-0.8,0-1.1-0.4-1.1-1.1c0-0.8,0.4-1.1,1.1-1.1
	h1.1v-6.7H1.1c-0.8,0-1.1-0.4-1.1-1.1c0-0.8,0.4-1.1,1.1-1.1h1.1v-5.6H1.1c-0.8,0-1.1-0.4-1.1-1.1c0-0.8,0.4-1.1,1.1-1.1h1.1v-6.7
	H1.1C0.4,18.1,0,17.8,0,17c0-0.8,0.4-1.1,1.1-1.1h1.1v-5.6H1.1C0.4,10.3,0,10,0,9.2s0.4-1.1,1.1-1.1h1.1V1.4c0-0.8,0.4-1.1,1.1-1.1
	s1.1,0.4,1.1,1.1v40.1h40.1c0.8,0,1.1,0.4,1.1,1.1C45.7,43.4,45.3,43.8,44.6,43.8z M39,19.2c0.8,0,1.1,0.4,1.1,1.1v16.7
	c0,0.8-0.4,1.1-1.1,1.1h-4.5c-0.8,0-1.1-0.4-1.1-1.1V20.4c0-0.8,0.4-1.1,1.1-1.1H39z M35.7,36h2.2V21.5h-2.2V36z M27.9,11.4
	c0.8,0,1.1,0.4,1.1,1.1v24.5c0,0.8-0.4,1.1-1.1,1.1h-4.5c-0.8,0-1.1-0.4-1.1-1.1V12.6c0-0.8,0.4-1.1,1.1-1.1
	C23.4,11.4,27.9,11.4,27.9,11.4z M24.5,36h2.2V13.7h-2.2C24.5,13.7,24.5,36,24.5,36z M16.7,19.2c0.8,0,1.1,0.4,1.1,1.1v16.7
	c0,0.8-0.4,1.1-1.1,1.1h-4.5c-0.8,0-1.1-0.4-1.1-1.1V20.4c0-0.8,0.4-1.1,1.1-1.1C12.3,19.2,16.7,19.2,16.7,19.2z M13.4,36h2.2V21.5
	h-2.2V36z M42.4,15.9c-3.4,0-6.6-2.9-8.9-6.7c-2.1-3.4-3.8-6.8-7.9-6.8c-2.8,0-4.4,1.3-6.6,4.5c-2.5,3.7-5.8,8.9-10,8.9
	c-0.8,0-1.2-0.4-1.2-1.1c0-0.8,0.4-1.1,1.2-1.1c2.8,0,5-3.3,7.3-6.5c2.5-3.7,5.3-6.9,9.5-6.9c4.2,0,6.4,3,8.9,6.7
	c2.2,3.2,4.1,6.7,7.8,6.7c0.8,0,1,0.4,1,1.1C43.4,15.5,43.1,15.9,42.4,15.9z"/>
</svg>
