<svg xmlns="http://www.w3.org/2000/svg" width="47" height="48"><path fill-rule="evenodd" d="M37.093 31.212a1.081 1.081 0 0 0-1.534 0l-.65.65-3.39-3.393a17.422 17.422 0 0 0 .963-18.842l.982-1.022a3.492 3.492 0 0 0 4.857-1.716h2.886a1.087 1.087 0 0 0 0-2.173h-2.7a3.492 3.492 0 0 0-4.568-2.493 3.492 3.492 0 0 0-2.064 1.965 3.493 3.493 0 0 0 .083 2.849l-.71.741a17.388 17.388 0 0 0-1.543-1.766c-6.775-6.779-17.799-6.779-24.573 0-6.394 6.407-6.803 16.652-.939 23.549 5.863 6.898 16.035 8.137 23.382 2.851l3.392 3.394-.649.649a1.085 1.085 0 0 0 0 1.536l7.86 7.864a4.792 4.792 0 0 0 6.775 0 4.8 4.8 0 0 0 0-6.779l-7.86-7.864ZM35.106 4.194a1.325 1.325 0 1 1-.002 2.65 1.325 1.325 0 0 1 .002-2.65ZM6.667 7.548c5.942-5.933 15.561-5.933 21.503 0a15.217 15.217 0 0 1 1.554 1.818l-2.81 2.928a3.493 3.493 0 0 0-4.564 4.757l-3.249 3.386a3.482 3.482 0 0 0-3.36.211l-1.959-1.961a3.497 3.497 0 0 0-2.169-4.472 3.488 3.488 0 0 0-2.686.182 3.49 3.49 0 0 0-1.76 2.037H2.326a15.101 15.101 0 0 1 4.341-8.886Zm17.477 7.928a1.325 1.325 0 1 1 2.65 0 1.325 1.325 0 0 1-2.65 0Zm-6.532 6.799a1.323 1.323 0 0 1 .936 2.261 1.326 1.326 0 0 1-2.261-.936 1.326 1.326 0 0 1 1.325-1.325Zm-7.124-3.43a1.325 1.325 0 1 1 .002-2.649 1.325 1.325 0 0 1-.002 2.649ZM6.667 29.062a15.11 15.11 0 0 1-4.451-10.456h4.951a3.489 3.489 0 0 0 5.275 1.812l1.913 1.915a3.5 3.5 0 0 0 3.48 4.758 3.498 3.498 0 0 0 2.845-5.163l3.202-3.337a3.493 3.493 0 0 0 4.631-4.827l2.394-2.495a15.242 15.242 0 0 1-2.737 17.793c-5.928 5.933-15.575 5.933-21.503 0Zm22.593 1.965a16.312 16.312 0 0 0 .873-.873l3.242 3.244-.873.872-3.242-3.243ZM43.419 44.32a2.62 2.62 0 0 1-3.705 0l-7.093-7.097 3.705-3.707 7.093 7.097a2.624 2.624 0 0 1 0 3.707Z"/></svg>