<svg xmlns="http://www.w3.org/2000/svg" width="33" height="33"><path fill-rule="evenodd" d="M15.358 11.053c-.018-.081.004-.018 0 0 .403-1.257.729-3.014.387-3.946-.055-.151-.211-.214-.211-.214s-.093 0-.176.176c-.364 1.086-.364 2.359 0 3.984ZM10.521 22.94c-.362.176-.715.362-.9.538-1.265 1.088-2.174 2.359-2.35 2.9 1.085-.179 2.174-1.264 3.25-3.438.186 0 .186 0 0 0 .186 0 0 0 0 0Zm15.369-2.78c-.315-.182-.821-.658-3.357-.658h-.352l-.316.026.316.152c1.262.548 2.526.91 3.436.91h.794s-.211-.183-.43-.362l-.091-.068ZM29 0H4C2.003 0 0 2.002 0 4v25c0 1.988 2.003 4 4 4h25c1.988 0 4-2.012 4-4V4c0-1.998-2.012-4-4-4Zm-1.697 21.675a3.657 3.657 0 0 1-1.635.364c-1.448 0-3.612-.364-5.424-1.273-3.077.362-5.436.724-7.236 1.45-.186 0-.186 0-.365.186-2.173 3.797-3.983 5.6-5.433 5.6-.362 0-.45-.041-.743-.148 0 0-.412-.161-.582-.34a2.584 2.584 0 0 1-.301-.412c-.186-.362-.186-.538-.186-.903.186-.909 1.274-2.535 3.448-3.797.362-.186.9-.548 1.624-.912.54-.9 1.088-1.988 1.812-3.251.902-1.811 1.45-3.623 1.988-5.247-.724-2.174-1.086-3.448-.362-5.974.176-.724.724-1.45 1.45-1.45h.362c.362 0 .724.176 1.086.362 1.264 1.264.726 4.162 0 6.512v.186c.726 1.988 1.802 3.614 2.89 4.702.548.362.91.724 1.634 1.086.902 0 1.626-.177 2.35-.177 2.174 0 3.623.353 4.162 1.263.176.364.176.726.176 1.088-.176.176-.362.723-.715 1.085Zm-11.769-7.059c-.362 1.264-1.088 2.714-1.802 4.338-.362.726-.724 1.274-1.089 1.998h.365c2.35-.91 4.524-1.45 5.962-1.636-.362-.176-.538-.362-.715-.538-.909-1.086-1.997-2.536-2.721-4.162Z"/></svg>