<svg xmlns="http://www.w3.org/2000/svg" width="20" height="20"><path fill-rule="evenodd" d="M19.303 20h-7.606a.697.697 0 0 1-.697-.697v-7.606c0-.385.312-.697.697-.697h7.606c.385 0 .697.312.697.697v7.606a.697.697 0 0 1-.697.697Zm-.803-7.053c0-.247-.2-.447-.447-.447h-5.106c-.247 0-.447.2-.447.447v5.106c0 .247.2.447.447.447h5.106c.247 0 .447-.2.447-.447v-5.106ZM19.303 9h-7.606A.697.697 0 0 1 11 8.303V.697c0-.385.312-.697.697-.697h7.606c.385 0 .697.312.697.697v7.606a.697.697 0 0 1-.697.697ZM18.5 1.947c0-.247-.2-.447-.447-.447h-5.106c-.247 0-.447.2-.447.447v5.106c0 .247.2.447.447.447h5.106c.247 0 .447-.2.447-.447V1.947ZM8.303 20H.696A.697.697 0 0 1 0 19.303v-7.606C0 11.312.312 11 .696 11h7.607c.385 0 .697.312.697.697v7.606a.697.697 0 0 1-.697.697ZM7.5 12.947c0-.247-.2-.447-.447-.447H1.947c-.247 0-.447.2-.447.447v5.106c0 .247.2.447.447.447h5.106c.247 0 .447-.2.447-.447v-5.106ZM8.303 9H.696A.697.697 0 0 1 0 8.303V.697C0 .312.312 0 .696 0h7.607C8.688 0 9 .312 9 .697v7.606A.697.697 0 0 1 8.303 9ZM7.5 1.947c0-.247-.2-.447-.447-.447H1.947c-.247 0-.447.2-.447.447v5.106c0 .247.2.447.447.447h5.106c.247 0 .447-.2.447-.447V1.947Z"/></svg>