<svg xmlns="http://www.w3.org/2000/svg" width="51" height="45"><path fill-rule="evenodd" d="M46.26 38.447h-1.559v4.381a1.464 1.464 0 0 1-2.495 1.033l-5.418-5.414h-8.165a4.386 4.386 0 0 1-4.385-4.38v-1.459h-6.8L9.096 40.94a1.462 1.462 0 0 1-2.495-1.033v-7.299H5.139a4.388 4.388 0 0 1-4.385-4.38V4.868A4.388 4.388 0 0 1 5.139.487h35.177a4.388 4.388 0 0 1 4.385 4.381v13.14h1.559a4.387 4.387 0 0 1 4.385 4.38v11.679a4.386 4.386 0 0 1-4.385 4.38ZM41.778 4.868c0-.806-.656-1.461-1.462-1.461H5.139c-.806 0-1.462.655-1.462 1.461v23.36c0 .805.656 1.46 1.462 1.46h2.924a1.46 1.46 0 0 1 1.461 1.46v5.235l6.275-6.268a1.46 1.46 0 0 1 1.033-.427h7.406v-7.3a4.387 4.387 0 0 1 4.385-4.38h13.155V4.868Zm5.944 17.52c0-.805-.656-1.461-1.462-1.461H28.623c-.806 0-1.462.656-1.462 1.461v11.679c0 .806.656 1.461 1.462 1.461h8.77c.388 0 .759.154 1.033.427l3.352 3.348v-2.315c0-.807.654-1.46 1.462-1.46h3.02c.806 0 1.462-.655 1.462-1.461V22.388Zm-10.757 9.791a1.458 1.458 0 0 1-2.067 0l-2.193-2.189a1.46 1.46 0 1 1 2.067-2.065l1.159 1.157 3.352-3.347a1.463 1.463 0 0 1 2.067 0c.571.57.571 1.495 0 2.065l-4.385 4.379ZM9.524 10.708c0-.807.654-1.46 1.462-1.46H34.47a1.46 1.46 0 1 1 0 2.92H10.986a1.46 1.46 0 0 1-1.462-1.46Zm1.462 4.38h11.79a1.46 1.46 0 1 1 0 2.92h-11.79a1.461 1.461 0 1 1 0-2.92Zm0 5.839h8.867a1.461 1.461 0 1 1 0 2.921h-8.867a1.46 1.46 0 1 1 0-2.921Z"/></svg>