<svg xmlns="http://www.w3.org/2000/svg" width="34" height="44"><path fill-rule="evenodd" d="M30.166 25.816a16.414 16.414 0 0 1-7.222 5.905l-4.448 10.154a2.105 2.105 0 0 1-3.857 0l-4.448-10.154a16.414 16.414 0 0 1-7.222-5.905 16.321 16.321 0 0 1-2.855-9.23C.114 7.525 7.495.153 16.567.153c9.073 0 16.454 7.372 16.454 16.433 0 3.299-.987 6.491-2.855 9.23ZM16.567 2.672c-7.682 0-13.932 6.242-13.932 13.914 0 2.791.836 5.493 2.418 7.812a14.017 14.017 0 0 0 2.259 2.569s1.605 1.339 2.432 1.734a13.68 13.68 0 0 0 1.69.807c.421.167.753.487.934.9l4.199 9.586 4.2-9.586c.181-.413.513-.733.934-.9a14.003 14.003 0 0 0 1.689-.807c1.559-.77 2.433-1.734 2.433-1.734a14.017 14.017 0 0 0 2.259-2.569 13.813 13.813 0 0 0 2.418-7.812c0-7.672-6.25-13.914-13.933-13.914Zm6.656 26.112c-.07.035-.108.054 0 0Zm-6.656-7.756a5.346 5.346 0 0 1-5.342-5.336 5.346 5.346 0 0 1 5.342-5.336 5.346 5.346 0 0 1 5.343 5.336 5.346 5.346 0 0 1-5.343 5.336Zm0-8.553a3.223 3.223 0 0 0-3.221 3.217 3.223 3.223 0 0 0 6.443 0 3.223 3.223 0 0 0-3.222-3.217Z"/></svg>