<svg xmlns="http://www.w3.org/2000/svg" width="38" height="37"><path fill-rule="evenodd" d="M30.158 36.322H8.063c-3.88 0-7.103-2.433-7.103-6.313V15.804c0-.777.539-1.472 1.316-1.472.778 0 1.052.695 1.052 1.472v14.205c0 2.328 2.407 3.945 4.735 3.945h22.095c2.328 0 4.735-1.617 4.735-3.945V15.804c0-1.23.475-1.578 1.105-1.578.734 0 1.263.365 1.263 1.578v14.205c0 3.88-3.223 6.313-7.103 6.313Zm0-14.205-9.469 6.313c-1.416.944-1.741.944-3.157 0l-9.469-6.313c-1.179-.786-1.579-1.741-1.579-3.156V4.756C6.484 2.428 8.102.81 10.43.81h16.572c2.328 0 4.735 1.618 4.735 3.946v14.205c0 1.415-.4 2.37-1.579 3.156Zm-.789-17.361c0-.776-1.591-1.578-2.367-1.578H10.43c-.776 0-1.578.802-1.578 1.578v14.205c0 .472.395 1.315.789 1.578l8.68 5.524c.471.313 1.11.312 1.579 0l8.206-5.773c.393-.262 1.263-.857 1.263-1.329V4.756Zm-4.735 12.626H13.587c-.778 0-1.741-.302-1.741-1.08 0-.777.963-1.287 1.741-1.287h11.047c.778 0 1.286.51 1.286 1.287 0 .778-.508 1.08-1.286 1.08Zm0-5.524H13.587c-.778 0-1.741-.407-1.741-1.185 0-.777.963-1.182 1.741-1.182h11.047c.778 0 1.286.405 1.286 1.182 0 .778-.508 1.185-1.286 1.185Z"/></svg>