<svg xmlns="http://www.w3.org/2000/svg" width="43" height="41"><path fill-rule="evenodd" d="M31.271 20.321a12.777 12.777 0 0 1-5.368-1.156 12.407 12.407 0 0 1-6.852 1.013 1.084 1.084 0 0 1-.914-.842c-.084-.45.121-.906.514-1.142a7.14 7.14 0 0 0 2.769-2.854 9.107 9.107 0 0 1-1.641-5.182c0-5.538 5.182-9.991 11.534-9.991 6.353 0 11.535 4.51 11.535 9.991s-5.21 10.163-11.577 10.163Zm0-18.027c-5.182 0-9.394 3.539-9.394 7.907a7.14 7.14 0 0 0 1.599 4.411c.245.318.299.743.143 1.113a9.482 9.482 0 0 1-1.428 2.298 10.506 10.506 0 0 0 2.855-.814l.457-.242c.124-.068.26-.112.4-.129v.057c.175.001.346.045.5.129a10.504 10.504 0 0 0 4.868 1.156c5.182 0 9.393-3.554 9.393-7.922s-4.211-7.964-9.393-7.964Zm4.968 9.078a1.17 1.17 0 1 1 0-2.341 1.17 1.17 0 0 1 0 2.341Zm-4.968 0a1.17 1.17 0 1 1 0-2.341 1.17 1.17 0 0 1 0 2.341Zm-4.968 0a1.17 1.17 0 1 1 0-2.341 1.17 1.17 0 0 1 0 2.341ZM13.44 20.193a1.499 1.499 0 0 0 0 2.098l5.454 5.452a1.497 1.497 0 0 0 2.098 0l1.699-1.713a4.427 4.427 0 0 1 6.196 0l3.497 3.483a4.28 4.28 0 0 1 0 6.124l-1.556 1.555a11.064 11.064 0 0 1-7.909 3.312 11.173 11.173 0 0 1-5.882-1.627A44.568 44.568 0 0 1 8.9 32.282a43.743 43.743 0 0 1-6.509-8.136 11.046 11.046 0 0 1 1.57-13.717l1.542-1.527a4.454 4.454 0 0 1 6.124 0l3.483 3.497a4.284 4.284 0 0 1 0 6.123l-1.67 1.671Zm.157-6.309-3.483-3.554a2.242 2.242 0 0 0-1.556-.586 2.17 2.17 0 0 0-1.542.586L5.46 11.942a8.921 8.921 0 0 0-1.271 11.077 41.706 41.706 0 0 0 6.211 7.75 42.178 42.178 0 0 0 7.765 6.224 8.924 8.924 0 0 0 11.079-1.271l1.555-1.556c.413-.406.645-.962.643-1.541a2.193 2.193 0 0 0-.643-1.556l-3.497-3.483a2.242 2.242 0 0 0-3.098 0l-1.67 1.67a3.626 3.626 0 0 1-5.125 0l-5.482-5.481a3.625 3.625 0 0 1 0-5.124l1.67-1.67c.412-.413.643-.973.642-1.556a2.15 2.15 0 0 0-.642-1.541Z"/></svg>