<svg xmlns="http://www.w3.org/2000/svg" width="20" height="13"><path fill-rule="evenodd" d="M10 12.829c-4.064 0-7.604-2.549-9.505-6.329C2.396 2.72 5.936.171 10 .171c4.064 0 7.604 2.55 9.505 6.329-1.901 3.78-5.441 6.329-9.505 6.329Zm0-11.076c-3.059 0-5.947 1.8-7.7 4.747 1.753 2.947 4.641 4.747 7.7 4.747 3.058 0 5.947-1.8 7.7-4.747-1.753-2.947-4.642-4.747-7.7-4.747Zm0 8.307a3.561 3.561 0 1 1 0-7.12 3.562 3.562 0 0 1 3.564 3.56A3.562 3.562 0 0 1 10 10.06Zm0-5.538A1.979 1.979 0 1 0 11.98 6.5 1.979 1.979 0 0 0 10 4.522Z"/></svg>