<svg xmlns="http://www.w3.org/2000/svg" width="68" height="43"><path fill-rule="evenodd" d="M66.263 2.847c-11.014 0-17.125 2.818-17.38 2.935a1.398 1.398 0 0 0-.749.873c-.098.337-.067.694.083 1.009a154.945 154.945 0 0 1-8.034-3.295c-5.061-2.261-8.325-1.57-11.942 1.282H17.017c.06-.447.109-.877.144-1.282a1.39 1.39 0 0 0-.432-1.138C14.325.953 4.711.216 1.821.045A1.396 1.396 0 0 0 .774.423c-.28.264-.44.634-.44 1.021v25.24c0 .774.628 1.402 1.403 1.402h8.416c.606 0 1.145-.39 1.333-.968.028-.087.146-.448.329-1.023.319.329.671.698 1.037 1.079 1.251 1.308 2.545 2.659 3.414 3.388 5.224 4.372 11.503 9.092 12.754 9.913 1.033.679 3.257 1.633 4.98 1.633 1.383 0 2.446-.317 3.184-.937.988.384 2.11.387 3.19-.034 1.277-.493 2.326-1.489 2.921-2.695 1.105.237 2.37.071 3.52-.507 1.125-.567 1.939-1.434 2.343-2.446 1.117.059 2.267-.337 3.218-1.152 1.282-1.097 1.824-2.679 1.521-4.254l2.221-1.491c.156.504.284.934.376 1.269.169.609.721 1.03 1.353 1.03h8.416c.774 0 1.403-.628 1.403-1.403V4.249c0-.777-.629-1.402-1.403-1.402ZM3.139 25.282V2.947c4.509.356 9.374 1.13 11.141 1.989-.743 6.141-4.107 17.053-5.151 20.346h-5.99Zm47.413 6.921c-.532.457-1.252.614-1.675.372-1.043-.837-5.492-5.389-8.25-8.264a1.401 1.401 0 0 0-1.984-.042 1.4 1.4 0 0 0-.042 1.983c.651.679 5.895 6.142 7.998 8.057-.162.61-.754.973-1.04 1.115-.894.453-1.826.378-2.18.056a1.497 1.497 0 0 0-.084-.075c-1.681-1.344-5.903-5.827-6.857-6.865a1.407 1.407 0 0 0-1.984-.084 1.405 1.405 0 0 0-.084 1.983c.046.048 4.162 4.49 6.492 6.576a2.713 2.713 0 0 1-1.498 1.503c-.429.163-1.052.261-1.61-.249l-.042-.039c-2.001-1.687-6.094-6.041-6.894-6.897a1.402 1.402 0 1 0-2.05 1.916c.949 1.015 3.779 4.016 5.902 6.015-.18.025-.398.04-.67.04-.934 0-2.615-.632-3.437-1.176-.984-.647-7.159-5.252-12.493-9.717-.749-.63-2.045-1.982-3.189-3.177-.837-.874-1.614-1.678-2.128-2.162 1.172-3.867 2.865-9.792 3.798-14.617h8.604c-1.917 1.927-4.498 5.786-3.827 8.621.289 1.211 1.141 2.109 2.409 2.527 3.179 1.048 6.08.044 8.24-2.822.892-.137 1.378-.339 2.107-.667.264-.118.572-.255.982-.421 1.605 1.506 3.771 3.259 6.051 5.101 4.125 3.334 8.801 7.115 9.853 9.302.519 1.08-.039 1.784-.418 2.107Zm2.104-4.665c-1.935-2.584-5.911-5.799-9.774-8.922-2.547-2.06-4.954-4.006-6.489-5.539a1.4 1.4 0 0 0-1.467-.328c-.946.342-1.529.606-1.989.81-.702.315-.937.421-1.883.516a1.4 1.4 0 0 0-1.027.615c-1.983 2.963-4.037 2.712-5.409 2.252-.437-.147-.516-.334-.558-.514-.295-1.231 1.184-4.097 3.1-6.013 4.559-4.559 6.91-5.701 11.876-3.483 4.7 2.101 9.407 3.822 10.871 4.345 1.646 4.001 3.871 10.222 5.312 14.54l-2.563 1.721Zm12.204.548h-5.964c-1.33-4.33-5.258-15.621-7.449-20.287 2.141-.726 6.739-1.974 13.413-2.132v22.419Z"/></svg>