<svg xmlns="http://www.w3.org/2000/svg" width="18" height="18"><path fill-rule="evenodd" d="M1.301 13.814c1.082-.723 2.165-1.446 3.249-2.168.438-.292.795-.231 1.12.189.303.391.604.783.912 1.171.24.304.586.38.925.201.319-.168.635-.342.937-.541.828-.543 1.55-1.212 2.248-1.908.972-.968 1.881-1.985 2.511-3.221.21-.413.153-.744-.209-1.027-.39-.305-.782-.607-1.17-.913-.368-.29-.429-.662-.17-1.052.734-1.108 1.471-2.215 2.208-3.321.265-.396.643-.482 1.049-.242.457.272.911.546 1.365.822.45.274.729.669.847 1.184.045.193.125.849.125 1.124V4.4c0 .021-.036.634-.074.821-.219 1.084-.659 2.08-1.218 3.025-.772 1.309-1.725 2.481-2.766 3.584-.408.433-.83.854-1.259 1.267-.36.348-.737.677-1.116 1.003a18.213 18.213 0 0 1-2.287 1.683c-.708.438-1.447.813-2.235 1.086a6.757 6.757 0 0 1-1.596.357c-.213.02-.559.007-.702 0a21.965 21.965 0 0 1-.67-.067c-.693-.09-1.221-.42-1.564-1.045-.222-.405-.472-.795-.709-1.192-.269-.452-.188-.817.249-1.108Z"/></svg>