<svg xmlns="http://www.w3.org/2000/svg" width="23" height="23"><path fill-rule="evenodd" d="M20.169 5.369c-1.453 0-2.633-1.168-2.633-2.606 0-1.436 1.18-2.607 2.633-2.607 1.452 0 2.631 1.171 2.631 2.607 0 1.438-1.179 2.606-2.631 2.606Zm-.068 3.141c1.451 0 2.631 1.168 2.631 2.606 0 1.437-1.18 2.608-2.631 2.608-1.453 0-2.633-1.171-2.633-2.608 0-1.438 1.182-2.606 2.633-2.606Zm-8.59-3.141c-1.451 0-2.633-1.168-2.633-2.606 0-1.436 1.182-2.607 2.633-2.607 1.452 0 2.633 1.171 2.633 2.607 0 1.438-1.181 2.606-2.633 2.606Zm-.068 3.141c1.451 0 2.633 1.168 2.633 2.606 0 1.437-1.182 2.608-2.633 2.608-1.452 0-2.633-1.171-2.633-2.608 0-1.438 1.181-2.606 2.633-2.606ZM2.992 5.369C1.541 5.369.359 4.201.359 2.763.359 1.327 1.541.156 2.992.156c1.452 0 2.631 1.171 2.631 2.607 0 1.438-1.179 2.606-2.631 2.606ZM2.924 8.51c1.451 0 2.63 1.168 2.63 2.606 0 1.437-1.179 2.608-2.63 2.608-1.451 0-2.633-1.171-2.633-2.608 0-1.438 1.182-2.606 2.633-2.606Zm.059 8.326c1.451 0 2.633 1.17 2.633 2.608 0 1.437-1.182 2.608-2.633 2.608-1.452 0-2.631-1.171-2.631-2.608 0-1.438 1.179-2.608 2.631-2.608Zm8.521 0c1.451 0 2.631 1.17 2.631 2.608 0 1.437-1.18 2.608-2.631 2.608-1.454 0-2.634-1.171-2.634-2.608 0-1.438 1.183-2.608 2.634-2.608Zm8.656 0c1.451 0 2.633 1.17 2.633 2.608 0 1.437-1.182 2.608-2.633 2.608-1.452 0-2.633-1.171-2.633-2.608 0-1.438 1.181-2.608 2.633-2.608Z"/></svg>