<svg xmlns="http://www.w3.org/2000/svg" width="40" height="40"><path fill-rule="evenodd" d="m39.256 29.156-6.248 7.952a7.324 7.324 0 0 1-5.794 2.816H15.493c-.113 0-.226-.016-.334-.049l-6.366-1.91a2.72 2.72 0 0 1-2.607 1.959H1.377c-.643 0-1.163-.52-1.163-1.164V25.575c0-.642.52-1.163 1.163-1.163h4.809c1.093 0 2.037.65 2.467 1.583l.568-.34a8.728 8.728 0 0 1 8.389-.322l2.811 1.406h5.155a3.493 3.493 0 0 1 3.477 3.797l5.528-5.528a3.083 3.083 0 0 1 3.411-.679 3.083 3.083 0 0 1 1.933 2.893c0 .698-.238 1.385-.669 1.934Zm-32.682-2.03a.389.389 0 0 0-.388-.387H2.54v2.326h4.034v-1.939Zm0 4.266H2.54v6.205h3.646a.389.389 0 0 0 .388-.388v-5.817Zm30.528-4.913a.778.778 0 0 0-.876.174l-6.725 6.725a1.164 1.164 0 0 1-.822.341H18.596a1.164 1.164 0 1 1 0-2.327h6.98c.642 0 1.164-.522 1.164-1.163s-.522-1.164-1.164-1.164h-5.429c-.181 0-.359-.041-.52-.122l-3.058-1.53a6.395 6.395 0 0 0-6.15.237l-1.519.91v7.008l6.764 2.029h11.55a5.012 5.012 0 0 0 3.964-1.926l6.248-7.953a.805.805 0 0 0 .172-.496.777.777 0 0 0-.496-.743Zm-6.174-9.43v2.166a2.718 2.718 0 0 1-2.715 2.715h-1.551a2.718 2.718 0 0 1-2.715-2.715v-1.939h-7.756v1.939a2.718 2.718 0 0 1-2.714 2.715h-1.552a2.718 2.718 0 0 1-2.714-2.715v-2.166a3.105 3.105 0 0 1-1.939-2.875v-3.49c0-1.4.932-2.587 2.208-2.971l1.427-4.519A4.248 4.248 0 0 1 14.974.213h10.19a4.25 4.25 0 0 1 4.068 2.981l1.427 4.519a3.107 3.107 0 0 1 2.208 2.971v3.49c0 1.3-.804 2.414-1.939 2.875Zm-4.654 2.166c0 .214.174.388.388.388h1.551a.388.388 0 0 0 .388-.388v-1.939h-2.327v1.939Zm-14.736 0c0 .214.174.388.387.388h1.552a.388.388 0 0 0 .387-.388v-1.939h-2.326v1.939Zm15.475-15.32a1.93 1.93 0 0 0-1.849-1.355h-10.19a1.93 1.93 0 0 0-1.848 1.355l-1.164 3.686h16.215l-1.164-3.686Zm3.527 6.789a.776.776 0 0 0-.776-.776h-19.39a.775.775 0 0 0-.775.776v3.49c0 .427.347.775.775.775h19.39a.777.777 0 0 0 .776-.775v-3.49Z"/></svg>