<svg xmlns="http://www.w3.org/2000/svg" width="41" height="41"><path fill-rule="evenodd" d="M39.499 40.226H1.942a1.168 1.168 0 0 1-1.169-1.168v-3.897c0-3.221 1.872-6.013 4.585-7.347a5.045 5.045 0 0 1-1.468-3.561 5.07 5.07 0 0 1 5.064-5.065 5.07 5.07 0 0 1 5.065 5.065 5.05 5.05 0 0 1-1.463 3.557 8.171 8.171 0 0 1 4.068 4.49c.269-.213.555-.404.855-.573a4.265 4.265 0 0 1-1.044-2.799 4.29 4.29 0 0 1 4.285-4.286 4.29 4.29 0 0 1 4.286 4.286 4.27 4.27 0 0 1-1.044 2.799c.3.169.586.36.854.573a8.173 8.173 0 0 1 4.069-4.49 5.05 5.05 0 0 1-1.464-3.557 5.071 5.071 0 0 1 5.065-5.065 5.07 5.07 0 0 1 5.065 5.065 5.045 5.045 0 0 1-1.468 3.561c2.713 1.334 4.585 4.126 4.585 7.347v3.897c0 .645-.524 1.168-1.169 1.168ZM8.954 21.525a2.731 2.731 0 0 0-2.727 2.728 2.73 2.73 0 0 0 2.727 2.726 2.73 2.73 0 0 0 2.728-2.726 2.731 2.731 0 0 0-2.728-2.728Zm0 7.792a5.851 5.851 0 0 0-5.844 5.844v2.728h10.987v-.39a6.57 6.57 0 0 1 .674-2.906 5.832 5.832 0 0 0-5.817-5.276Zm11.766-2.338a1.951 1.951 0 0 0-1.948 1.949 1.95 1.95 0 0 0 1.948 1.948 1.95 1.95 0 0 0 0-3.897Zm4.286 10.52a4.291 4.291 0 0 0-4.286-4.286 4.29 4.29 0 0 0-4.285 4.286v.39h8.571v-.39Zm7.48-15.974a2.73 2.73 0 0 0-2.727 2.728 2.73 2.73 0 0 0 2.727 2.726 2.73 2.73 0 0 0 2.727-2.726 2.73 2.73 0 0 0-2.727-2.728Zm5.844 13.636a5.851 5.851 0 0 0-5.844-5.844 5.831 5.831 0 0 0-5.816 5.276 6.57 6.57 0 0 1 .673 2.906v.39H38.33v-2.728ZM21.056 22.879a1.163 1.163 0 0 1-.672 0 12.03 12.03 0 0 1-6.232-4.368 12.019 12.019 0 0 1-2.392-7.225V4.617c0-.646.523-1.169 1.168-1.169a3.856 3.856 0 0 0 3.466-2.141l.164-.329a1.17 1.17 0 0 1 1.046-.646h6.233c.443 0 .847.25 1.045.646l.165.329a3.854 3.854 0 0 0 3.465 2.141c.646 0 1.169.523 1.169 1.169v6.669c0 2.623-.827 5.121-2.393 7.225a12.022 12.022 0 0 1-6.232 4.368Zm6.287-17.202a6.17 6.17 0 0 1-4.217-3.008h-4.811a6.17 6.17 0 0 1-4.218 3.008v5.609c0 4.229 2.647 7.901 6.623 9.247 3.977-1.346 6.623-5.018 6.623-9.247V5.677Zm-7.725 9.326c-.299 0-.598-.115-.826-.343l-2.204-2.204a1.17 1.17 0 0 1 1.653-1.653l1.377 1.377 3.581-3.581a1.17 1.17 0 0 1 1.653 1.653l-4.407 4.408a1.166 1.166 0 0 1-.827.343Z"/></svg>