<svg xmlns="http://www.w3.org/2000/svg" width="43" height="39"><path fill-rule="evenodd" d="m40.266 27.333-9.674 10.399a1.224 1.224 0 0 1-1.791-1.666l9.674-10.399c.914-.983 1.418-2.288 1.418-3.677V10.215c0-.891-.653-1.615-1.456-1.615-.803 0-1.456.724-1.456 1.615v7.172c.962 1.577.771 3.665-.514 5.027l-5.916 6.267a1.218 1.218 0 0 1-1.729.051 1.222 1.222 0 0 1-.05-1.729l5.916-6.268c.561-.595.606-1.572.103-2.224l-.001-.001a1.956 1.956 0 0 0-.102-.12 1.385 1.385 0 0 0-1.01-.45c-.377 0-.736.16-1.009.45l-7.956 8.429c-1.223 1.296-1.933 2.998-2.021 4.825.004.112 0 5.252 0 5.252 0 .676-.546 1.224-1.222 1.226h-.002a1.225 1.225 0 0 1-1.223-1.222s-.005-5.139 0-5.252c-.088-1.828-.798-3.533-2.022-4.829l-7.955-8.429a1.383 1.383 0 0 0-1.009-.45 1.413 1.413 0 0 0-1.113.571c-.504.652-.458 1.629.103 2.224l5.916 6.268a1.223 1.223 0 1 1-1.779 1.678L6.47 22.414c-1.285-1.362-1.476-3.45-.514-5.027v-7.173c0-.89-.653-1.615-1.456-1.615-.803 0-1.456.725-1.456 1.615V21.99c0 1.389.503 2.694 1.418 3.677l9.674 10.399a1.222 1.222 0 1 1-1.791 1.666L2.671 27.333C1.334 25.897.598 23.999.598 21.99V10.214c0-2.239 1.751-4.06 3.902-4.06 2.151 0 3.902 1.821 3.902 4.06v5.377a3.805 3.805 0 0 1 3.645 1.121l7.955 8.428a9.723 9.723 0 0 1 1.466 2.018 9.764 9.764 0 0 1 1.467-2.018l7.955-8.428a3.804 3.804 0 0 1 3.645-1.121v-5.376c0-2.239 1.75-4.061 3.902-4.061 2.151 0 3.902 1.821 3.902 4.06V21.99c0 2.009-.737 3.907-2.073 5.343Zm-17.955-5.931a1.219 1.219 0 0 1-1.686-.001l-8.354-7.954C10.75 12.018 9.91 9.93 9.996 7.804 10.14 3.795 13.142.568 16.83.455c1.712-.053 3.343.56 4.638 1.708C22.763 1.015 24.394.405 26.105.455c3.698.112 6.701 3.348 6.836 7.368.082 2.125-.759 4.21-2.282 5.641l-8.348 7.938Zm3.721-18.501c-1.378-.042-2.686.613-3.593 1.795a1.222 1.222 0 0 1-1.941 0c-.88-1.147-2.138-1.797-3.469-1.797-.042 0-.083 0-.124.002-2.406.072-4.367 2.265-4.464 4.992-.061 1.425.497 2.825 1.512 3.779l7.516 7.156 7.508-7.141c1.019-.955 1.577-2.356 1.519-3.783-.091-2.732-2.053-4.931-4.464-5.003Zm-2.673 8.929h-.668v.667a1.223 1.223 0 1 1-2.446 0v-.667h-.668a1.224 1.224 0 0 1 0-2.446h.668v-.669a1.224 1.224 0 0 1 2.446 0v.669h.668a1.222 1.222 0 1 1 0 2.446Z"/></svg>