<svg xmlns="http://www.w3.org/2000/svg" width="18" height="15"><path fill-rule="evenodd" d="M17.388 14.658c-.274.216-.588.32-.933.346-.04.002-.081.001-.122.001-4.865 0-9.73.001-14.595-.001-.707-.001-1.218-.327-1.538-.952-.101-.197-.118-.409-.118-.623C.08 10.848.081 8.268.081 5.687l.003-.267s.131.146.17.186c.684.701 1.54 1.172 2.337 1.72 1.282.881 2.564 1.762 3.831 2.664.546.388 1.106.743 1.747.963.711.246 1.392.163 2.071-.126.595-.253 1.11-.627 1.632-.994a245.452 245.452 0 0 1 3.881-2.683c.563-.38 1.14-.74 1.668-1.168.131-.107.243-.233.367-.346a3.03 3.03 0 0 0 .188-.224v8.159c-.017.457-.234.807-.588 1.087Zm-1.115-9.281c-1.861 1.287-3.731 2.561-5.584 3.859a5.933 5.933 0 0 1-.937.534c-.559.259-1.092.188-1.622-.089-.642-.336-1.211-.777-1.802-1.186-1.026-.709-2.055-1.415-3.079-2.127-.609-.425-1.25-.807-1.817-1.287C.864 4.601.342 4.059.151 3.326c-.184-.703-.097-1.388.451-1.947.28-.286.632-.374 1.013-.395.041-.003.081-.001.122-.001h14.609c.697.001 1.188.339 1.519.933.087.157.077.333.111.5V3.004c-.068.553-.344 1.01-.685 1.433a4.865 4.865 0 0 1-1.018.94Z"/></svg>