<svg xmlns="http://www.w3.org/2000/svg" width="46" height="46"><path fill-rule="evenodd" d="M44.017 41.333a3.967 3.967 0 0 1-5.55-.783l-12.37-16.429a15.645 15.645 0 0 1-3.278.936 3.963 3.963 0 0 1-7.1 2.852l-6.358-8.444a3.962 3.962 0 0 1 4.706-6.037 15.556 15.556 0 0 1 11.415-8.593 3.963 3.963 0 0 1 1.55-3.635 3.968 3.968 0 0 1 5.55.783l6.358 8.443a3.97 3.97 0 0 1-.783 5.551 3.966 3.966 0 0 1-3.922.486 15.59 15.59 0 0 1-1.805 2.89l12.369 16.429a3.969 3.969 0 0 1-.782 5.551ZM30.247 25.24l2.111-1.589-1.764-2.343a15.688 15.688 0 0 1-2.111 1.589l1.764 2.343Zm-16.664-8.953a1.32 1.32 0 1 0-2.111 1.589l6.358 8.444a1.322 1.322 0 0 0 2.111-1.589v-.001l-6.358-8.443Zm13.105-8.954a12.928 12.928 0 0 0-10.555 7.946l5.48 7.28a12.941 12.941 0 0 0 10.555-7.947l-5.48-7.279Zm8.03 6.272a1.32 1.32 0 1 0 2.111-1.589l-6.357-8.444a1.32 1.32 0 1 0-2.111 1.589l6.357 8.444Zm7.97 23.767-8.741-11.61-2.111 1.589 8.741 11.611a1.323 1.323 0 0 0 2.111-1.59Zm-18.23-1.467v1.719A3.97 3.97 0 0 1 27.1 41.36v2.818a1.32 1.32 0 0 1-1.321 1.321H1.821A1.32 1.32 0 0 1 .5 44.178V41.36a3.97 3.97 0 0 1 2.642-3.736v-1.719a3.798 3.798 0 0 1 3.793-3.794h13.729a3.798 3.798 0 0 1 3.794 3.794ZM3.142 41.36v1.497h21.316V41.36c0-.728-.593-1.321-1.322-1.321H4.463c-.728 0-1.321.593-1.321 1.321Zm2.643-5.455v1.491h16.03v-1.491c0-.635-.516-1.151-1.151-1.151H6.935c-.634 0-1.15.516-1.15 1.151Z"/></svg>