<svg xmlns="http://www.w3.org/2000/svg" width="46" height="46"><path fill-rule="evenodd" d="M42.839 10.754V8.087H26.523a4.024 4.024 0 0 0-2.437-2.437V0h-2.667v5.65a4.024 4.024 0 0 0-2.437 2.437H2.666v2.667h3.333L0 25.152v.267a6.673 6.673 0 0 0 6.666 6.665h2.666a6.673 6.673 0 0 0 6.666-6.665v-.267L9.999 10.754h8.983a4.024 4.024 0 0 0 2.437 2.437v19.117a6.683 6.683 0 0 0-5.218 5.312c-3.095.574-5.447 3.293-5.447 6.552v1.333h23.997v-1.333c0-3.259-2.352-5.978-5.446-6.552a6.683 6.683 0 0 0-5.219-5.312V13.191a4.024 4.024 0 0 0 2.437-2.437h8.984l-6 14.398v.267a6.674 6.674 0 0 0 6.666 6.665h2.666a6.673 6.673 0 0 0 6.666-6.665v-.267l-5.999-14.398h3.333Zm-34.84 2.133 4.666 11.199H3.333l4.666-11.199Zm1.333 16.531H6.666a4.006 4.006 0 0 1-3.771-2.667h10.207a4.004 4.004 0 0 1-3.77 2.667Zm28.174-16.531 4.666 11.199H32.84l4.666-11.199Zm1.333 16.531h-2.666a4.004 4.004 0 0 1-3.77-2.667H42.61a4.006 4.006 0 0 1-3.771 2.667Zm-6.983 13.421H13.649a4.005 4.005 0 0 1 3.771-2.667h10.665a4.005 4.005 0 0 1 3.771 2.667Zm-5.333-5.333h-7.541a4.007 4.007 0 0 1 3.771-2.666 4.005 4.005 0 0 1 3.77 2.666Zm-3.77-26.752a1.335 1.335 0 0 1-1.334-1.333c0-.735.599-1.334 1.334-1.334a1.335 1.335 0 0 1 0 2.667Z"/></svg>