<svg xmlns="http://www.w3.org/2000/svg" width="46" height="46"><path fill-rule="evenodd" d="M44.483 45.611H1.773a1.33 1.33 0 0 1-1.329-1.33v-2.673a4.01 4.01 0 0 1 2.67-3.775v-1.569a4.01 4.01 0 0 1 2.669-3.775V18.877h-1.34a1.33 1.33 0 0 1-1.329-1.331v-4.447c0-.46.238-.889.63-1.131L22.429.391c.428-.266.97-.266 1.399 0l18.685 11.577c.392.242.63.671.63 1.131v4.447a1.33 1.33 0 0 1-1.329 1.331h-1.341v13.612a4.009 4.009 0 0 1 2.67 3.775v1.569a4.01 4.01 0 0 1 2.669 3.775v2.673a1.33 1.33 0 0 1-1.329 1.33Zm-3.998-29.396v-2.374L23.128 3.087 5.772 13.841v2.374h34.713ZM8.441 18.877v13.384h8.681V18.877H8.441Zm10.686 0v13.384h7.349V18.877h-7.349Zm10.008 0v13.384h8.68V18.877h-8.68Zm11.35 17.387c0-.74-.602-1.342-1.341-1.342H7.112c-.739 0-1.34.602-1.34 1.342v1.341h34.713v-1.341Zm2.669 5.344c0-.739-.602-1.341-1.34-1.341H4.443c-.739 0-1.34.602-1.34 1.341v1.342h40.051v-1.342ZM23.128 6.424a4.006 4.006 0 0 1 3.999 4.003 4.006 4.006 0 0 1-3.999 4.003 4.006 4.006 0 0 1-3.998-4.003 4.006 4.006 0 0 1 3.998-4.003Zm0 5.345a1.342 1.342 0 0 0 0-2.684 1.342 1.342 0 0 0 0 2.684Z"/></svg>