<svg xmlns="http://www.w3.org/2000/svg" width="42" height="42"><path fill-rule="evenodd" d="M21 41.032C9.936 41.032.967 32.063.967 20.999.967 9.935 9.936.967 21 .967 32.059.978 41.021 9.94 41.033 20.999c0 11.064-8.969 20.033-20.033 20.033Zm0-37.204c-9.483 0-17.171 7.688-17.171 17.171 0 9.484 7.688 17.172 17.171 17.172 9.479-.011 17.161-7.693 17.171-17.172 0-9.483-7.688-17.171-17.171-17.171Zm7.794 18.452-11.447 5.724a1.431 1.431 0 0 1-2.071-1.281V15.275a1.433 1.433 0 0 1 2.071-1.28l11.447 5.724a1.431 1.431 0 0 1 0 2.561Zm-10.656-4.689v6.817l6.817-3.409-6.817-3.408Z"/></svg>