<svg xmlns="http://www.w3.org/2000/svg" width="51" height="60"><path fill-rule="evenodd" d="M34.848 43.203a1.169 1.169 0 1 1 0 2.336H21.594a1.17 1.17 0 1 1 0-2.336h13.254Zm-20.934-16.6c0-6.276 5.11-11.384 11.392-11.384 6.28 0 11.39 5.108 11.39 11.384 0 6.275-5.11 11.382-11.39 11.382-6.282 0-11.392-5.107-11.392-11.382Zm2.417-1.169h4.298c.092-2.417.465-4.669 1.076-6.436.102-.296.208-.57.317-.824-3.025 1.182-5.261 3.941-5.691 7.26Zm17.949 2.337h-4.298c-.093 2.417-.466 4.669-1.076 6.435-.102.297-.208.57-.317.824 3.024-1.181 5.261-3.94 5.691-7.259Zm-5.374-8.773c.61 1.767.983 4.019 1.075 6.436h4.299c-.43-3.319-2.667-6.078-5.691-7.26.109.254.215.528.317.824Zm-4.991 14.445c.626 1.813 1.266 2.206 1.391 2.206.124 0 .764-.393 1.39-2.206.531-1.535.858-3.517.946-5.672H22.97c.087 2.155.414 4.137.945 5.672Zm3.727-8.009c-.088-2.155-.415-4.138-.946-5.672-.626-1.813-1.266-2.206-1.39-2.206-.125 0-.765.393-1.391 2.206-.531 1.534-.858 3.517-.945 5.672h4.672Zm-5.62 9.596a11.817 11.817 0 0 1-.317-.824c-.611-1.766-.984-4.018-1.076-6.435h-4.298c.43 3.319 2.666 6.078 5.691 7.259Zm17.907-.336a1.177 1.177 0 0 1 .323-1.619 1.182 1.182 0 0 1 1.622.322 1.18 1.18 0 0 1-.324 1.62 1.18 1.18 0 0 1-1.621-.323Zm2.286-15.569v9.535a1.17 1.17 0 0 1-2.338 0v-9.532c-4.003-.489-7.364-3.572-8.19-7.518H12.589a1.856 1.856 0 0 0-1.854 1.853V35.17a3.996 3.996 0 0 1 1.725-.39 4.178 4.178 0 0 1 4.168 4.053c.001.042.004.081.004.124l-.001 9.214c0 1.03-.141 2.047-.366 3.051h21.756a1.858 1.858 0 0 0 1.856-1.855v-10.12a1.169 1.169 0 0 1 2.338 0v10.12a4.197 4.197 0 0 1-4.194 4.191H15.685c-.11.706-.148 1.422-.109 2.14l.173 2.971a1.17 1.17 0 0 1-2.335.136l-.173-2.977a12.625 12.625 0 0 1 .345-3.678c.086-.41.218-.816.331-1.219.247-.892.376-1.835.376-2.76v-9.214c-.004-.979-.855-1.84-1.833-1.84-.935 0-1.725.812-1.725 1.774v6.751a1.17 1.17 0 0 1-2.339 0V32.898h-.788c-.473 0-1.076.119-1.544 1.052l-2.418 4.814a6.542 6.542 0 0 0-.091 5.78l3.077 6.51c.842 1.669 1.015 3.036.892 4.343l-.344 3.455a1.17 1.17 0 0 1-2.327-.231l.343-3.45c.114-1.204-.141-1.983-.639-3.037l-3.114-6.588a8.88 8.88 0 0 1 .119-7.841l2.412-4.803c.759-1.51 2.049-2.341 3.634-2.341h.788V13.463a4.196 4.196 0 0 1 4.193-4.189h18.903c.196-5.099 4.405-9.187 9.554-9.187 5.273 0 9.563 4.287 9.563 9.556 0 4.873-3.671 8.904-8.394 9.482ZM41.046 2.424c-3.984 0-7.225 3.238-7.225 7.219 0 3.918 3.304 7.22 7.225 7.22 3.984 0 7.225-3.239 7.225-7.22s-3.241-7.219-7.225-7.219Zm-.643 10.562a1.166 1.166 0 0 1-1.653 0l-1.944-1.943a1.17 1.17 0 0 1 1.653-1.652l1.118 1.117 3.765-3.763a1.168 1.168 0 1 1 1.654 1.652l-4.593 4.589Z"/></svg>