<svg xmlns="http://www.w3.org/2000/svg" width="61" height="50"><path fill-rule="evenodd" d="M59.843 48.624c-.917 1.144-2.517 1.29-3.808 1.29H38.651a1.184 1.184 0 0 1 0-2.369h17.383c1.425 0 1.84-.252 1.961-.403.129-.161.296-.66-.045-2.193-1.016-4.594-2.886-9.391-8.525-11.89l-5.115 7.849a1.186 1.186 0 0 1-.992.538 1.18 1.18 0 0 1-.873-.385l-4.398-4.804-4.398 4.804a1.183 1.183 0 0 1-1.866-.153l-5.115-7.849c-5.639 2.499-7.508 7.295-8.525 11.889-.34 1.534-.174 2.033-.045 2.194.121.151.536.403 1.961.403h7.23a1.184 1.184 0 1 1 0 2.369h-7.23c-1.292 0-2.892-.146-3.809-1.289-.937-1.168-.716-2.853-.42-4.19 1.328-6.002 4.21-13.063 14.687-14.991v-4.413c-2.343-2.376-3.679-5.034-3.679-7.349v-3.561c0-3.837 0-7.799 3.292-9.851.889-1.763 2.267-2.789 4.205-3.131 1.698-.302 3.596-.056 5.793.226 3.588.463 7.654.987 11.882-.814a1.183 1.183 0 0 1 1.647 1.025c.25 4.593-.219 7.937-1.432 10.221-.9 1.695-2.057 2.517-2.989 3.038v2.847c0 2.308-1.329 4.959-3.659 7.329v4.433c10.476 1.928 13.358 8.991 14.686 14.992.297 1.336.517 3.021-.42 4.188ZM43.207 29.8v-2.764c-1.813 1.282-3.673 2.03-5.17 2.03-1.491 0-3.343-.742-5.151-2.015V29.8l5.161 3.297 5.16-3.297ZM28.96 32.235l3.973 6.099 3.288-3.592-4.78-3.054a22.35 22.35 0 0 0-2.481.547Zm21.173-21.55c.856-1.612 1.264-4.085 1.215-7.365-4.236 1.335-8.237.82-11.522.396-4.389-.565-6.55-.722-7.698 1.871a1.184 1.184 0 0 1-.516.56c-1.966 1.073-2.329 3.138-2.393 6.317 1.499-.57 2.526-1.221 3.738-2.517a1.184 1.184 0 0 1 1.533-.169c3.105 2.117 6.967 3.037 13.283 3.153.797-.415 1.666-.941 2.36-2.246Zm-3.266 6.997v-2.404c-5.806-.18-9.677-1.081-12.88-3.009-1.58 1.478-3.053 2.142-4.78 2.716v2.697c0 1.754 1.225 3.984 3.279 5.967 1.889 1.822 4.12 3.047 5.551 3.047s3.661-1.225 5.551-3.047c2.053-1.983 3.279-4.213 3.279-5.967Zm-2.215 14.006-4.78 3.054 3.288 3.592 3.974-6.099a22.319 22.319 0 0 0-2.482-.547Zm-21.224-4.274c.062.441-.127.879-.49 1.136a1.188 1.188 0 0 1-1.233.079l-5.786-3.037c-2.301.652-4.797.61-7.085-.126a12.095 12.095 0 0 1-6.229-4.588C-1.27 15.377.053 7.748 5.554 3.872a12.107 12.107 0 0 1 9.111-2.048 12.117 12.117 0 0 1 7.891 4.996 12.106 12.106 0 0 1 2.223 7.411 12.321 12.321 0 0 1-2.267 6.716l.916 6.467ZM20.62 8.185a9.764 9.764 0 0 0-6.36-4.026 9.76 9.76 0 0 0-7.342 1.649c-4.433 3.124-5.499 9.273-2.376 13.706a9.777 9.777 0 0 0 11.126 3.678 1.182 1.182 0 0 1 .922.075l4.168 2.19-.66-4.662a1.185 1.185 0 0 1 .239-.895c2.643-3.384 2.759-8.201.283-11.715Zm12.35 39.36c.655 0 1.188.53 1.188 1.184 0 .655-.527 1.185-1.181 1.185h-.007a1.184 1.184 0 0 1 0-2.369Z"/></svg>