<svg xmlns="http://www.w3.org/2000/svg" width="58" height="61"><path fill-rule="evenodd" d="M57.137 12.08 45.014 57.357a4.076 4.076 0 0 1-4.989 2.882l-14.213-3.811H2.29A2.037 2.037 0 0 1 .253 54.39V13.631c0-1.126.912-2.039 2.037-2.039h21.244l2.129-7.951A4.075 4.075 0 0 1 30.651.759l23.606 6.329a4.076 4.076 0 0 1 2.88 4.992ZM2.29 13.631V54.39h30.548a2.04 2.04 0 0 0 2.037-2.039V15.668a2.039 2.039 0 0 0-2.037-2.037H2.29Zm52.677-3.625a2.027 2.027 0 0 0-1.237-.949l-23.606-6.33a2.08 2.08 0 0 0-.529-.071 2.043 2.043 0 0 0-1.966 1.512l-1.987 7.424h7.196c1.555 0 2.892.883 3.578 2.166l3.176.852 6.023-5.619 1.686.452-3.774 6.222c1.108.296 2.238.599 2.979.799l2.288-1.346 1.124.301-1.775 2.69.194 3.216-1.124-.301-1.31-2.311-2.978-.798.159 7.276-1.686-.452-2.408-7.88-2.079-.556v16.194l.131-.486 1.967.527-1.054 3.938-1.044-.281v16.156a4.064 4.064 0 0 1-3.46 4.015l7.102 1.905a2.04 2.04 0 0 0 2.494-1.442l12.124-45.276a2.032 2.032 0 0 0-.204-1.547Zm-9.209 21.199.522-1.97 1.935.512-.521 1.971-1.936-.513Zm-3.869 6.328 1.054-3.937 1.967.527-1.054 3.937-1.967-.527Zm.004-7.355.521-1.97 1.935.513-.521 1.969-1.935-.512Zm-2.78 25.594-1.967-.528 3.69-13.779 1.967.527-3.69 13.78Zm-1.085-26.619.521-1.97 1.935.513-.521 1.97-1.935-.513ZM18.582 42.162c-6.748 0-12.219-5.474-12.219-12.228 0-6.753 5.471-12.228 12.219-12.228 6.749 0 12.22 5.475 12.22 12.228 0 6.754-5.471 12.228-12.22 12.228Zm-.296-2.067c.101.002.195.029.296.029.102 0 .196-.027.296-.029.733-1.126 1.682-2.986 2.257-5.575H16.03c.575 2.591 1.526 4.451 2.256 5.575Zm3.189-7.614c.094-.801.162-1.637.162-2.547 0-.91-.067-1.746-.159-2.548h-5.791c-.093.802-.16 1.638-.16 2.548 0 .91.069 1.746.162 2.547h5.786Zm-5.784 7.173c-.657-1.296-1.316-3.018-1.742-5.134h-4.41a10.163 10.163 0 0 0 6.152 5.134Zm-7.292-9.72c0 .885.149 1.728.362 2.547h4.877a23.5 23.5 0 0 1-.147-2.547c0-.901.059-1.74.144-2.548H8.761c-.213.819-.362 1.664-.362 2.548Zm1.14-4.585h4.405c.422-2.113 1.08-3.821 1.749-5.136-2.69.804-4.9 2.67-6.154 5.136Zm9.342-5.575c-.102-.002-.196-.03-.299-.03-.101 0-.196.027-.296.03-.761 1.166-1.694 3.02-2.259 5.575h5.111c-.563-2.545-1.492-4.401-2.257-5.575Zm2.59.439c.672 1.317 1.329 3.024 1.751 5.136h4.404a10.166 10.166 0 0 0-6.155-5.136Zm7.294 9.721c0-.884-.149-1.728-.361-2.548H23.53c.085.808.144 1.647.144 2.548 0 .902-.061 1.74-.147 2.547h4.877c.212-.819.361-1.662.361-2.547Zm-5.549 4.586c-.425 2.116-1.083 3.837-1.741 5.134a10.168 10.168 0 0 0 6.151-5.134h-4.41Zm5.549 15.794H8.399v-2.038h20.366v2.038Z"/></svg>