<svg xmlns="http://www.w3.org/2000/svg" width="48" height="50"><path fill-rule="evenodd" d="M46.116 45.613v-1.76h1.761v1.76h-1.761Zm0-21.112h1.761v17.594h-1.761V24.501Zm-2.641 25.511H15.302a.88.88 0 0 1-.88-.88v-4.914l-3.779 3.776-1.245-1.243 6.162-6.158a4.1 4.1 0 0 0 0-5.794.88.88 0 0 1 0-1.244l6.163-6.158a1.609 1.609 0 0 0-2.276-2.274l-6.163 6.157-1.245-1.243 2.383-2.381v-4.035h-3.824a3.532 3.532 0 0 0-3.511 3.268l-.588 8.23a.886.886 0 0 1-.258.56l-4.402 4.398-1.245-1.244 4.169-4.166.566-7.904a5.299 5.299 0 0 1 5.269-4.902h3.824V10.426a.88.88 0 0 1 .88-.88h2.642V7.787a.88.88 0 0 1 .258-.622l1.138-1.138-1.138-1.137a.879.879 0 0 1-.258-.622V1.276a.88.88 0 0 1 .88-.88h21.129a.88.88 0 0 1 .881.88v2.992a.879.879 0 0 1-.258.622l-1.139 1.137 1.139 1.138a.88.88 0 0 1 .258.622v1.759h2.641a.88.88 0 0 1 .88.88v38.706a.88.88 0 0 1-.88.88ZM39.073 8.151 37.57 6.649a.878.878 0 0 1 0-1.243l1.503-1.502V2.156H19.704v1.748l1.503 1.502c.344.343.344.9 0 1.243l-1.503 1.502v1.395h19.369V8.151Zm3.521 3.154H16.183v14.591l2.019-2.017a3.37 3.37 0 0 1 4.766 0 3.365 3.365 0 0 1 0 4.762l-5.587 5.583a5.86 5.86 0 0 1-.576 7.612l-.622.623v5.793h26.411V11.305Zm-6.162 27.27H22.346v-1.759h14.086v1.759Zm0 3.52H22.346v-1.76h14.086v1.76Zm-9.685 3.518h-1.76v-1.76h1.76v1.76Zm3.522 0h-1.761v-1.76h1.761v1.76Zm3.522 0H32.03v-1.76h1.761v1.76Zm1.006-13.087a9.69 9.69 0 0 1-11.219-.284l1.057-1.407a7.93 7.93 0 0 0 9.25.174 7.913 7.913 0 0 0 3.109-8.708l-3.299 1.885-.802 4.006a.884.884 0 0 1-.374.559l-2.642 1.76a.908.908 0 0 1-.696.125.88.88 0 0 1-.562-.421l-3.521-6.157a.883.883 0 0 1-.089-.65l.881-3.519a.881.881 0 0 1 .681-.649l3.905-.781.567-1.699a7.924 7.924 0 0 0-8.918 4.574l-1.613-.704a9.684 9.684 0 0 1 9.618-5.778 9.682 9.682 0 0 1 8.621 7.179 9.671 9.671 0 0 1-3.954 10.495Zm-2.082-15.203-.726 2.178a.884.884 0 0 1-.663.584l-3.86.77-.66 2.639 2.878 5.032 1.554-1.035.806-4.042a.877.877 0 0 1 .426-.591l3.845-2.194a7.972 7.972 0 0 0-3.6-3.341ZM24.987 6.907h-1.761V5.148h1.761v1.759Zm3.521 0h-1.761V5.148h1.761v1.759Zm3.522 0h-1.761V5.148h1.761v1.759Zm3.521 0h-1.76V5.148h1.76v1.759ZM3.572 26.639l-.224 3.202-1.761-.124.229-3.204a8.831 8.831 0 0 1 8.782-8.17h1.183v1.76h-1.183a7.064 7.064 0 0 0-7.026 6.536Z"/></svg>