<svg xmlns="http://www.w3.org/2000/svg" width="50" height="51"><path fill-rule="evenodd" d="M47.51 44.073c-.034.063-3.57 6.396-6.693 6.396-1.295 0-2.661-1.088-3.818-2.367H19.441a.96.96 0 1 1 0-1.919h16.033a25.159 25.159 0 0 1-1.351-2.111c-1.548-2.877-2.12-5.335-2.04-8.766a.96.96 0 0 1 .876-.933c.71-.062 1.471-.254 2.244-.553a15.31 15.31 0 0 0-4.508-3.237c.179 3.235-1.576 5.356-2.691 6.701a.958.958 0 0 1-1.409.076l-5.414-5.259-5.411 5.259a.96.96 0 0 1-1.409-.075c-1.117-1.344-2.875-3.464-2.694-6.706-5.879 2.775-8.318 8.273-9.316 12.765-.272 1.227-.272 2.021-.001 2.358.256.32.968.481 2.117.481h6.281a.96.96 0 1 1 0 1.919H4.467c-1.234 0-2.761-.136-3.614-1.197-.873-1.087-.661-2.696-.377-3.976.795-3.582 2.202-6.662 4.181-9.158 2.058-2.594 4.686-4.471 7.833-5.607a21.178 21.178 0 0 1 .768-.258c-2.378-2.372-3.978-5.489-3.978-8.28v-1.508a3.179 3.179 0 0 1-1.915-2.913c0-1.353.853-2.509 2.049-2.965a11.857 11.857 0 0 1 2.821-6.505 11.934 11.934 0 0 1 5.927-3.709A1.44 1.44 0 0 1 19.553.95h3.48c.693 0 1.272.492 1.41 1.144a11.84 11.84 0 0 1 8.506 10.145 3.18 3.18 0 0 1 2.048 2.966 3.18 3.18 0 0 1-1.913 2.913v1.508c0 2.794-1.599 5.909-3.978 8.279a22.523 22.523 0 0 1 .739.249c2.812 1.009 5.212 2.611 7.161 4.786a14.548 14.548 0 0 0 3.115-2.474.962.962 0 0 1 1.392 0c2.066 2.173 4.877 3.707 7.161 3.907a.959.959 0 0 1 .876.935c.077 3.43-.494 5.887-2.04 8.765ZM27.178 35.25c.993-1.299 1.95-3.002 1.489-5.47a17.517 17.517 0 0 0-1.315-.371 12.917 12.917 0 0 1-3.109 1.699c-.344.128-.675.233-.999.321l3.934 3.821Zm-11.993.001 3.931-3.821a11.638 11.638 0 0 1-1.011-.325 12.889 12.889 0 0 1-3.095-1.696 17.6 17.6 0 0 0-1.315.372c-.46 2.471.497 4.173 1.49 5.47Zm-3.81-23.219h5.511c1.006-2.628 1.189-4.792 1.221-7.99-3.535 1.17-6.184 4.307-6.732 7.99Zm11.178-9.163h-2.52c-.006 3.715-.1 6.23-1.104 9.163h4.731c-1.007-2.933-1.1-5.448-1.107-9.163Zm1.927 1.249c.035 3.156.224 5.306 1.222 7.914h5.287a9.922 9.922 0 0 0-6.509-7.914Zm8.596 11.087c0-.691-.562-1.253-1.254-1.253H17.123c-.046.051-.101.045-.157 0h-6.424c-.693 0-1.257.562-1.257 1.253 0 .692.564 1.256 1.257 1.256h21.28c.692 0 1.254-.564 1.254-1.256Zm-1.912 4.421V18.38H11.2v1.246c0 3.651 3.54 8.175 7.575 9.681 1.774.658 3.029.659 4.799.002 4.043-1.5 7.59-6.025 7.59-9.683Zm9.652 12.851a16.161 16.161 0 0 1-3.644 2.563c-1.061.539-2.139.926-3.175 1.123.028 2.677.549 4.643 1.818 7.002 1.136 2.119 3.795 5.385 5.002 5.385 1.206 0 3.865-3.266 5.001-5.385 1.267-2.358 1.787-4.325 1.817-7.002-2.284-.435-4.774-1.779-6.819-3.686Zm.309 10.612a.959.959 0 0 1-1.294.119l-1.642-1.253a.962.962 0 0 1 1.167-1.526l.939.718 2.543-2.807a.96.96 0 0 1 1.423 1.288l-3.136 3.461Zm-26.03 3.094c.53 0 .962.43.962.96s-.427.959-.957.959h-.005a.959.959 0 1 1 0-1.919Z"/></svg>