<svg xmlns="http://www.w3.org/2000/svg" width="38" height="49"><path fill-rule="evenodd" d="M33.075 48.227H4.925a4.024 4.024 0 0 1-4.021-4.02V10.041c0-2.143 1.69-3.883 3.806-3.998L26.144.119c.319-.08.59-.124.899-.127 2.162-.022 4.021 1.757 4.021 3.953v2.077h2.011a4.024 4.024 0 0 1 4.021 4.019v34.166a4.024 4.024 0 0 1-4.021 4.02ZM29.053 3.945c0-1.233-1.219-2.183-2.392-1.884L12.332 6.022h16.721V3.945Zm6.033 6.096c0-1.108-.903-2.01-2.011-2.01H4.925a2.014 2.014 0 0 0-2.011 2.01v34.166c0 1.108.903 2.01 2.011 2.01h28.15a2.014 2.014 0 0 0 2.011-2.01V10.041ZM19 34.158c-6.098 0-11.059-4.958-11.059-11.053 0-6.096 4.961-11.054 11.059-11.054 6.098 0 11.059 4.958 11.059 11.054 0 6.095-4.961 11.053-11.059 11.053ZM10.053 22.1h3.941c.111-2.738.677-5.46 1.658-7.381a9.025 9.025 0 0 0-5.599 7.381Zm3.941 2.01h-3.941a9.025 9.025 0 0 0 5.599 7.38c-.981-1.921-1.547-4.643-1.658-7.38ZM19 14.061c-1.152 0-2.772 3.113-2.976 8.039h5.952c-.204-4.926-1.824-8.039-2.976-8.039ZM16.024 24.11c.204 4.925 1.824 8.039 2.976 8.039s2.772-3.114 2.976-8.039h-5.952Zm6.323-9.391c.982 1.921 1.548 4.643 1.659 7.381h3.941a9.028 9.028 0 0 0-5.6-7.381Zm1.659 9.391c-.111 2.737-.677 5.459-1.659 7.38a9.028 9.028 0 0 0 5.6-7.38h-3.941ZM8.715 36.221l20.11.003a1.006 1.006 0 0 1 0 2.01l-20.11-.003a1.005 1.005 0 1 1 0-2.01Zm4.021 4.023H24.8a1.004 1.004 0 1 1 0 2.009H12.736a1.004 1.004 0 1 1 0-2.009Z"/></svg>