<svg xmlns="http://www.w3.org/2000/svg" width="42" height="50"><path fill-rule="evenodd" d="m39.934 17.198 1.73 3.464a.975.975 0 0 1-.871 1.412h-2.922v12.677a.975.975 0 0 1-.974.975.976.976 0 0 0-.974.976.975.975 0 0 1-.974.975h-4.87v11.312a.975.975 0 0 1-.974.974H5.728a4.878 4.878 0 0 1-4.87-4.875V12.713a4.878 4.878 0 0 1 4.87-4.876h10.714V2.961c0-.539.437-.975.974-.975a.975.975 0 0 0 .974-.975c0-.539.437-.976.974-.976h5.845c.537 0 .974.437.974.976 0 .537.436.975.974.975a.976.976 0 0 0 .974-.975c0-.539.436-.976.974-.976h5.844c.538 0 .974.437.974.976 0 .537.437.975.974.975.538 0 .974.436.974.975v9.361h2.922a.975.975 0 0 1 .871 1.412l-1.73 3.464Zm-9.855 18.528h4.063a2.935 2.935 0 0 1 1.781-1.783V22.074h-5.844v13.652ZM6.702 9.787v14.725a.975.975 0 1 1-1.948 0V9.954a2.93 2.93 0 0 0-1.948 2.759v32.375a2.93 2.93 0 0 0 1.948 2.758V33.289a.975.975 0 1 1 1.948 0v14.724h21.429V9.787H6.702Zm29.221-6.018a2.937 2.937 0 0 1-1.781-1.783h-4.23a2.928 2.928 0 0 1-2.755 1.95 2.928 2.928 0 0 1-2.756-1.95h-4.229a2.939 2.939 0 0 1-1.782 1.783v4.068h10.715c.538 0 .974.437.974.975v3.51h5.844V3.769Zm2.051 12.993 1.243-2.489h-9.138v5.851h9.138l-1.243-2.489a.972.972 0 0 1 0-.873ZM25.209 37.677H9.624a.975.975 0 0 1 0-1.951h15.585a.976.976 0 0 1 0 1.951Zm-7.793-3.901c-4.833 0-8.766-3.938-8.766-8.776 0-4.84 3.933-8.777 8.766-8.777 4.834 0 8.767 3.937 8.767 8.777 0 4.838-3.933 8.776-8.767 8.776Zm-6.747-9.752h2.874c.088-1.929.439-3.804 1.042-5.232a6.846 6.846 0 0 0-3.916 5.232Zm2.874 1.951h-2.874a6.843 6.843 0 0 0 3.916 5.231c-.603-1.427-.954-3.302-1.042-5.231Zm3.873-7.801c-.522 0-1.741 2.043-1.924 5.85h3.849c-.183-3.807-1.402-5.85-1.925-5.85Zm-1.924 7.801c.183 3.807 1.402 5.851 1.924 5.851.523 0 1.742-2.045 1.925-5.852l-3.849.001Zm4.756-7.183c.603 1.428.953 3.303 1.042 5.232h2.874a6.846 6.846 0 0 0-3.916-5.232Zm1.042 7.182c-.088 1.929-.439 3.805-1.042 5.232a6.843 6.843 0 0 0 3.916-5.231l-2.874-.001Zm-9.718 13.653h11.689a.975.975 0 0 1 0 1.95H11.572a.974.974 0 0 1 0-1.95Zm-5.844-9.751a.975.975 0 1 1 .002-1.95.975.975 0 0 1-.002 1.95Z"/></svg>