<svg xmlns="http://www.w3.org/2000/svg" width="61" height="60"><path fill-rule="evenodd" d="M58.82 26.87 45 40.456V60H0V-.001h45v25.347l7-6.347c1.368-1.368 2.523-1.392 3.891-.023l2.929 2.929c1.368 1.37 2.316 2.401 0 4.965ZM42 27.999V3H3v54h39V43.999c-1.231 1.217-2.04 1.55-2.403 1.72l-9.924 4.633a1.756 1.756 0 0 1-2.332-2.333S31.142 40.845 32 39c.472-1.126 10-10.409 10-10.409v-.592Zm5-1L35 39l-4 7.999L39 43l12.42-12.581-.42-.42-3.523-3.477-.477.477Zm10-3-3.433-3.362-4.233 4.028 3.792 3.712 4.234-4.017-.36-.361ZM36 15H9c-.969 0-1-.031-1-1.001C8 13.03 8.031 12 9 12h26c.969 0 2 .03 2 1 0 .969-.031 2-1 2Zm-6 5.999c.969 0 1.661.542 1.661 1.511 0 .97-.692 1.489-1.661 1.489H9c-.969 0-1.432-.519-1.432-1.489 0-.969.463-1.511 1.432-1.511h21Zm-21 9h15l.293.117c.969 0 1.754.786 1.754 1.755 0 .97-1.078 1.128-2.047 1.128H9c-.969 0-1.432-.158-1.432-1.128 0-.969.463-1.872 1.432-1.872Z"/></svg>