<svg xmlns="http://www.w3.org/2000/svg" width="56" height="56"><path fill-rule="evenodd" d="M55.378 7.083a6.426 6.426 0 0 0-1.893-4.639A6.411 6.411 0 0 0 48.917.551h-.069a6.414 6.414 0 0 0-4.597 1.988l-9.606 10.013L9.51 4.232l-7.424 7.425 21.006 12.938-8.643 9.009-6.784-1.114-7.168 7.17 11.69 4.096 4.094 11.692 7.168-7.169-1.114-6.786 9.006-8.646 12.935 21.012 7.423-7.425L43.38 21.29l10.01-9.609a6.418 6.418 0 0 0 1.988-4.598Zm-4.217 2.274L39.687 20.374l8.332 25.186-3.139 3.14-12.889-20.94-13.107 12.582 1.121 6.828-2.379 2.379-2.913-8.32-8.319-2.915 2.379-2.379 6.826 1.121 12.578-13.111L7.243 11.052l3.139-3.14 25.18 8.335L46.574 4.769a3.211 3.211 0 0 1 2.307-.998h.034c.867 0 1.68.337 2.294.95.622.622.959 1.45.95 2.329a3.215 3.215 0 0 1-.998 2.307Z"/></svg>