<svg xmlns="http://www.w3.org/2000/svg" width="92" height="30"><path fill-rule="evenodd" d="M91.381 13.832c-3.322 2.77-7.142 4.975-10.702 7.348-.448.326-1.142-.119-1.238-.547-.489-2.516-1.151-5.142-.899-7.674l-.087-.055C68.358 5.342 52.412 7.866 40.952 9.835c-13.191 2.206-26.643 6.571-36.645 15.712-1.051 1.287-2.157 2.659-3.09 4.142-.438.699-1.393.088-1.041-.666l.493-.785C.322 28.016.226 27.587.5 27.15c.69-.905 1.554-1.697 2.331-2.547C18.386 1.393 56.137-6.394 79.986 6.785c.096-1.896.334-3.824.343-5.776-.05-.888 1.029-1.055 1.581-.579 3.957 3.388 6.547 7.983 9.553 12.108.292.309.42.881-.082 1.294ZM81.942 2.898c-.192 1.467-.558 2.824-.663 4.349-.1.546-.58.73-.895.65-.165.262-.448.325-.763.246-22.941-9.783-48.72-6.331-67.089 8.961C21.383 12.12 31.8 9.486 41.473 7.843c7.092-1.215 14.169-1.826 21.297-1.548 5.56.252 12.053 1.348 15.808 5.831.179-.865 1.44-.548 1.458.198.196 2.207.447 4.326.84 6.412 2.915-1.928 5.917-3.801 8.627-5.984-2.444-3.277-4.669-6.902-7.561-9.854Z"/></svg>