<svg xmlns="http://www.w3.org/2000/svg" width="52" height="46"><path fill-rule="evenodd" d="M41.13 21.484h-5.425l-5.609 5.618a1.514 1.514 0 0 1-2.583-1.073v-4.653c-5.126-.738-9.078-5.165-9.078-10.499 0-5.849 4.751-10.606 10.591-10.606H41.13c5.896 0 10.692 4.757 10.692 10.606 0 5.848-4.796 10.607-10.692 10.607Zm0-18.183H29.026c-4.171 0-7.565 3.399-7.565 7.576 0 4.178 3.394 7.576 7.565 7.576.836 0 1.513.678 1.513 1.516v2.402l3.469-3.475a1.517 1.517 0 0 1 1.07-.443h6.052c4.227 0 7.666-3.398 7.666-7.576 0-4.177-3.439-7.576-7.666-7.576Zm0 9.091a1.514 1.514 0 0 1-1.513-1.515c0-.837.677-1.516 1.513-1.516.836 0 1.513.679 1.513 1.516s-.677 1.515-1.513 1.515Zm-6.052 0a1.514 1.514 0 0 1-1.513-1.515c0-.837.677-1.516 1.513-1.516.836 0 1.513.679 1.513 1.516s-.677 1.515-1.513 1.515Zm-6.052 0a1.514 1.514 0 0 1-1.513-1.515c0-.837.677-1.516 1.513-1.516.836 0 1.513.679 1.513 1.516s-.677 1.515-1.513 1.515Zm-16.539 10.13c1.943 4.066 6.829 8.915 10.962 10.879L27.3 30.83c.389-.26.876-.325 1.319-.177l9.057 3.03a1.516 1.516 0 0 1 1.033 1.438v6.06c0 2.508-2.027 4.546-4.517 4.546-8.368 0-16.965-3.786-23.585-10.389C3.979 28.729.178 20.136.178 11.765c0-2.495 2.036-4.525 4.539-4.525h6.052c.651 0 1.229.417 1.435 1.035l3.026 9.07c.148.444.083.932-.176 1.321l-2.567 3.856ZM9.51 21.53l2.615-3.927-2.446-7.332H4.717c-.849 0-1.513.656-1.513 1.494 0 15.9 15.06 30.932 30.988 30.932.836 0 1.491-.666 1.491-1.516v-4.969l-7.32-2.45-3.923 2.619a1.513 1.513 0 0 1-1.402.147c-2.529-1.014-5.372-3.009-8.004-5.616-2.65-2.626-4.664-5.459-5.67-7.978a1.52 1.52 0 0 1 .146-1.404Z"/></svg>