<svg xmlns="http://www.w3.org/2000/svg" width="34" height="46"><path fill-rule="evenodd" d="M20.999 33.799a19.348 19.348 0 0 0 12.625-5.668 1.314 1.314 0 0 0 0-1.859l-2.902-2.899a14.007 14.007 0 0 0 3.172-7.552A14.009 14.009 0 0 0 30.81 5.47 14.033 14.033 0 0 0 21.304.329a14.037 14.037 0 0 0-10.469 3.172L7.93.599a1.315 1.315 0 0 0-1.86 0A19.329 19.329 0 0 0 .363 14.365 19.327 19.327 0 0 0 6.07 28.131a19.348 19.348 0 0 0 12.298 5.648v2.842c0 .04.002.079.005.117h-5.244c-3.882 0-7.042 3.157-7.042 7.036 0 .727.59 1.315 1.316 1.315h24.561c.726 0 1.315-.588 1.315-1.315 0-3.879-3.159-7.036-7.042-7.036h-5.243c.003-.038.005-.077.005-.117v-2.822Zm9.448 8.661H8.919a4.418 4.418 0 0 1 4.21-3.092h13.108a4.416 4.416 0 0 1 4.21 3.092Zm-1.68-35.333a11.386 11.386 0 0 1 2.571 7.173l-5.357-3.03a3.675 3.675 0 0 0-4.151.347l-.472.382-.721-.267a1.055 1.055 0 0 1-.613-.589 1.051 1.051 0 0 1 .014-.851l1.606-3.514a3.668 3.668 0 0 0-.458-3.816 11.415 11.415 0 0 1 7.581 4.165ZM17.87 3.05l1.238 1.523c.257.316.312.743.142 1.113l-1.606 3.515a3.705 3.705 0 0 0-.051 2.952 3.707 3.707 0 0 0 2.131 2.045l1.425.528c.436.161.925.08 1.286-.213l1.054-.855a1.058 1.058 0 0 1 1.195-.1l6.317 3.573a11.404 11.404 0 0 1-3.911 6.148 11.411 11.411 0 0 1-4.398 2.209h-.001l-3.248-3.997a1.391 1.391 0 0 1-.305-1.026l.093-.897a4.033 4.033 0 0 0-6.55-3.543l-3.43 2.784c-1.922-4.58-.698-10.072 3.352-13.358A11.422 11.422 0 0 1 17.87 3.05Zm-.47 20.099 2.186 2.689a11.474 11.474 0 0 1-9.023-4.706l3.777-3.066a1.398 1.398 0 0 1 2.273 1.23l-.093.898a4.005 4.005 0 0 0 .88 2.955ZM2.994 14.365c0-4.057 1.426-7.895 4.041-10.942l1.938 1.936c-4.212 5.074-4.403 12.594-.09 17.901 2.788 3.43 6.866 5.21 10.977 5.21 3.129 0 6.277-1.031 8.89-3.151l.108-.09 1.939 1.937a16.734 16.734 0 0 1-10.95 4.038c-9.293 0-16.853-7.554-16.853-16.839Z"/></svg>