<svg xmlns="http://www.w3.org/2000/svg" width="40" height="40"><path fill-rule="evenodd" d="M38.765 39.933H1.234a1.167 1.167 0 0 1-1.167-1.169V3.725c0-.645.522-1.168 1.167-1.168h3.582V1.234a1.167 1.167 0 1 1 2.336 0v1.323h4.672V1.234a1.167 1.167 0 1 1 2.336 0v1.323h4.672V1.234a1.167 1.167 0 1 1 2.336 0v1.323h4.672V1.234a1.167 1.167 0 1 1 2.336 0v1.323h4.672V1.234a1.167 1.167 0 1 1 2.336 0v1.323h3.581c.646 0 1.168.523 1.168 1.168v35.039c0 .646-.522 1.169-1.168 1.169ZM37.597 4.894h-2.413v1.167a1.168 1.168 0 1 1-2.336 0V4.894h-4.672v1.167a1.168 1.168 0 1 1-2.336 0V4.894h-4.672v1.167a1.168 1.168 0 1 1-2.336 0V4.894H14.16v1.167a1.168 1.168 0 1 1-2.336 0V4.894H7.152v1.167a1.168 1.168 0 1 1-2.336 0V4.894H2.402v4.671h35.195V4.894Zm0 7.007H2.402v25.696h35.195V11.901ZM8.32 16.573h4.672c.645 0 1.168.523 1.168 1.168v4.672c0 .645-.523 1.168-1.168 1.168H8.32a1.168 1.168 0 0 1-1.168-1.168v-4.672c0-.645.523-1.168 1.168-1.168Zm1.168 4.672h2.336v-2.336H9.488v2.336Zm-.427 8.254.65.533 2.375-2.921a1.168 1.168 0 0 1 1.812 1.473l-3.114 3.831a1.168 1.168 0 0 1-1.647.167L7.58 31.305a1.167 1.167 0 1 1 1.481-1.806Zm8.603-12.926h4.672c.645 0 1.168.523 1.168 1.168v4.672c0 .645-.523 1.168-1.168 1.168h-4.672a1.168 1.168 0 0 1-1.168-1.168v-4.672c0-.645.523-1.168 1.168-1.168Zm1.168 4.672h2.336v-2.336h-2.336v2.336Zm-1.168 4.594h4.672c.645 0 1.168.522 1.168 1.168v4.672c0 .645-.523 1.168-1.168 1.168h-4.672a1.168 1.168 0 0 1-1.168-1.168v-4.672c0-.646.523-1.168 1.168-1.168Zm1.168 4.672h2.336v-2.336h-2.336v2.336Zm8.176-13.938h4.672c.645 0 1.168.523 1.168 1.168v4.672c0 .645-.523 1.168-1.168 1.168h-4.672a1.168 1.168 0 0 1-1.168-1.168v-4.672c0-.645.523-1.168 1.168-1.168Zm1.168 4.672h2.336v-2.336h-2.336v2.336Zm-1.168 4.594h4.672c.645 0 1.168.522 1.168 1.168v4.672c0 .645-.523 1.168-1.168 1.168h-4.672a1.168 1.168 0 0 1-1.168-1.168v-4.672c0-.646.523-1.168 1.168-1.168Zm1.168 4.672h2.336v-2.336h-2.336v2.336Z"/></svg>