<svg xmlns="http://www.w3.org/2000/svg" width="44" height="41"><path fill-rule="evenodd" d="M37.675.518h-7.179a5.588 5.588 0 0 0-5.328 3.92 17.606 17.606 0 0 0-6.919-1.423C8.598 3.015.746 10.858.746 20.499c0 9.64 7.852 17.483 17.503 17.483 2.379 0 4.746-.49 6.919-1.422a5.588 5.588 0 0 0 5.328 3.92h7.179c3.076 0 5.579-2.5 5.579-5.573V6.091A5.582 5.582 0 0 0 37.675.518Zm3.078 27.647-5.417 3.704v-4.606l5.417-3.702v4.604Zm-7.918-16.166v4.607l-5.417-3.704V8.297l5.417 3.702ZM18.249 22.58a2.085 2.085 0 0 1-2.084-2.081 2.085 2.085 0 0 1 4.168 0 2.085 2.085 0 0 1-2.084 2.081Zm6.668-3.33h-2.258a4.506 4.506 0 0 0-.336-.846l2.594-2.591v3.437Zm-2.258 2.498h2.258v3.853l-2.742-2.739c.208-.345.371-.719.484-1.114Zm4.759-5.819 5.417 3.702v4.605l-5.417-3.702v-4.605Zm-6.803.649a4.61 4.61 0 0 0-1.116-.484v-5.507a9.968 9.968 0 0 1 4.999 2.112l-3.883 3.879Zm-3.616-.484a4.587 4.587 0 0 0-1.115.484l-3.881-3.876a9.965 9.965 0 0 1 4.996-2.115v5.507Zm-6.738-1.6 3.914 3.91a4.572 4.572 0 0 0-.335.846H8.325a9.937 9.937 0 0 1 1.936-4.756Zm3.579 7.254c.112.395.275.769.484 1.114l-3.88 3.876a9.933 9.933 0 0 1-2.119-4.99h5.515Zm2.312 2.821c.268.137.551.251.847.334v5.508a9.965 9.965 0 0 1-4.762-1.933l3.915-3.909Zm3.347.334c.296-.083.58-.197.848-.334l3.917 3.912a9.985 9.985 0 0 1-4.764 1.93v-5.508h-.001Zm7.919-1.342 5.417 3.702v4.606l-5.417-3.704v-4.604Zm13.335-3.027-5.417 3.702v-4.605l5.417-3.702v4.605Zm0-7.632-5.417 3.704v-4.607l5.417-3.702v4.605Zm-.094-7.567-5.323 3.638V3.015h2.339c1.436 0 2.646.989 2.984 2.32Zm-10.163-2.32h2.339v5.958l-5.323-3.638a3.084 3.084 0 0 1 2.984-2.32ZM3.246 20.499c0-8.263 6.731-14.986 15.003-14.986 2.347 0 4.589.525 6.668 1.559v2.862a12.488 12.488 0 0 0-6.668-1.923c-6.893 0-12.502 5.602-12.502 12.488 0 6.886 5.609 12.488 12.502 12.488 2.379 0 4.685-.674 6.668-1.924v2.862a14.839 14.839 0 0 1-6.668 1.56c-8.272 0-15.003-6.723-15.003-14.986Zm24.172 14.408v-3.715l5.417 3.703v3.087h-2.339a3.08 3.08 0 0 1-3.078-3.075Zm10.257 3.075h-2.339v-3.087l5.417-3.703v3.715a3.08 3.08 0 0 1-3.078 3.075Z"/></svg>