<svg xmlns="http://www.w3.org/2000/svg" width="41" height="41"><path fill-rule="evenodd" d="M37.738 37.1a10.548 10.548 0 0 1-7.477 3.097c-1.796 0-3.598-.456-5.221-1.378L4.898 27.47l-.004-.002A8.25 8.25 0 0 1 .73 20.312a8.23 8.23 0 0 1 3.559-6.775l.002-.001 17.53-12.414.004-.002.01-.007a5.873 5.873 0 0 1 8.715 2.514l9.417 21.797v.001c1.683 3.907.893 8.553-2.229 11.675ZM3.064 20.312a5.892 5.892 0 0 0 5.89 5.876c3.239 0 5.889-2.635 5.889-5.876 0-3.24-2.65-5.907-5.889-5.907-3.271 0-5.89 2.691-5.89 5.907ZM27.65 3.482c-1.412-1.412-3.559-1.426-4.984 0a3.505 3.505 0 0 0 0 4.986c1.335 1.335 3.585 1.399 4.984 0 1.42-1.421 1.379-3.606 0-4.986Zm2.609 5.397a5.964 5.964 0 0 1-1.638 1.827h-.001a5.88 5.88 0 0 1-7.616-.592 5.88 5.88 0 0 1-1.715-4.32l-9.031 6.396c3.917.627 6.919 4.03 6.919 8.122 0 3.799-2.588 7.005-6.093 7.946l9.356 5.272a10.578 10.578 0 0 1-.719-3.135 10.573 10.573 0 0 1 3.065-8.252c3.41-3.411 8.481-3.942 12.387-1.892L30.259 8.879Zm5.818 14.926a8.194 8.194 0 0 0-11.63 0 8.193 8.193 0 0 0 0 11.633 8.227 8.227 0 0 0 10.662.83c4.156-3.037 4.476-8.953.968-12.463Zm-9.969 9.971a5.883 5.883 0 0 1 0-8.309 5.88 5.88 0 0 1 8.307 0c2.249 2.249 2.291 6.019 0 8.309-2.269 2.271-6.037 2.271-8.307 0Zm6.646-6.648a3.528 3.528 0 0 0-4.984 0c-1.374 1.376-1.416 3.571 0 4.987a3.528 3.528 0 0 0 4.984 0 3.532 3.532 0 0 0 0-4.987Zm-3.323 3.325a1.175 1.175 0 1 1 1.662 0c-.438.438-1.224.438-1.662 0ZM24.327 6.79c-.459-.459-.417-1.244 0-1.662a1.175 1.175 0 0 1 1.661 1.662c-.437.438-1.223.438-1.661 0ZM8.954 23.807c-1.944 0-3.525-1.551-3.525-3.495a3.53 3.53 0 0 1 3.525-3.526 3.53 3.53 0 0 1 3.524 3.526c0 1.944-1.581 3.495-3.524 3.495Zm0-4.67a1.19 1.19 0 0 0-1.191 1.175 1.19 1.19 0 0 0 1.191 1.175 1.19 1.19 0 0 0 1.19-1.175 1.19 1.19 0 0 0-1.19-1.175Z"/></svg>