<svg xmlns="http://www.w3.org/2000/svg" width="41" height="41"><path fill-rule="evenodd" d="M39.774 7.794 23.742 23.797c-.018.018-.042.023-.06.04-.064.057-.136.096-.21.139-.074.043-.145.086-.224.113-.023.008-.04.026-.065.033L16.652 25.9a1.26 1.26 0 0 1-1.221-.324 1.257 1.257 0 0 1-.324-1.221l1.781-6.518c.007-.027.027-.045.036-.07.027-.08.068-.151.112-.224.042-.073.081-.142.135-.202.017-.018.023-.044.042-.062L33.244 1.276c1.11-1.105 3.047-1.11 4.157 0l2.373 2.368a2.936 2.936 0 0 1 0 4.15ZM18.118 22.893l2.311-.629-1.681-1.676-.63 2.305ZM37.995 5.424 35.62 3.053c-.215-.213-.379-.213-.593 0L19.885 18.167l2.968 2.964L37.995 6.017a.42.42 0 0 0 0-.593ZM27 2.999H5c-1.157 0-2 .845-2 2v22h8c1.62 0 3 1.383 3 3v8h15c1.157 0 2-.845 2-2v-15c-.004-.694.462-1.977 1.565-1.977 1.099 0 1.435 1.405 1.435 1.977v15C34 38.542 31.546 41 29 41H12L0 28.999v-24C0 2.456 2.452 0 5 0h22c.695 0 1.992.453 1.992 1.513 0 1.079-1.296 1.485-1.992 1.486Zm-16 33v-5c0-.602-.451-1-1-1H5l6 6Z"/></svg>