<svg xmlns="http://www.w3.org/2000/svg" width="46" height="39"><path fill-rule="evenodd" d="M42.101 18.16h-4.548c0-2.499.101-.983.03-4.681-.076-3.868-3.29-7.143-7.306-7.143h-1.82V3.607h2.729V.879H23v2.728h2.729v2.729H23v15.462L8.447.879H.26v10.914h4.548V9.065H2.989V3.607h3.639l3.638 19.101H.26v11.825h4.548s.448.024.581.024c1.469 5.494 9.048 5.49 10.503.013l-.169-.037 12.608.012c1.471 5.506 9.05 5.502 10.503.014l3.267-.026c2.233 0 3.636-1.655 3.636-3.886v-8.092c0-2.23-1.403-4.395-3.636-4.395ZM30.329 9.07c2.525 0 4.448 2.117 4.495 4.542.037 1.895-.002 2.612 0 2.729v1.819h-9.095V9.065l4.6.005ZM10.45 8.344l9.821 14.364h-7.276L10.45 8.344Zm.197 27.698a2.702 2.702 0 0 1-2.699-2.698c.148-3.578 5.25-3.577 5.398 0a2.702 2.702 0 0 1-2.699 2.698ZM23 31.804s-5.795-.009-7.182-.009c-1.551-5.088-8.788-5.098-10.342.004-.504 0-2.487.005-2.487.005v-6.367H23v6.367Zm10.591 4.238a2.702 2.702 0 0 1-2.699-2.698c.148-3.578 5.25-3.577 5.398 0a2.702 2.702 0 0 1-2.699 2.698Zm8.51-4.238-3.338-.002c-1.562-5.099-8.777-5.119-10.347.01-.641 0-2.687-.008-2.687-.008V20.889h15.463c1.415 0 1.846.923 1.846 1.666l-.027 2.882h-2.729v2.729h2.729l.027 2.481c0 .744-.192 1.157-.937 1.157Z"/></svg>