<svg xmlns="http://www.w3.org/2000/svg" width="39" height="41"><path fill-rule="evenodd" d="M37.083 6.442h-2.226a1.187 1.187 0 0 0 0 2.373h2.226a1.186 1.186 0 0 1 1.086 1.661 7.114 7.114 0 0 1-12.679.711H12.999A7.114 7.114 0 0 1 .32 10.476c-.16-.367-.125-.79.095-1.124.219-.336.591-.537.991-.537h2.226a1.187 1.187 0 0 0 0-2.373H1.406A1.186 1.186 0 0 1 .32 4.782a7.114 7.114 0 0 1 12.679-.711H25.49a7.114 7.114 0 0 1 12.679.711 1.186 1.186 0 0 1-1.086 1.66ZM31.65 2.885a4.745 4.745 0 0 0-4.347 2.847c-.189.432-.615.71-1.086.71H12.272c-.471 0-.897-.278-1.086-.71a4.744 4.744 0 0 0-7.484-1.661 3.562 3.562 0 0 1 3.486 3.558 3.561 3.561 0 0 1-3.486 3.557 4.74 4.74 0 0 0 7.484-1.66 1.185 1.185 0 0 1 1.086-.711h13.945c.471 0 .897.279 1.086.711a4.74 4.74 0 0 0 7.484 1.66 3.56 3.56 0 0 1-3.485-3.557 3.561 3.561 0 0 1 3.485-3.558 4.739 4.739 0 0 0-3.137-1.186ZM5.717 25.664c.287-.543 2.64-4.981 3.146-5.943.866-1.646 2.479-2.629 4.314-2.629h12.509c1.836 0 3.45.984 4.316 2.632l3.052 5.804a4.797 4.797 0 0 1 2.469 4.241v8.158a2.967 2.967 0 0 1-2.962 2.964h-3.559a2.966 2.966 0 0 1-2.961-2.964v-1.78H12.844v1.78a2.967 2.967 0 0 1-2.962 2.964H6.324a2.967 2.967 0 0 1-2.963-2.964l.003-8.093c.002-1.763.887-3.299 2.353-4.17Zm22.187-4.837c-.456-.866-1.264-1.363-2.218-1.363H13.177c-.967 0-1.754.484-2.217 1.362-.506.961-1.806 3.434-1.941 3.685 2.856-.689 6.552-1.082 10.426-1.082 1.059 0 6.282.206 10.396 1.085l-1.937-3.687Zm.507 17.1c0 .321.271.591.591.591h3.559c.32 0 .591-.27.591-.591v-2.482a4.875 4.875 0 0 1-2.525.702h-2.216v1.78Zm-22.679 0c0 .321.271.591.592.591h3.558c.321 0 .592-.27.592-.591v-1.78H8.255a4.875 4.875 0 0 1-2.523-.698v2.478Zm.732-4.897c.479.48 1.115.744 1.791.744h22.372a2.518 2.518 0 0 0 2.523-2.504l.002-1.504c.002-1.097-.647-2.003-1.692-2.364-3.488-1.207-10.121-1.601-12.015-1.601-4.893 0-9.426.639-12.124 1.71-.992.393-1.585 1.263-1.587 2.327l-.002 1.431a2.473 2.473 0 0 0 .732 1.761Zm2.824-3.995c.653 0 1.186.532 1.186 1.185 0 .654-.533 1.187-1.186 1.187a1.187 1.187 0 0 1 0-2.372Zm4.741-.005h10.826a1.186 1.186 0 0 1 0 2.372H14.029a1.186 1.186 0 0 1 0-2.372Zm15.567.001c.653 0 1.186.533 1.186 1.186 0 .653-.533 1.185-1.186 1.185a1.188 1.188 0 0 1-1.185-1.185c0-.653.533-1.186 1.185-1.186Z"/></svg>