<svg xmlns="http://www.w3.org/2000/svg" width="46" height="44"><path fill-rule="evenodd" d="M44.137 16.768h-2.719a1.316 1.316 0 1 1 0-2.631h2.719a1.315 1.315 0 0 1 0 2.631Zm-2.251-10.7-2.278 1.315c-.587.339-1.403.197-1.786-.463-.337-.581-.239-1.405.47-1.815l2.279-1.316a1.316 1.316 0 0 1 1.315 2.279Zm-2.278 17.453 2.278 1.316a1.315 1.315 0 1 1-1.315 2.277l-2.279-1.315a1.315 1.315 0 0 1 1.316-2.278Zm-10.03 4.807v4.225h1.315a1.315 1.315 0 1 1 0 2.631h-1.448a6.597 6.597 0 0 1-5.13 5.129v1.448a1.315 1.315 0 1 1-2.631 0v-1.448a6.597 6.597 0 0 1-5.129-5.129h-1.448a1.316 1.316 0 1 1 0-2.631h1.315v-4.226c-5.416-2.776-8.813-8.797-7.673-15.428A14.39 14.39 0 0 1 23 .984c7.91.007 14.471 6.38 14.471 14.468 0 5.45-3.071 10.412-7.893 12.876ZM23 37.814c1.715 0 3.177-1.1 3.72-2.632h-7.441A3.954 3.954 0 0 0 23 37.814Zm-.029-34.196a11.738 11.738 0 0 0-11.629 9.727c-.934 5.43 1.914 10.753 6.923 12.946.479.209.788.683.788 1.205v5.057h7.894v-5.057c0-.522.309-.996.787-1.205a11.84 11.84 0 0 0 7.106-10.839c0-6.561-5.304-11.834-11.869-11.834Zm4.135 13.842.529 3.081a1.316 1.316 0 0 1-1.909 1.386l-2.767-1.454-2.767 1.454a1.315 1.315 0 0 1-1.909-1.386l.529-3.081-2.239-2.182a1.315 1.315 0 0 1 .729-2.243l3.094-.45 1.383-2.803a1.316 1.316 0 0 1 2.36 0l1.383 2.803 3.094.45a1.316 1.316 0 0 1 .729 2.243l-2.239 2.182Zm-2.647-2.371a1.317 1.317 0 0 1-.99-.72l-.51-1.033-.51 1.033a1.319 1.319 0 0 1-.99.72l-1.141.165.826.805c.309.302.451.737.378 1.164l-.195 1.136 1.02-.537c.192-.101.402-.15.612-.15.21 0 .421.049.612.15l1.02.537-.195-1.136a1.313 1.313 0 0 1 .379-1.164l.824-.805-1.14-.165ZM7.708 25.799l-2.279 1.315a1.315 1.315 0 1 1-1.316-2.277l2.279-1.316a1.316 1.316 0 0 1 1.316 2.278ZM6.392 7.383 4.113 6.068a1.315 1.315 0 1 1 1.316-2.279l2.279 1.316a1.316 1.316 0 0 1-1.316 2.278Zm-.494 8.069c0 .727-.589 1.316-1.316 1.316H1.863a1.316 1.316 0 0 1 0-2.631h2.719c.727 0 1.316.589 1.316 1.315Z"/></svg>