<svg xmlns="http://www.w3.org/2000/svg" width="43" height="43"><path fill-rule="evenodd" d="M16.578 41.553C3.961 38.954-3.124 24.979 1.928 13.169 7.665-.654 25.483-4.314 35.869 6.619c1.446 1.618-.801 3.776-2.358 2.27C22.646-2.654 3.477 5.616 3.569 21.303c0 8.122 5.506 15.123 13.391 17.022a1.637 1.637 0 0 1-.382 3.228Zm25.605-31.295V5.595a1.636 1.636 0 0 0-3.272 0v4.663c0 .903-.734 1.636-1.636 1.636h-4.664a1.637 1.637 0 0 0 0 3.273h4.664a4.913 4.913 0 0 0 4.908-4.909ZM36.865 27.93c0 1.131.916 2.046 2.046 2.046 2.71-.101 2.708-3.992 0-4.091-1.13 0-2.046.916-2.046 2.045Zm-3.517 5.973c0 1.13.915 2.045 2.045 2.045 2.71-.101 2.709-3.991 0-4.09-1.13 0-2.045.915-2.045 2.045Zm-5.4 4.172c0 1.13.916 2.046 2.046 2.046 2.71-.1 2.708-3.991 0-4.091-1.13 0-2.046.916-2.046 2.045Zm-6.79 1.964c0 1.13.916 2.046 2.045 2.046 2.711-.101 2.709-3.992 0-4.092a2.046 2.046 0 0 0-2.045 2.046Zm.082-21.353-.067.001-4.757-4.685a1.636 1.636 0 1 0-2.296 2.332l4.675 4.604a2.456 2.456 0 0 0 2.445 2.656c3.252-.12 3.251-4.788 0-4.908Z"/></svg>