<svg xmlns="http://www.w3.org/2000/svg" width="42" height="43"><path fill-rule="evenodd" d="M41.057 31.526a1.235 1.235 0 0 0-.617-.734l-3.935-2.022V16.991c0-.683-.554-1.237-1.238-1.237h-2.465V11.28c0-.682-.554-1.236-1.238-1.236h-6.607V1.269c0-.682-.554-1.236-1.238-1.236h-6.12c-.683 0-1.237.554-1.237 1.236v8.775H9.754c-.683 0-1.238.554-1.238 1.236v4.474H6.051c-.683 0-1.237.554-1.237 1.237V28.77L.878 30.792a1.233 1.233 0 0 0-.522 1.688l4.942 9.106a1.24 1.24 0 0 0 1.089.648h28.545c.454 0 .872-.249 1.088-.648l4.943-9.106c.158-.292.192-.636.094-.954ZM22.481 2.506v2.492h-3.644V2.506h3.644Zm-3.644 4.966h3.644v2.572h-3.644V7.472Zm-7.845 5.044h19.334v3.238H10.992v-3.238Zm-3.703 5.711h26.74v9.271L21.226 20.92a1.238 1.238 0 0 0-1.133 0L7.289 27.498v-9.271ZM3.135 32.413l16.286-8.367V39.76H7.124l-3.989-7.347Zm31.06 7.347H21.897V24.046l16.286 8.367-3.988 7.347Z"/></svg>