<svg xmlns="http://www.w3.org/2000/svg" width="44" height="43"><path fill-rule="evenodd" d="M42.285 1.296C41.28.291 39.543.193 37.261 1.01c-1.569.563-3.215 1.506-4.003 2.293l-6.324 6.325L6.115 6.357.818 11.655l17.308 6.78-5.557 5.557-7.888.462-3.782 3.782 8.56 4.131-2.398 2.398 1.755 1.755 2.395-2.395 4.134 8.556 3.782-3.782.462-7.887 5.65-5.652 6.779 17.306 5.297-5.297-3.269-20.814 6.232-6.233c.787-.787 1.73-2.433 2.293-4.002.818-2.282.719-4.019-.286-5.024Zm-37.03 9.431 1.722-1.721 17.785 2.793-4.72 4.721-14.787-5.793Zm29.412 25.78-1.722 1.722-5.79-14.783 4.719-4.721 2.793 17.782Zm5.568-31.025c-.475 1.323-1.258 2.632-1.712 3.086L17.166 29.924l-.462 7.888-.644.644-2.991-6.189 2.158-2.158-1.755-1.755-2.154 2.154-6.193-2.988.643-.644 7.888-.461L35.013 5.058c.454-.454 1.763-1.237 3.086-1.712 1.501-.538 2.298-.428 2.431-.295s.243.929-.295 2.431Z"/></svg>