<svg xmlns="http://www.w3.org/2000/svg" width="39" height="44"><path fill-rule="evenodd" d="M35.98 38.661v5.044h-7.473v-5.044H10.612v5.032H3.138v-5.032H.617V.698h37.882v37.963H35.98Zm-4.955 2.524h2.436v-2.524h-2.436v2.524Zm-25.368-.011h2.436v-2.513H5.657v2.513Zm-2.522-12.68h3.988c.638 0 1.209-.329 1.529-.881a1.746 1.746 0 0 0 .071-1.634H3.135v2.515Zm29.158-5.035-2.18-9.317H8.943l-2.129 9.317h25.479Zm-29.158 0H4.23l.512-2.239H3.135v2.239ZM35.98 3.218H3.135V18.7h2.183l1.617-7.078H32.11l1.656 7.078h2.214V3.218Zm0 18.002h-1.624l.524 2.239h1.1V21.22Zm0 4.759h-5.537a1.747 1.747 0 0 0 .072 1.634c.319.552.891.881 1.528.881h3.937v-2.515Zm0 5.034h-3.937a4.244 4.244 0 0 1-3.708-2.137 4.249 4.249 0 0 1-.515-2.897H11.347a4.243 4.243 0 0 1-.516 2.897 4.242 4.242 0 0 1-3.708 2.137H3.135v5.129H35.98v-5.129Zm-11.861 2.075h-9.163v-2.52h9.163v2.52Z"/></svg>