<svg xmlns="http://www.w3.org/2000/svg" width="46" height="47"><path fill-rule="evenodd" d="M0 47V0h13v34h33v13H0Zm11-21.001H8v-2h3v-5H8V17h3v-5.001H8v-2h3V2H2v40.999L11 34v-8.001ZM44 36h-7v2.999h-2V36h-6v2.999h-2V36h-6v2.999h-2V36h-7l-9 8.999h41V36Zm-28.425-4.994 3.516-8.454L40.305 1.339l4.949 4.949-21.213 21.213-8.466 3.505Zm4.931-7.04-1.7 3.966 3.821-1.845 1.414-1.413-2.121-2.122-1.414 1.414Zm21.92-17.678-2.121-2.121-2.122 2.121 2.122 2.122 2.121-2.122ZM38.89 9.824l-2.121-2.121-13.435 13.435 2.121 2.121L38.89 9.824Z"/></svg>