<svg xmlns="http://www.w3.org/2000/svg" width="58" height="47"><path fill-rule="evenodd" d="M57.115 46.367a.912.912 0 0 1-1.171.585C55.808 46.906 42.358 42 29 42c-13.37 0-27.041 4.906-27.177 4.952a.963.963 0 0 1-1.221-.584c-.17-.493.062-1.03.554-1.2.051-.017 1.855-.652 4.855-1.452L6 11c0-.521.478-1.001 1-1.001h11V5c0-.522.478-1 1-1h2V.999C21 .478 21.478 0 22 0h14c.522 0 1 .478 1 .999V4h2c.521 0 1 .478 1 1v4.999h11c.522 0 1 .48 1 1.001v32.999c2.595.692 4.457 1.153 4.502 1.169.493.17.783.707.613 1.199ZM8 11.999l.011 31.204c2.96-.687 6.361-1.421 9.988-1.966L18 11.999H8Zm30-6h-2c-.522 0-1-.478-1-.999V2H23v3c0 .521-.479.999-1 .999h-2V41c2.831-.328 6.134-1 9-1 3.124 0 6.224.478 9.017 1.024L38 5.999Zm2 6 .093 28.982.001.336c3.772.565 7.335 1.31 9.905 1.995L50 11.999H40ZM23 34h12v2H23v-2Zm0-5h12v1.999H23V29Zm0-5.001h12v2H23v-2Zm0-5h12V21H23v-2.001ZM23 14h12v2H23v-2Zm0-5h12v2H23V9Z"/></svg>