<svg xmlns="http://www.w3.org/2000/svg" width="54" height="48"><path fill-rule="evenodd" d="m52 43.999-16.306-1.981L19 47c-.275.086-.4.146-.47.192-.064-.048-.207-.112-.53-.192L1.053 42.988C.342 42.811 0 41.732 0 41V4c0-2.471 1.767-2.483 3-2 3.214.971 15 3.999 15 3.999l17-5c.248-.077.745-.047 1 0l17 2c.754.141 1 1.233 1 2.001v37c0 .998-1.018 2.182-2 1.999ZM52 5 36 2.999l-18 5L2 4v37l16 3.999L35 40c.248-.078.745-.048 1 0l16 2V5ZM19 37.999c-.883.27-1.842.596-2.182-.339-.239-.654.113-1.151.688-1.457C19.927 35.948 29 33 29 33V23c0-.702.329-1.797 1-2l3-1.001c.843-.256 1.645.027 1.901.869.257.842-.058.875-.901 1.131L31 23v8.999l4-1c.224-.069.768-.032 1 0l5 1h1v-10h-2c-.875-.099-2.1-.124-2-.999.099-.875 1.125-1.1 2-1.001h2v-8L35 11l-11 4.273V17c0 .88.219 2.127-.662 2.127S22 18.879 22 17.999V16l-1.728.679-.001-.008-1.351.419a1.602 1.602 0 0 1-.91.011L12 14.999v11l7 1 3-2v-1c0-.88.12-2 1-2 .881 0 1 1.12 1 2v1C24 25.663 19 29 19 29c-.171.186-.766.053-1 0l-6-1v7h1c.846.244 1.245.154 1 1-.245.845-1.154 1.245-2 .999l-1.437-.402C9.882 36.399 10 35.709 10 35V14c0-.627 1.051-1.355 2-1.001l6 2h1s1.241-.339 3-.999c4.627-1.736 13-5 13-5s.555-.063 1 0l6 .999c.787.112 2 1.206 2 2v20c0 1.474-1.04 2.136-2 2.001l-6-1-17 4.999Zm-1-30c.283.071-.279.087 0 0Zm.53 39.193c.152.116-.192.127 0 0Z"/></svg>