<svg xmlns="http://www.w3.org/2000/svg" width="28" height="43"><path fill-rule="evenodd" d="M22.618 24.113v4.417h3.785v3.427L13.994 42.043 1.585 31.957V28.53H5.37v-4.417A13.565 13.565 0 0 1 .439 13.645C.439 6.157 6.519.066 13.994.066c7.474 0 13.555 6.091 13.555 13.579 0 4.208-1.921 7.976-4.931 10.468ZM4.29 30.99l9.704 7.885 9.703-7.885h-3.534v-5.256a13.456 13.456 0 0 1-6.169 1.49 13.45 13.45 0 0 1-6.169-1.49v5.256H4.29Zm9.704-28.465c-6.121 0-11.1 4.989-11.1 11.12 0 6.132 4.979 11.119 11.1 11.119 6.12 0 11.1-4.987 11.1-11.119 0-6.131-4.98-11.12-11.1-11.12Zm-.702 9.89h1.404c2.086 0 3.784 1.7 3.784 3.791a3.793 3.793 0 0 1-3.259 3.752v1.754h-2.455v-1.751a3.748 3.748 0 0 1-3.238-3.71h2.456c0 .709.575 1.285 1.283 1.285h1.429a1.33 1.33 0 0 0 0-2.662h-1.404a3.79 3.79 0 0 1-.526-7.543V5.578h2.455v1.757a3.796 3.796 0 0 1 3.228 3.751h-2.455c0-.735-.597-1.334-1.33-1.334h-1.372a1.332 1.332 0 0 0 0 2.663Z"/></svg>