<svg xmlns="http://www.w3.org/2000/svg" width="44" height="47"><path fill-rule="evenodd" d="M41 47h-2c-.833 0-1.45-.459-2-1-.551.541-1.167 1-2 1H1c-.502 0-1-.499-1-1v-5c0-3.646 1.817-7.117 5-9.001 2.602-1.54 4.375-1.509 7-2 .318-.059 1.709.063 2 0V28c-3.249-1.611-6.007-5.14-6.007-8.996L8 17c-.805-.145-2-1.156-2-2.001v-2c0-1.546 1.14-2.005 1.804-1.992.42-3.935 3.134-7.286 6.946-8.518A2.709 2.709 0 0 1 17.361.497h.992c1.247 0 2.299.846 2.611 1.992 3.809 1.23 6.523 4.577 6.945 8.511.928 0 2.091.37 2.091 1.999v2c0 .845-1.195 1.856-2 2.001v1.999c0 3.856-2.752 7.39-6 9.001v1.999c.292.064.836.02 1.154.085 1.997.415 4.515.829 6.846 1.915v-8A2.971 2.971 0 0 1 33 21h2c.833 0 1.449.458 2 .999.55-.541 1.168-.999 2-.999h2c1.682 0 3 1.324 3 2.999v20A2.973 2.973 0 0 1 41 47Zm-24-2.001h2V40h-2v4.999Zm0-7h2l.536-1.456-1.679-.633-1.679.633.822 1.456Zm.857-4.513 2.153-2.683s.004.728.004-2.203c-.616.217-1.273.4-2.014.4-.636 0-1.439-.091-2.003-.339 0 .655.012 2.522.012 2.522l1.848 2.303ZM5.3 34.348C2.673 35.903 2 38.796 2 41v3.999h13v-6l-.533-1.811-.201.077a.912.912 0 0 1-1.022-.27L9.62 32.626c-1.489.405-2.998.94-4.32 1.722Zm7.636-2.486c-.433.09-.885.184-1.35.286l2.645 3.188.522-.197.011-.005 1.6-.603-2.328-2.901c-.348.075-.717.152-1.1.232ZM15 4l-.345.459a8.274 8.274 0 0 0-5.015 6.535c1.695 0 5.36.006 5.36.006V4Zm4-1.001c0-.485-.158-.684-.647-.684h-.992c-.489 0-.361.199-.361.684V11h2V2.999Zm2.059 1.46L21 11l5.075.001a8.275 8.275 0 0 0-5.016-6.542ZM26 18.999V17h-4c-.503 0-.959-.525-.959-1.027 0-.502.456-.974.959-.974h6v-2H8v2h6c.502 0 1 .499 1 1.001 0 .502-.498 1-1 1h-4v1.999c0 4.42 3.873 8 8 8 4.654 0 8-3.58 8-8Zm-3.217 12.864a99.136 99.136 0 0 1-1.105-.233l-2.328 2.901 1.6.603.01.004.524.198 2.643-3.187c-.462-.102-.913-.196-1.344-.286ZM30 34c-1.241-.684-2.536-1.001-3.907-1.374l-3.623 4.369a.912.912 0 0 1-1.022.27L21 36.999v8h3V42c0-.503.665-.993 1.168-.993L30 41v-7Zm.091 9.977L30 42.999h-4v2s3.612-.007 4.266-.007a3.023 3.023 0 0 1-.175-1.015ZM35 23h-2c-.679 0-1 .324-1 .999 0 .674.462 1.027 1.14 1.027h2.088c.679 0 .772-.353.772-1.027 0-.675-.322-.999-1-.999Zm0 3.999h-2c-.405 0-.737-.219-1.005-.378.027 0 .005 17.378.005 17.378 0 .675.321 1 1 1h2c.678 0 1-.325 1-1l.003-17.231c-.333.122-.713.231-1.003.231ZM41 23h-2c-.677 0-1 .324-1 .999 0 .674.323 1 1 1h1.801c.61-.064 1.199-.394 1.199-1 0-.673-.322-.999-1-.999Zm.996 3.407c.001-.109.053.592-.996.592h-2c-.726 0-.943-.229-1-.403v17.403c0 .675.323 1 1 1h2c.678 0 1-.325 1-1 0 0-.03-14.919-.004-17.592Zm-24.139-9.526a.908.908 0 1 1 0-1.817c.503 0 .912.407.912.909a.906.906 0 0 1-.906.908h-.006Z"/></svg>