<svg xmlns="http://www.w3.org/2000/svg" width="60" height="51"><path fill-rule="evenodd" d="M59 41.999H32L1.72 50.395c-.279.087-1.72.357-1.72-1.396v-47C0 .834.589 0 1.72.291l29.915 7.671h27.089c.988 0 1.276 1.051 1.276 2.037V41c0 .986-.013.999-1 .999Zm-29-32-28-7V48l28-8.001v-30ZM41 31c.818.164 1 1.482 1 1.999 0 .456-.182 1.837-1 2v5h8V26h-8v5ZM58 9.999H32v30h7V26c0-.987 1.013-2 2-2h8c.987 0 2 1.013 2 2v13.999h7v-30ZM11 14l12 3c.82.18 2 1.16 2 2v12.999c0 .839-.356 1.579-1.175 1.759L11 36c-.308.085-2.063.035-2-1.001v-19c0-1.141.884-2.244 2-1.999Zm7 8.999c.305.038 1 1.372 1 2 0 .629-.383 1.807-1 2v6l5-1V19l-5-1.001v5ZM11 34l5-1.001v-6c-.554-.161-1-1.371-1-2s.383-1.805 1-2V17l-5-1.001V34Z"/></svg>