<svg xmlns="http://www.w3.org/2000/svg" width="30" height="34"><path fill-rule="evenodd" d="m25.832 22.896-5.47-2.394a7.232 7.232 0 0 0-.818-.3c.065-.074.13-.149.193-.226 1.207-1.477 1.872-3.428 1.872-5.495 0-.87-.117-1.718-.348-2.529.761-.624 1.307-.996 1.922-.996V9.068c-.351 0-.679.053-.988.145a7.254 7.254 0 0 0-6.251-6.378V.885h-1.888v1.95a7.253 7.253 0 0 0-6.251 6.378 3.44 3.44 0 0 0-.989-.145v1.888c.616 0 1.162.372 1.922.996a9.214 9.214 0 0 0-.348 2.529c0 2.067.665 4.018 1.873 5.495.063.077.128.152.193.226-.277.083-.55.183-.818.3l-5.471 2.394a6.608 6.608 0 0 0-3.96 6.055v2.363l.691.192c.237.066 5.884 1.608 14.102 1.608 7.583 0 13.816-1.537 14.078-1.602l.715-.178v-2.383a6.609 6.609 0 0 0-3.961-6.055Zm-14.294-1.017c.323-.061.651-.094.985-.095a5.709 5.709 0 0 0 4.954 0c.119 0 .238.006.356.014v3.763h-6.295v-3.682ZM9.649 10.012c0-1.631.734-3.093 1.889-4.074v2.815h1.888V4.898a5.35 5.35 0 0 1 3.148 0v3.855h1.888V5.938a5.336 5.336 0 0 1 1.888 4.074v.248c-.21.165-.415.337-.619.507-1.222 1.022-2.486 2.078-4.731 2.078-2.245 0-3.509-1.056-4.731-2.078-.204-.17-.41-.342-.62-.507v-.248Zm.73 3.242c1.136.795 2.569 1.479 4.621 1.479 2.051 0 3.485-.684 4.62-1.479.067.4.101.811.101 1.227 0 3.298-2.118 5.981-4.721 5.981s-4.721-2.683-4.721-5.981c0-.416.034-.827.1-1.227ZM2.095 28.951a4.72 4.72 0 0 1 2.829-4.325l.948-.415v6.347a48.155 48.155 0 0 1-3.777-.701v-.906Zm5.666 1.857v-7.424l1.888-.826v4.891h10.072v-5.166l1.888.826v7.739a60.816 60.816 0 0 1-6.609.378c-2.735 0-5.191-.181-7.239-.418Zm20.143-.965c-.847.182-2.401.49-4.406.769v-6.676l1.578.69a4.72 4.72 0 0 1 2.828 4.325v.892Z"/></svg>