<svg xmlns="http://www.w3.org/2000/svg" width="53" height="59"><path fill-rule="evenodd" d="M22 6.999v4h-9C12.472 9.514 11.487 8.526 10 8V-.001H8V8c-1.487.526-2.472 1.514-3 2.999H0V13h5c.528 1.484 1.513 2.473 3 3v41H1v1.999h52V57H38s2-1.795 2-4c0-8.076-6-10.001-6-10.001S33.322 48 32 48c-1.076.123-2.462-1.651-2.462-1.651l-1.009 1.462C27.268 49.637 27 51.492 27 53c0 2.162 2 4 2 4H10V16c1.487-.527 2.472-1.516 3-3h9v3.999h7v2L18 34l4 4.999h23L49 34 38 18.999v-2h8V8h-8V3.999h3V2H27v1.999h2v3h-7Zm6.999 45.183c0-.68.534-2.194 1.001-3.183.648.628 1.973 1.352 3 1.001 1.275-.436 2.218-2.595 2-4 1.425.185 3 3.203 3 5.999 0 2.666-2.03 5.017-4.508 5.017-2.477 0-4.493-2.169-4.493-4.834ZM9 13.999c-1.197 0-2-.804-2-2C7 10.804 7.803 10 9 10s2 .804 2 1.999c0 1.196-.803 2-2 2Zm15 1v-6h5v6h-5Zm12 5L40 25H27l4-5.001h5Zm7 17H24L21 34l5-7.001h15L46 34l-3 2.999ZM44 10v4.999h-6V10h6Zm-8-6.001V18h-5V3.999h5Z"/></svg>