<svg xmlns="http://www.w3.org/2000/svg" width="62" height="60"><path fill-rule="evenodd" d="M59.161 35.537v6.911a.887.887 0 0 1-.031.226 3.77 3.77 0 0 1-2.333 3.04l-3.052 1.228a6.632 6.632 0 0 1-6.696-1.039L40.43 40.44a.897.897 0 1 1 1.141-1.385l2.111 1.743 12.257-4.928a.892.892 0 0 1 1.166.498l.262.652v-1.483a2.819 2.819 0 0 1-1.532-1.252L41.284 12.71l-9.853 16.558 1.421 2.133a8.537 8.537 0 0 1 1.436 4.748v3.426a.891.891 0 0 1-.108.428l-.029.048-.016.026-.041.055a.625.625 0 0 1-.011.014c-.01.014-.022.025-.034.038-.008.009-.015.018-.024.026l-.028.026-.035.032-.036.027-.033.025a.94.94 0 0 1-.147.079l-.006.003c-.017.008-.035.013-.053.02l-.029.01-.038.011-.048.011c-.02.005-.04.007-.061.01l-.028.004a.512.512 0 0 1-.056.003l-.036.002h-1.016v2.933a.897.897 0 0 1-.897.897h-7.712v2.035h6.756c3.659 0 6.636 2.98 6.636 6.643s-2.977 6.643-6.636 6.643H7.563c-3.659 0-6.637-2.98-6.637-6.643s2.978-6.643 6.637-6.643h6.756v-2.035H6.606a2.815 2.815 0 0 1-2.81-2.813v-6.703a2.815 2.815 0 0 1 2.81-2.813h5.8v-5.805a4.731 4.731 0 0 1 4.723-4.728h6.562c.206 0 .411.015.612.041L38.896 2.014l.005-.007a3.764 3.764 0 0 1 3.1-1.632c1.533 0 2.855.923 3.442 2.242l15.25 28.844a2.816 2.816 0 0 1-1.532 4.076Zm-1.937 5.943-1.449-3.61-10.516 4.229 2.931 2.418a4.836 4.836 0 0 0 4.887.759l3.051-1.228a1.977 1.977 0 0 0 1.096-2.568Zm-44.818-7.71h-5.8c-.56 0-1.016.456-1.016 1.017v6.703c0 .562.456 1.018 1.016 1.018h5.8V33.77ZM7.563 48.133a4.851 4.851 0 0 0-4.843 4.848 4.851 4.851 0 0 0 4.843 4.848h22.959a4.85 4.85 0 0 0 4.842-4.848 4.85 4.85 0 0 0-4.842-4.848H7.563Zm14.409-1.795v-2.035h-5.859v2.035h5.859Zm-5.74-10.066V23.378a2.937 2.937 0 0 0-2.032 2.791v16.339h16.381v-2.035h-4.61c-2.82 0-5.557-.582-8.134-1.728a2.708 2.708 0 0 1-1.605-2.473Zm7.459-13.035h-5.665v13.035c0 .36.212.687.54.832.8.357 1.618.651 2.449.887V26.169a.898.898 0 1 1 1.794 0v12.233c1.038.183 2.093.275 3.162.275h6.523v-2.528c0-1.34-.392-2.637-1.134-3.751l-5.231-7.856a2.926 2.926 0 0 0-2.438-1.305ZM38.5 5.534 26.086 22.095a4.714 4.714 0 0 1 1.535 1.452l2.707 4.065L42.05 7.915l-.049.001A3.773 3.773 0 0 1 38.5 5.534Zm5.325-2.138-.057-.109a.871.871 0 0 1-.047-.105 1.971 1.971 0 0 0-3.693.963 1.972 1.972 0 0 0 3.605 1.109l.037-.063.018-.026a1.968 1.968 0 0 0 .137-1.769Zm1.414 2.674a4.541 4.541 0 0 1-.073.116l-2.868 4.82 13.663 20.257a2.805 2.805 0 0 1 1.972-1.183L45.239 6.07Zm13.025 25.784a1.019 1.019 0 0 0 0 2.035 1.018 1.018 0 0 0 0-2.035ZM31.928 50.546a2.822 2.822 0 0 1 1.404 2.435 2.814 2.814 0 0 1-2.81 2.812 2.814 2.814 0 0 1-2.811-2.812 2.815 2.815 0 0 1 2.811-2.813c.494 0 .98.13 1.406.378Zm-2.423 2.435a1.018 1.018 0 1 0 1.017-1.017c-.561 0-1.017.456-1.017 1.017Zm-6.636 2.812a2.814 2.814 0 0 1 0-5.625c.494 0 .981.13 1.406.378a2.822 2.822 0 0 1 1.404 2.435 2.814 2.814 0 0 1-2.81 2.812Zm.508-3.693a1.018 1.018 0 1 0-.508 1.898 1.018 1.018 0 0 0 .508-1.898Zm-8.161 3.693a2.814 2.814 0 0 1 0-5.625c.494 0 .98.13 1.407.378a2.814 2.814 0 0 1-1.407 5.247Zm.508-3.693a1.018 1.018 0 1 0-.508 1.898 1.018 1.018 0 0 0 .508-1.898Zm-8.161 3.693a2.814 2.814 0 0 1-2.81-2.812 2.815 2.815 0 0 1 2.81-2.813 2.8 2.8 0 0 1 1.407.378 2.814 2.814 0 0 1-1.407 5.247Zm.508-3.693a1.018 1.018 0 1 0-.508 1.898 1.018 1.018 0 0 0 .508-1.898Zm.449-16.295h.956a.898.898 0 0 1 0 1.796H8.52a.898.898 0 0 1 0-1.796Zm0 2.872h.956a.898.898 0 0 1 0 1.796H8.52a.897.897 0 0 1 0-1.796Z"/></svg>