<svg xmlns="http://www.w3.org/2000/svg" width="40" height="42"><path fill-rule="evenodd" d="M39 42H1c-.689 0-1-.311-1-1 0-.69.311-1.001 1-1.001h3V1c0-.69.311-1.001 1-1.001h29c.689 0 1 .311 1 1.001v38.999l3.554-.079c.689 0 1.446.39 1.446 1.08 0 .689-.311 1-1 1Zm-24-2.001h9v-9h-9v9ZM33 2H6v37.999l6.967-.079v-9.758c0-.689.559-1.248 1.249-1.248h11.008c.689 0 .776.396.776 1.086v9.999h7V2ZM21 24v-6c0-.689.311-1 1-1h6c.689 0 1 .311 1 1v6c0 .689-.311.999-1 .999h-6c-.689 0-1-.31-1-.999Zm2-1.001h4v-4h-4v4ZM28 14h-6c-.689 0-1-.311-1-1V7c0-.69.311-1 1-1h6c.689 0 1 .31 1 1v6c0 .689-.311 1-1 1Zm-1-6.001h-4V12h4V7.999Zm-10 17h-6c-.689 0-1-.31-1-.999v-6c0-.689.228-1.051.917-1.051h6.119c.689 0 .964.362.964 1.051v6c0 .689-.311.999-1 .999Zm-1-6h-4v4h4v-4ZM17 14h-6c-.689 0-1-.311-1-1V7c0-.69.311-1 1-1h6c.689 0 1 .31 1 1v6c0 .689-.311 1-1 1Zm-1-6.001h-4V12h4V7.999Z"/></svg>