<svg xmlns="http://www.w3.org/2000/svg" width="41" height="47"><path fill-rule="evenodd" d="M38 20.999V20c.025-7.571-6.074-16.143-12-17V.999C26 .484 25.515 0 25 0H15c-.515 0-1 .484-1 .999V3c-5.344.751-12.025 9.429-12 17v.999L.539 22.063C.194 22.209 0 22.625 0 23v5c0 .515.484 1 1 1h1v3c0 .515.484.999 1 .999h3c.318 1.171 1.192 1.865 1.798 2.916l-2.373 2.374a.934.934 0 0 0 0 1.318l3.97 3.972a.932.932 0 0 0 1.317 0l2.373-2.374c.914.528 1.883.952 2.891 1.263C15.976 43.415 16 46 16 46c0 .515.484.999 1 .999h6c.515 0 1-.484 1-.999 0 0 .066-2.549.066-3.45a14.088 14.088 0 0 0 3.172-1.345l2.373 2.374a.932.932 0 0 0 1.317 0l3.97-3.972a.934.934 0 0 0 0-1.318l-2.373-2.374c.606-1.051 1.157-1.745 1.475-2.916h3c.516 0 2-1.484 2-1.999v-2h1c.516 0 1-.485 1-1v-5c-.609-.451-3-2.001-3-2.001Zm-22-19h8V18h-8V1.999ZM37 31h-4c-.448-.011-.604-.001-.699.438a12.307 12.307 0 0 1-1.709 4.112.934.934 0 0 0 .121 1.168l2.233 2.234-2.672 2.655-2.233-2.234a.935.935 0 0 0-1.168-.122 12.25 12.25 0 0 1-4.11 1.71c-.438.096-.773.59-.763 1.038v3h-4v-3c.01-.448-.012-.97-.45-1.065a12.248 12.248 0 0 1-4.11-1.711.935.935 0 0 0-1.168.122l-2.232 2.234-2.644-2.645L9.629 36.7a.935.935 0 0 0 .121-1.168 12.334 12.334 0 0 1-1.738-4.094C7.918 30.999 7.448 30.989 7 31H4v-2h8c.512 4.222 4.913 7.156 9.131 6.619C24.524 35.187 27.574 32.518 28 29h9v2Zm-23-2h12c-.514 3.179-3.596 5.105-6.774 4.591C16.747 33.19 14.401 31.48 14 29Zm25-2.001H2V24l1.631-1.236c.346-.146.369-.39.369-.765V20C4 14.213 9.895 5.982 14 4.999V19c0 .515.484 1 1 1h10c.516 0 1-.485 1-1V4.999C31.173 6.987 36 14.257 36 20v1.999c0 .375.654.855 1 1.001l2 1v2.999Z"/></svg>