<svg xmlns="http://www.w3.org/2000/svg" width="47" height="46"><path fill-rule="evenodd" d="m43.749 28.546-.009.009C40.523 31.76 36.308 32.113 33 29c-.529-.501-.51-1.49 0-2.001L42 18V4L23 20.999v9c0 .71-.289 1.001-1 1.001h-2v4h8c3.326 0 6.009 2.066 6.009 5.38 0 3.324-1.693 5.62-5.009 5.62H6C2.674 46 .003 43.694.003 40.38S2.674 35.008 6 35h1v-4H5c-.711 0-1-.291-1-1.001V14c0-.711.289-1.001 1-1.001h11c3.344 0 5.961 2.005 7 5.001L42 .999c.866-.746 2-.092 2 1V18c2.752 3.304 2.82 7.46-.251 10.546ZM6 36.999c-1.905 0-3.984 1.488-3.984 3.391S4.094 44 6 44h22c1.905 0 4-1.707 4-3.61 0-1.903-2.096-3.391-4-3.391H6ZM18 35v-4H9v4h9Zm3-16c0-1.907-2.856-4-5-4H6v14h15V19Zm22 1-8 8c2.325 1.772 5.095.893 7-1.001 1.895-1.893 2.294-4.787 1-6.999ZM28.795 40.381c0 .71-.574 1.283-1.284 1.283h-.474a1.282 1.282 0 1 1 0-2.567h.474c.71 0 1.284.574 1.284 1.284Zm-8.082 1.283h-.474a1.283 1.283 0 1 1 0-2.567h.474a1.283 1.283 0 1 1 0 2.567Zm-6.789 0h-.474a1.283 1.283 0 1 1 0-2.567h.474a1.283 1.283 0 1 1 0 2.567Zm-6.798 0h-.473a1.282 1.282 0 1 1 0-2.567h.473a1.283 1.283 0 1 1 0 2.567Z"/></svg>