<svg xmlns="http://www.w3.org/2000/svg" width="41" height="41"><path fill-rule="evenodd" d="M41 39.194a3.6 3.6 0 0 0-2.193-3.316l-10.214-4.345v-2.547a9.52 9.52 0 0 0 1.995-4.71h2.088a3.608 3.608 0 0 0 3.603-3.604v-5.165a3.607 3.607 0 0 0-3.102-3.568c-.26-7.816-4.63-11.94-12.677-11.94-8.048 0-12.417 4.124-12.677 11.94a3.607 3.607 0 0 0-3.102 3.568v5.165a3.607 3.607 0 0 0 3.603 3.604h2.088a9.528 9.528 0 0 0 1.994 4.71v2.547L2.193 35.878A3.6 3.6 0 0 0 0 39.194v.604a1.202 1.202 0 0 0 1.201 1.201h38.598A1.2 1.2 0 0 0 41 39.798v-.604Zm-14.808-6.818c.001.028.069 2.944-1.653 4.737-.946.985-2.305 1.484-4.039 1.484-1.728 0-3.083-.496-4.028-1.473-1.743-1.803-1.665-4.723-1.664-4.748l.001-.048v-1.19c1.645 1.041 3.606 1.6 5.691 1.6 2.084 0 4.046-.559 5.691-1.6v1.19l.001.048Zm2.079-9.944-2.285 1.524a4.388 4.388 0 0 1-2.443.739h-2.032a1.202 1.202 0 0 0 0 2.403h2.032a6.787 6.787 0 0 0 3.776-1.144l.46-.306c-1.084 2.797-3.856 4.688-7.279 4.688-4.43 0-7.771-3.168-7.771-7.368V13.23c.473-2.201 1.159-3.601 1.986-4.05.824-.446 2.021.019 3.178.468.902.35 1.754.681 2.607.681.861 0 1.703-.334 2.594-.688 1.158-.461 2.253-.895 3.064-.472.591.308 1.433 1.267 2.113 4.077v9.186Zm5.606-6.925v5.165c0 .662-.539 1.201-1.201 1.201h-2.002v-7.568h2.002c.662 0 1.201.539 1.201 1.202ZM12.367 5.345c1.663-1.953 4.4-2.943 8.133-2.943 3.733 0 6.469.99 8.133 2.943 1.31 1.536 2.027 3.741 2.138 6.558h-.368c-.726-2.576-1.732-4.133-3.135-4.864-1.786-.932-3.602-.211-5.061.369-.642.255-1.306.519-1.707.519-.404 0-1.082-.263-1.737-.518-1.511-.587-3.392-1.318-5.194-.34-1.359.738-2.343 2.324-2.994 4.834h-.346c.11-2.817.828-5.022 2.138-6.558ZM7.123 20.672v-5.165c0-.663.539-1.202 1.201-1.202h2.002v7.568H8.324a1.203 1.203 0 0 1-1.201-1.201Zm-3.99 17.417 9.411-4.004c.211 1.304.734 3.077 2.018 4.512H2.561c.127-.223.326-.403.572-.508Zm23.305.508c1.283-1.435 1.807-3.208 2.018-4.512l9.411 4.004c.246.105.444.285.572.508H26.438Z"/></svg>