<svg xmlns="http://www.w3.org/2000/svg" width="61" height="62"><path fill-rule="evenodd" d="M55.179 28.031c.233.058.479.031.693-.076l4.014-2.007c.467-.233.677-.786.483-1.271l-2.398-5.993.458-4.572a1.002 1.002 0 0 0-.101-.549l-2.007-4.014a1.006 1.006 0 0 0-.756-.545L48.54 8.001a.948.948 0 0 0-.266-.002L41 9V5c0-2.208-1.229-3.622-3.409-3.975a4.502 4.502 0 0 0-4.993 3.02l-.131.393-1.84 1.84a1.003 1.003 0 0 0 .71 1.713L33 8v2c-.001.64.498 1.269.792 1.838l-5.019 3.346c-.145.097-.263.23-.341.386l-4.014 8.028a1.007 1.007 0 0 0-.103.539l.978 10.747-1.803.971-2.483-2.483a1.005 1.005 0 0 0-1.208-.162l-1.68.961a16.034 16.034 0 0 0-7.503 9.567l-.249.871a6.494 6.494 0 0 0-1.708.321l-1.578.526a4.444 4.444 0 0 1-3.42-.242l-1.983-.991a1.003 1.003 0 0 0-.977.043C.406 44.449 0 44.652 0 45v15c0 .554.446 1 1 1h36c.448 0 1.2-.121 1.324-.552l3.971-13.898 1.897-2.846 1.247 3.74a.987.987 0 0 0 .157.295l10.035 13.045c.19.248.057.216.369.216h3c.335 0 1.085.009 1.271-.269.186-.278.222-.631.094-.941L53 42.441l.013-14.946 2.166.536Zm2.984-3.465-2.857 1.428-3.654-.914a1.01 1.01 0 0 0-.745.104l-3.051 1.76-.946-1.419 2.967-1.598a.997.997 0 0 0 .476-.566l.896-2.684.729-.486.44 3.967c.057.508 1.07.842 1.582.842h2c.516 0 1.374-.341 1.425-.853l.114-1.14.624 1.559ZM28.462 38.132l-1.053-2.108 17.725-9.544.98 1.47-17.652 10.182Zm3.751-12.398 2.756-1.377 2.412 4.019-6.537 3.519 1.369-6.161Zm2.935-12.388a4.01 4.01 0 0 0 6.122-2.449L42 11v4l-3.396 1.849-3.484-3.484.028-.019Zm2.504 5.389c.284.284.71.372 1.082.222l5.018-2.006c.382-.153.248-.541.248-.951v-5.539l1.049-.036 3.412 5.971.899 3.596-.785 2.356-9.425 5.075-2.919-4.864-3.726-7.451.912-.608 4.235 4.235Zm12.949-2.058.951-.317.176 1.585-.695.463-.432-1.731Zm5.801-2.477-.884 8.843h-1.204l-.867-7.801 1.896-3.16 1.059 2.118Zm-8.013-4.193 5.396.77-2.042 3.403-1.878.627-2.659-4.653 1.183-.147ZM34.054 5.69c.11-.11.193-.245.242-.392l.206-.618a2.496 2.496 0 0 1 4.864.789v.515h-5.607l.295-.294ZM39 8v2c0 1.109-.891 2-2 2s-2-.891-2-2V8h4Zm-8.892 8.706.714-.476 3.183 6.364-2.624 1.312-3.749-2.248 2.476-4.952ZM26.34 24.24l.392-.782 3.468 2.081-1.692 7.614-1.294.696-.874-9.609ZM12.546 44.29a14.04 14.04 0 0 1 6.569-8.377l1.014-.58 2.47 2.469c.313.313.795.384 1.185.173l1.857-.999 1.08 2.16-1.908 1.101c-.388.224-.58.677-.471 1.113l.808 3.232-.072.036a14.085 14.085 0 0 1-12.626 0l.094-.328ZM2 59V47l.763.009a6.445 6.445 0 0 0 4.953.352l1.578-.526a4.487 4.487 0 0 1 3.592.334l5.64 3.133a4.479 4.479 0 0 1 1.666 1.611l.382.636a6.475 6.475 0 0 0 6.48 3.085 4.5 4.5 0 0 1 4.361 1.949L33 59H2Zm24.77-5.354a4.47 4.47 0 0 1-4.475-2.129l-.382-.637a6.49 6.49 0 0 0-2.412-2.333l-.77-.428a16.11 16.11 0 0 0 7.245-1.706l.792-.395c.421-.211.639-.685.524-1.142l-.82-3.279 11.044-6.371-3.108 8.547a1.012 1.012 0 0 0-.058.281l-.818 13.086-.447-.67a6.523 6.523 0 0 0-6.315-2.824Zm13.768-8.079a.971.971 0 0 0-.13.281l-3.754 13.135h-1.226l.916-14.659 3.875-10.657 10.78-6.219.003 6.309-4.124 2.475c-.127.076-.236.18-.319.304l-6.021 9.031ZM58 59l-1.222-.017-9.489-12.333-1.687-5.061 2.502-3.753 2.899-1.739L51 42v1l7 16Z"/></svg>