<svg xmlns="http://www.w3.org/2000/svg" width="60" height="59"><path fill-rule="evenodd" d="M52 16h-2V9h-8V7h8V0h2v7h8v2h-8v7Zm-3 16c0 6.23-1.894 9.098-4 13 7.78 0 15 6.242 15 14h-2c0-5.373-5.858-12-15-12-2.082 2.449-4.786 3.949-8 4-4.078 0-6.932-2.567-9-5-6.961.547-12.918 6.144-13 13h-2c0-7.723 6.253-13.574 14-15-1.144-2.112-2.462-4.659-3-7-2.737-.383-4.815-1.912-7-4-5.12 0-10.546 3.493-13 8H0c.356-4.061 7.742-10 14-10-2.815-3.294-4.104-8.643-4-14 0-7.838 6.163-14 14-14s13 7.162 13 15c6.601 0 11.992 6.951 12 14ZM24 5c-6.093 0-12 6.183-12 12 0 8.129 4.548 16.412 10 18-.122-.608 0-2.432 0-3 .015-7.325 5.751-14 13-14 0-7.034-5.815-13-11-13Zm12 15c-5.81-.002-12 5.239-12 12 0 8.716 5.369 17 11 17 6.007 0 12-9.795 12-17-.002-5.808-5.193-11.998-11-12Z"/></svg>