<svg xmlns="http://www.w3.org/2000/svg" width="61" height="61"><path fill-rule="evenodd" d="M60 55h-4c-.509 3.525-3.438 5.995-7 6h-7c-4.688-.014-8.497-2.505-10.911-6.524a1.005 1.005 0 0 0-1.705 0C26.97 58.495 22.688 60.986 18 61h-6c-3.168-.007-6.092-1.966-7-5H1c-.566 0-1-.435-1-1v-8c0-.566.434-1 1-1h4c.003-2.828 2.172-5.997 5-6h41c2.433.003 4.51 2.616 5 5h4c.566 0 1 .434 1 1v8c0 .566-.434 1-1 1ZM5 48H2v2h3v-2Zm0 4H2v2h3v-2Zm49-6c0-1.698-1.303-4-3-4H10c-1.698 0-3 2.302-3 4v8c.003 2.827 2.172 4.996 5 5h6c3.966-.013 7.579-2.175 9.622-5.575a3.054 3.054 0 0 1 5.225 0C34.89 56.826 38.032 58.988 42 59h7c2.828-.004 4.997-2.173 5-5v-8Zm5 1h-3v2h3v-2Zm0 4h-3v2h3v-2Zm-1-16H3c-1.698 0-3-1.303-3-3v-2c0-1.698 1.302-3 3-3 .389-11.359 7.269-21.257 18-25 .229-1.496 1.487-1.994 3-2h12c1.513.006 2.771.504 3 2 11.245 3.711 18.611 13.641 19 25 1.697 0 3 1.302 3 3v2c0 1.697-1.303 3-3 3ZM39 4v18c0 .566-.434 1-1 1-.566 0-1-.434-1-1V3c0-.566-.434-1-1-1h-5v22c0 .566-.434 1-1 1-.566 0-1-.434-1-1V2h-5c-.566 0-1 .434-1 1v19c0 .566-.394 1.065-.96 1.065a1.025 1.025 0 0 1-1.025-1.025V4.306C11.478 7.961 5.379 16.793 5 27h51c-.379-10.207-6.37-18.767-17-23Zm20 26c0-.566-.434-1-1-1H3c-.566 0-1 .434-1 1v2c0 .565.434 1 1 1h55c.566 0 1-.435 1-1v-2Z"/></svg>