<svg xmlns="http://www.w3.org/2000/svg" width="62" height="63"><path fill-rule="evenodd" d="M56.167 38.092V39.1h-2.018v-1.008c0-2.823-2.22-5.041-5.046-5.041v-2.016c2.826 0 5.046-2.217 5.046-5.04v-1.008h2.018v1.008c0 2.823 2.221 5.04 5.046 5.04v2.016c-2.825 0-5.046 2.218-5.046 5.041Zm-1.009-8.468a6.943 6.943 0 0 1-2.422 2.419 6.955 6.955 0 0 1 2.422 2.42 6.963 6.963 0 0 1 2.422-2.42 6.952 6.952 0 0 1-2.422-2.419Zm-3.027-11.693v1.007h-2.019v-1.007c0-2.823-2.22-5.04-5.046-5.04v-2.016c2.826 0 5.046-2.218 5.046-5.041V4.826h2.019v1.008c0 2.823 2.22 5.041 5.045 5.041v2.016c-2.825 0-5.045 2.217-5.045 5.04Zm-1.01-8.468a6.955 6.955 0 0 1-2.422 2.42 6.943 6.943 0 0 1 2.422 2.419 6.952 6.952 0 0 1 2.422-2.419 6.963 6.963 0 0 1-2.422-2.42ZM39.212 15.31a11.855 11.855 0 0 1-2.927 6.452l-2.321 2.721.606 1.512 4.238-1.814c0-.101.101-.101.101-.101 1.615-.504 3.331.201 3.936 1.814l5.753 15.423a3.03 3.03 0 0 1-1.514 3.731l-4.44 2.217L44.46 51.6h3.331c1.312 0 2.422.705 2.825 1.915l.909 2.419-16.753 6.552-1.01-2.52c-.504-1.21-.202-2.52.707-3.326l2.422-2.319-1.817-5.544-5.046-.605L1.062 60.168l-.807-1.815 18.268-7.56-3.432-10.282L.962 46.156l-.707-1.915 24.626-9.98.706-3.427c.202-.907.707-1.613 1.413-2.016l-.606-1.512-3.33-.303c-2.321-.202-4.642-1.109-6.56-2.52l-4.744-.504c-2.119-.302-3.935-1.714-4.642-3.729-.908-2.621.303-5.646 2.927-6.855l-.504-1.311v-.101c-.606-1.512.201-3.225 1.816-3.83L32.652.492c1.514-.605 3.33.201 3.835 1.814l.303.908c1.211-.303 2.321-.202 3.432.302.403.202.807.504 1.21.806 2.221 1.916 2.624 5.242.707 7.46l-2.927 3.528Zm-3.431 42.842a1.395 1.395 0 0 0-.202 1.108l.302.605L48.8 54.724l-.202-.605c-.201-.403-.504-.604-1.009-.604h-4.037l-4.34 1.41-3.431 3.227ZM42.24 51.7l-1.615-3.73-1.716.807c-.505.303-1.009.403-1.614.303l1.312 3.829L42.24 51.7ZM25.184 36.378l-4.037 1.613 2.624 7.862-1.918.605-2.523-7.661-2.321.908 3.431 10.282 8.175-3.427-3.431-10.182Zm1.715-1.411 3.735 11.189 6.862.807c.202 0 .404 0 .606-.102l7.973-3.931c.504-.202.707-.705.504-1.209l-.504-1.311-4.743 1.613-.606-1.915 4.643-1.513-1.212-3.225-4.844 1.613-.606-1.916 4.744-1.612-1.211-3.226-4.945 1.613-.606-1.915 4.945-1.613-.807-2.117c-.202-.504-.808-.706-1.312-.504l-11.303 4.838c-.303.101-.505.404-.606.706l-.707 3.73ZM10.852 15.411c-1.615.806-2.321 2.621-1.715 4.334.404 1.311 1.615 2.218 3.027 2.319l2.12.201a14.565 14.565 0 0 1-2.019-3.426l-1.413-3.428Zm26.039-5.645L34.67 3.113a1.027 1.027 0 0 0-.504-.605 1.115 1.115 0 0 0-.808 0l-21.295 7.661c-.504.201-.706.806-.504 1.311l2.624 6.652c1.514 3.932 5.147 6.553 9.285 6.956l4.441.403 1.009 2.52 3.633-1.512-.908-2.419 3.129-3.629c2.523-2.923 3.33-6.955 2.119-10.685Zm2.523-4.436c-.606-.201-1.211-.302-1.918-.201l1.312 3.931c.303 1.008.505 1.915.606 2.923l1.211-1.512c.202-.302.404-.504.505-.806.706-1.714-.101-3.629-1.716-4.335ZM30.23 18.233c4.44-4.435-.101-11.794-.202-11.794l1.716-1.109c.303.303 5.45 8.77-.101 14.315l-1.413-1.412ZM7.724 24.987v1.008c0 2.823 2.22 5.04 5.046 5.04v2.016c-2.826 0-5.046 2.218-5.046 5.041V39.1H5.705v-1.008c0-2.823-2.22-5.041-5.046-5.041v-2.016c2.826 0 5.046-2.217 5.046-5.04v-1.008h2.019Zm-3.432 7.056a6.957 6.957 0 0 1 2.423 2.42 6.946 6.946 0 0 1 2.422-2.42 6.935 6.935 0 0 1-2.422-2.419 6.946 6.946 0 0 1-2.423 2.419Z"/></svg>