<svg xmlns="http://www.w3.org/2000/svg" width="30" height="30"><path fill-rule="evenodd" d="M29.049 29.925h-24.6A4.38 4.38 0 0 1 .075 25.55V.95C.075.467.467.075.95.075h6.997c.484 0 .876.392.876.875v14.067l9.952-9.953a.88.88 0 0 1 1.238 0l4.948 4.948a.875.875 0 0 1 0 1.238l-9.927 9.927h14.015c.484 0 .876.392.876.876v6.996a.876.876 0 0 1-.876.876ZM7.072 1.825H1.826v3.198h5.246V1.825Zm0 4.949H1.826v3.197h5.246V6.774Zm0 4.948H1.826v3.197h5.246v-3.197Zm0 4.948H1.826v5.383a4.35 4.35 0 0 1 2.623-.876 4.35 4.35 0 0 1 2.623.876V16.67Zm-2.623 6.258a2.625 2.625 0 0 0-2.623 2.622 2.626 2.626 0 0 0 2.623 2.624 2.627 2.627 0 0 0 2.623-2.624 2.626 2.626 0 0 0-2.623-2.622Zm3.588 5.246h5.293v-5.246h-.047l-5.246 5.246Zm.786-10.681v7.419l3.784-3.784-3.71-3.71-.074.075Zm14.281-6.862-3.71-3.71-2.261 2.261 3.71 3.71 2.261-2.261Zm-3.499 3.499-3.71-3.709-2.261 2.261 3.71 3.709 2.261-2.261Zm-3.499 3.499-3.709-3.71-2.262 2.261 3.71 3.71 2.261-2.261Zm2.172 5.299H15.08v5.246h3.198v-5.246Zm4.948 0h-3.197v5.246h3.197v-5.246Zm4.948 0h-3.197v5.246h3.197v-5.246ZM4.449 26.426c-.491 0-.854-.401-.876-.876-.021-.472.418-.875.876-.875.491 0 .854.401.875.875.021.473-.417.876-.875.876Z"/></svg>