<svg xmlns="http://www.w3.org/2000/svg" width="30" height="34"><path fill-rule="evenodd" d="m25.832 22.895-5.47-2.393a7.239 7.239 0 0 0-.818-.301 7.15 7.15 0 0 0 .193-.226c1.207-1.476 1.872-3.428 1.872-5.494 0-.871-.117-1.718-.348-2.529.761-.624 1.307-.996 1.922-.996V9.067a3.44 3.44 0 0 0-.988.146 7.255 7.255 0 0 0-6.251-6.379V.885h-1.888v1.949a7.254 7.254 0 0 0-6.251 6.379 3.44 3.44 0 0 0-.989-.146v1.889c.616 0 1.162.372 1.922.996a9.209 9.209 0 0 0-.348 2.529c0 2.066.665 4.018 1.873 5.494.063.078.128.152.193.226-.277.083-.55.184-.818.301l-5.471 2.393a6.61 6.61 0 0 0-3.96 6.055v2.364l.691.192c.237.065 5.884 1.608 14.102 1.608 7.583 0 13.816-1.537 14.078-1.602l.715-.179v-2.382a6.611 6.611 0 0 0-3.961-6.056Zm-14.294-1.016c.323-.061.651-.094.985-.096a5.695 5.695 0 0 0 4.954 0c.119.001.238.006.356.015v3.762h-6.295v-3.681ZM9.649 10.012c0-1.631.734-3.093 1.889-4.075v2.815h1.888V4.897a5.382 5.382 0 0 1 3.148 0v3.855h1.888V5.937a5.34 5.34 0 0 1 1.888 4.075v.248c-.21.165-.415.337-.619.507-1.222 1.021-2.486 2.078-4.731 2.078-2.245 0-3.509-1.057-4.731-2.078-.204-.17-.41-.342-.62-.507v-.248Zm.73 3.242c1.136.794 2.569 1.479 4.621 1.479 2.051 0 3.485-.685 4.62-1.479.067.4.101.81.101 1.227 0 3.297-2.118 5.981-4.721 5.981s-4.721-2.684-4.721-5.981c0-.417.034-.827.1-1.227ZM2.095 28.95a4.723 4.723 0 0 1 2.829-4.325l.948-.414v6.347a48.035 48.035 0 0 1-3.777-.702v-.906Zm5.666 1.857v-7.423l1.888-.826v4.89h10.072v-5.165l1.888.826v7.738a60.565 60.565 0 0 1-6.609.378 62.97 62.97 0 0 1-7.239-.418Zm20.143-.965c-.847.183-2.401.491-4.406.77v-6.677l1.578.69a4.722 4.722 0 0 1 2.828 4.325v.892Z"/></svg>