<svg xmlns="http://www.w3.org/2000/svg" width="33" height="47"><path fill-rule="evenodd" d="M32.129 34.861h-3.226l1.561 4.508a.395.395 0 0 1-.244.503l-.161.055 1.996 5.762a.394.394 0 0 1-.244.502l-1.067.37a.395.395 0 0 1-.486-.203l-2.663-5.578-.576.2a.395.395 0 0 1-.503-.244l-2.035-5.875h-6.252v.35a1.344 1.344 0 0 1-2.687 0v-.35H9.29l-2.035 5.875a.395.395 0 0 1-.503.244l-.577-.2-2.662 5.578a.395.395 0 0 1-.486.203l-1.068-.37a.395.395 0 0 1-.244-.502l1.996-5.762-.16-.055a.395.395 0 0 1-.244-.503l1.561-4.508H1.642a.679.679 0 0 1-.678-.678v-1.129c0-.373.304-.677.678-.677h4.086l6.279-18.13a6.179 6.179 0 0 1-1.333-3.836 6.218 6.218 0 0 1 3.351-5.512v2.963c0 .234.028.461.082.679a3.329 3.329 0 0 0-.572 1.87 3.354 3.354 0 0 0 3.35 3.35 3.354 3.354 0 0 0 3.35-3.35c0-.692-.211-1.336-.572-1.87.054-.218.082-.445.082-.679V4.899a6.218 6.218 0 0 1 3.351 5.512 6.17 6.17 0 0 1-1.333 3.836l6.279 18.13h4.086c.374 0 .678.304.678.677v1.129a.678.678 0 0 1-.677.678ZM18.12 16.497a6.203 6.203 0 0 1-2.471 0l-5.499 15.88h5.391v-.351c0-.74.603-1.344 1.344-1.344.741 0 1.343.604 1.343 1.344v.351h5.392l-5.5-15.88Zm-1.235-7.593a1.43 1.43 0 0 1-1.431-1.43V2.211a1.43 1.43 0 0 1 2.861 0v5.263c0 .79-.64 1.43-1.43 1.43Z"/></svg>