<svg xmlns="http://www.w3.org/2000/svg" width="47" height="47"><path fill-rule="evenodd" d="M40.032.778H7.329C3.593.778.553 3.815.553 7.549v10.834c0 3.733 3.04 6.771 6.776 6.771h8.673v6.701l-1.067-1.066a4.216 4.216 0 0 0-2.999-1.241 4.216 4.216 0 0 0-2.999 1.241 4.248 4.248 0 0 0-.362 5.582l5.538 7.194a8.64 8.64 0 0 0 6.802 3.347h10.896c4.733 0 8.583-3.847 8.583-8.577v-7.222a4.069 4.069 0 0 0-4.066-4.063 4.05 4.05 0 0 0-2.71 1.038 4.05 4.05 0 0 0-2.71-1.038 4.046 4.046 0 0 0-2.71 1.038 4.05 4.05 0 0 0-4.066-.805v-2.129h15.9c3.736 0 6.776-3.038 6.776-6.771V7.549c0-3.734-3.04-6.771-6.776-6.771Zm-14.545 28.98c.748 0 1.355.608 1.355 1.355v1.805a1.355 1.355 0 0 0 2.711 0v-1.805c0-.747.608-1.355 1.355-1.355s1.355.608 1.355 1.355v1.805a1.354 1.354 0 1 0 2.71 0v-1.805c0-.747.608-1.355 1.355-1.355s1.355.608 1.355 1.355v7.222a5.876 5.876 0 0 1-5.872 5.868H20.915a5.91 5.91 0 0 1-4.654-2.29l-5.538-7.193a1.531 1.531 0 0 1 2.296-2.015l3.379 3.377a1.354 1.354 0 0 0 2.314-.957V22.084a1.356 1.356 0 0 1 2.71 0v10.834a1.354 1.354 0 1 0 2.71 0v-1.805c0-.747.608-1.355 1.355-1.355Zm18.611-11.375a4.068 4.068 0 0 1-4.066 4.062h-15.9v-.361a4.07 4.07 0 0 0-2.71-3.83s-1.133-.559-2.71 0a4.07 4.07 0 0 0-2.71 3.83v.361H7.329a4.068 4.068 0 0 1-4.066-4.062V7.549a4.07 4.07 0 0 1 4.066-4.063h32.703a4.07 4.07 0 0 1 4.066 4.063v10.834Z"/></svg>