<svg xmlns="http://www.w3.org/2000/svg" width="48" height="48"><path fill-rule="evenodd" d="m38.456 10.264-4.631 2.312c.041.55.012-.041.022 10.24h5.803c1.611-4.348 8.017-3.307 8.106 1.388-.089 4.696-6.494 5.738-8.106 1.389h-5.803c-.01 10.245.019 9.687-.022 10.24l4.631 2.312a5.548 5.548 0 0 1 3.737-1.443c7.378.304 7.381 10.804 0 11.109-3.781 0-6.494-3.717-5.272-7.328l-3.878-1.935a6.961 6.961 0 0 1-6.151 3.708H7.419c-3.835 0-6.955-3.114-6.955-6.943V13.095c0-3.828 3.12-6.942 6.955-6.942h19.473a6.961 6.961 0 0 1 6.151 3.708l3.878-1.935C35.675 4.41 38.449.546 42.193.598c3.067 0 5.563 2.492 5.563 5.555.017 4.8-5.8 7.331-9.3 4.111Zm6.518 13.94a1.391 1.391 0 0 0-2.781 0c.076 1.842 2.705 1.842 2.781 0Zm0 18.052a2.783 2.783 0 0 0-5.564 0c.153 3.683 5.411 3.685 5.564 0ZM31.065 13.095a4.174 4.174 0 0 0-4.173-4.165H7.419a4.174 4.174 0 0 0-4.173 4.165v22.218a4.174 4.174 0 0 0 4.173 4.166h19.473a4.174 4.174 0 0 0 4.173-4.166V13.095Zm11.128-9.72a2.783 2.783 0 0 0-2.783 2.778c.153 3.683 5.411 3.684 5.564 0a2.783 2.783 0 0 0-2.781-2.778ZM27.166 27.069c.523 2.323-1.074 4.581-3.496 4.969-1.437 2.137-4.539 2.549-6.514.798-1.974 1.751-5.076 1.339-6.514-.798-2.422-.388-4.018-2.646-3.496-4.969-1.481-1.561-1.497-3.984.009-5.582-.553-2.321 1.027-4.577 3.417-5.001 1.391-2.228 4.578-2.681 6.584-.902 2.006-1.779 5.193-1.326 6.585.902 2.395.424 3.969 2.685 3.417 5.001 1.506 1.597 1.49 4.021.008 5.582Zm-11.401-1.476h-2.783v-2.777h2.783v-4.184c-.044-1.589-2.446-1.868-2.967-.388l-.33.998-1.052-.045a1.607 1.607 0 0 0-1.169.424c-.454.43-.549 1.068-.235 1.588l.729 1.211-1.226.707c-.933.537-.938 1.754-.011 2.298l1.193.7-.695 1.195c-.301.516-.202 1.148.245 1.572.308.292.74.446 1.188.422l1.023-.055.355.96c.207.559.785.934 1.437.934.836 0 1.515-.612 1.515-1.366v-4.194Zm9.033-2.466-1.226-.706.729-1.212c.313-.52.218-1.158-.235-1.588a1.605 1.605 0 0 0-1.17-.424l-1.052.045-.329-.998c-.521-1.479-2.922-1.202-2.968.389v4.183h2.781v2.777h-2.781v4.195c.036 1.561 2.4 1.872 2.953.431l.356-.96 1.022.055c.446.024.879-.13 1.188-.422.447-.424.545-1.056.245-1.572l-.696-1.195 1.193-.7c.928-.544.922-1.761-.01-2.298Z"/></svg>