<svg xmlns="http://www.w3.org/2000/svg" width="40" height="40"><path fill-rule="evenodd" d="M.102 39.898V.101h39.796v39.797H.102ZM37.055 2.944H2.944v6.633h34.111V2.944Zm0 9.476H2.944v24.635h10.423v-8.527s-1.251-.057-1.713-.057a3.376 3.376 0 0 1-2.897 1.647 3.376 3.376 0 0 1-3.372-3.373 3.376 3.376 0 0 1 3.372-3.372c1.466 0 2.716.94 3.18 2.248l4.273.064v11.37H20V19.052s-2.811-.015-3.628-.015a3.378 3.378 0 0 1-3.118 2.087 3.377 3.377 0 0 1-3.373-3.373 3.376 3.376 0 0 1 3.373-3.372c1.302 0 2.433.741 2.995 1.823 1.21 0 6.593.008 6.593.008v20.845h1.896v-11.37l3.325-.064a3.379 3.379 0 0 1 3.18-2.248 3.376 3.376 0 0 1 3.372 3.372 3.376 3.376 0 0 1-3.372 3.373 3.374 3.374 0 0 1-2.958-1.754c-.49.166-.705.144-.705.144v8.547h9.475V12.42ZM9.881 26.745a1.125 1.125 0 0 0-2.248 0c0 .62.505 1.125 1.124 1.125.62 0 1.124-.505 1.124-1.125Zm4.498-8.994a1.125 1.125 0 1 0-2.248.002 1.125 1.125 0 0 0 2.248-.002Zm15.739 8.994c0 .62.505 1.125 1.125 1.125a1.126 1.126 0 1 0-1.125-1.125ZM7.682 7.682H4.839V4.839h2.843v2.843Zm4.738 0H9.577V4.839h2.843v2.843Zm4.737 0h-2.842V4.839h2.842v2.843Z"/></svg>