<svg xmlns="http://www.w3.org/2000/svg" width="44" height="44"><path fill-rule="evenodd" d="M10.592 43.465v-2.517h2.516V33.23h7.547v7.718h2.516V28.196h7.547v12.752h2.6V15.612h7.548v25.336h2.599v2.517H10.592Zm7.547-7.718h-2.516v5.201h2.516v-5.201Zm10.063-5.034h-2.515v10.235h2.515V30.713ZM38.35 18.128h-2.516v22.82h2.516v-22.82Zm-17.695 5.034c-1.746 0-3.4-.397-4.878-1.106l-9.93 9.934L.51 26.651l9.93-9.934a11.26 11.26 0 0 1-1.106-4.881C9.334 5.591 14.412.51 20.655.51c6.242 0 11.322 5.081 11.322 11.326s-5.08 11.326-11.322 11.326ZM4.068 26.651l1.779 1.779 7.745-7.748a11.423 11.423 0 0 1-1.778-1.78l-7.746 7.749ZM20.655 3.027c-4.856 0-8.805 3.952-8.805 8.809 0 4.858 3.949 8.809 8.805 8.809 4.855 0 8.806-3.951 8.806-8.809 0-4.857-3.951-8.809-8.806-8.809Z"/></svg>