<?xml version="1.0" encoding="utf-8"?>
<!-- Generator: Adobe Illustrator 23.0.1, SVG Export Plug-In . SVG Version: 6.00 Build 0)  -->
<svg version="1.1" id="Layer_1" xmlns="http://www.w3.org/2000/svg" xmlns:xlink="http://www.w3.org/1999/xlink" x="0px" y="0px"
	 viewBox="0 0 384 384.6" style="enable-background:new 0 0 384 384.6;" xml:space="preserve">
<style type="text/css">
	.st0{fill:#1D439A;}
	.st1{fill:none;}
	.st2{fill:#3CC5EA;}
</style>
<g>
	<path class="st0" d="M84,33c-2,0-3.9,0.8-5.3,2.2c-1.4,1.4-2.2,3.3-2.2,5.3c0,2,0.8,3.9,2.2,5.3C80.1,47.2,82,48,84,48
		s3.9-0.8,5.3-2.2c1.4-1.4,2.2-3.3,2.2-5.3c0-2-0.8-3.9-2.2-5.3C87.9,33.8,86,33,84,33L84,33z M84,33"/>
	<path class="st0" d="M48,33c-2,0-3.9,0.8-5.3,2.2c-1.4,1.4-2.2,3.3-2.2,5.3c0,2,0.8,3.9,2.2,5.3C44.1,47.2,46,48,48,48
		c2,0,3.9-0.8,5.3-2.2c1.4-1.4,2.2-3.3,2.2-5.3c0-2-0.8-3.9-2.2-5.3C51.9,33.8,50,33,48,33L48,33z M48,33"/>
	<path class="st0" d="M120,33c-2,0-3.9,0.8-5.3,2.2c-1.4,1.4-2.2,3.3-2.2,5.3c0,2,0.8,3.9,2.2,5.3c1.4,1.4,3.3,2.2,5.3,2.2
		c2,0,3.9-0.8,5.3-2.2c1.4-1.4,2.2-3.3,2.2-5.3s-0.8-3.9-2.2-5.3C123.9,33.8,122,33,120,33L120,33z M120,33"/>
</g>
<g>
	<circle class="st1" cx="192" cy="359.1" r="10.5"/>
	<path class="st0" d="M352.5,0h-321C14.1,0,0,14.1,0,31.5v225C0,273.8,14.1,288,31.5,288h85.8c-6.7-6.8-12.2-14.4-12.2-14.4
		c-0.1-0.2-0.3-0.4-0.4-0.6H31.5c-9.1,0-16.5-7.4-16.5-16.5V81h210.7h12.5H369v175.5c0,9.1-7.4,16.5-16.5,16.5h-73.1
		c-0.1,0.2-0.3,0.4-0.4,0.6c0,0-4.5,6.8-12.1,14.4h85.6c17.4,0,31.5-14.1,31.5-31.5v-225C384,14.1,369.9,0,352.5,0z M369,66H238.2
		h-12.5H15V31.5C15,22.4,22.4,15,31.5,15h321c9.1,0,16.5,7.4,16.5,16.5V66z"/>
	<path class="st2" d="M300,351.6h-83.6c-2.5-8-8.8-14.4-16.9-16.9v-16.4c21.4-1.5,41.1-9.4,57.2-21.7c0,0,0.1-0.1,0.1-0.1
		c3.7-2.7,7.1-5.7,10-8.6c7.6-7.5,12.1-14.4,12.1-14.4c0.1-0.2,0.3-0.4,0.4-0.6c12.1-17.3,19.1-38.2,19.1-60.8
		c0-58.7-47.8-106.5-106.5-106.5S85.5,153.4,85.5,212.1c0,22.6,7.1,43.6,19.1,60.8c0.1,0.2,0.3,0.4,0.4,0.6c0,0,5.5,7.6,12.2,14.4
		c1.9,1.9,3.9,3.8,5.8,5.4c0.1,0,0.1,0.1,0.2,0.1c16.8,14.2,37.9,23.3,61.1,24.9v16.4c-8,2.5-14.4,8.8-16.9,16.9H84
		c-4.1,0-7.5,3.4-7.5,7.5c0,4.1,3.4,7.5,7.5,7.5h83.6c3.2,10.4,12.9,18,24.4,18s21.2-7.6,24.4-18H300c4.1,0,7.5-3.4,7.5-7.5
		C307.5,355,304.1,351.6,300,351.6z M215.6,300.5c6.6-12,11.3-29,14.1-47.9H274C262.5,276,241.2,293.7,215.6,300.5z M167.6,237.6
		c-0.7-8.2-1.1-16.7-1.1-25.5c0-8.8,0.4-17.3,1.1-25.5h48.7c0.7,8.2,1.1,16.7,1.1,25.5c0,8.8-0.4,17.3-1.1,25.5H167.6z M283.5,212.1
		c0,8.8-1.3,17.4-3.6,25.5h-48.5c0.7-8.4,1.1-16.9,1.1-25.5c0-8.6-0.4-17.1-1.1-25.5h48.5C282.2,194.7,283.5,203.3,283.5,212.1z
		 M274,171.6h-44.3c-2.7-18.9-7.4-35.9-14.1-47.9C241.2,130.6,262.5,148.3,274,171.6z M175.8,144.5c5.5-16.5,12.1-23.9,16.2-23.9
		s10.7,7.4,16.2,23.9c2.7,8,4.8,17.1,6.3,27.1h-45.1C171,161.6,173.1,152.5,175.8,144.5z M168.4,123.7c-6.6,12-11.3,29-14.1,47.9
		H110C121.5,148.3,142.8,130.6,168.4,123.7z M104.1,237.6c-2.4-8.1-3.6-16.7-3.6-25.5c0-8.8,1.3-17.4,3.6-25.5h48.5
		c-0.7,8.4-1.1,16.9-1.1,25.5c0,8.6,0.4,17.1,1.1,25.5H104.1z M110,252.6h44.3c2.7,18.9,7.4,35.9,14.1,47.9
		C142.8,293.7,121.5,276,110,252.6z M175.8,279.8c-2.7-8-4.8-17.2-6.3-27.1h45.1c-1.5,10-3.7,19.2-6.3,27.1
		c-5.5,16.5-12.1,23.9-16.2,23.9S181.3,296.2,175.8,279.8z M192,369.6c-5.8,0-10.5-4.7-10.5-10.5s4.7-10.5,10.5-10.5
		s10.5,4.7,10.5,10.5S197.8,369.6,192,369.6z"/>
</g>
</svg>
