<?xml version="1.0" encoding="utf-8"?>
<!-- Generator: Adobe Illustrator 23.0.1, SVG Export Plug-In . SVG Version: 6.00 Build 0)  -->
<svg version="1.1" id="Capa_1" xmlns="http://www.w3.org/2000/svg" xmlns:xlink="http://www.w3.org/1999/xlink" x="0px" y="0px"
	 viewBox="-49 141 512 512" style="enable-background:new -49 141 512 512;" xml:space="preserve">
<style type="text/css">
	.st0{fill:#1D439B;}
	.st1{fill:#00D0F5;}
</style>
<g transform="translate(-1)">
	<path class="st0" d="M463.8,292.9c-0.2-0.9-0.5-1.9-1-2.7l0-0.1l0,0c-0.5-0.8-1.2-1.6-2-2.2c-0.2-0.2-0.5-0.3-0.7-0.5
		c-0.2-0.2-0.5-0.3-0.7-0.5l-102.4-51.2c-0.3-0.1-0.6-0.2-0.9-0.2c-0.5-0.2-1.1-0.4-1.7-0.5c-1.1-0.1-2.1-0.1-3.2,0.1
		c-0.6,0.1-1.1,0.3-1.6,0.6c-0.3,0.1-0.6,0.2-0.9,0.3l-123.6,75.5V200.7c0-0.3-0.1-0.5-0.1-0.8c0-0.3-0.1-0.6-0.1-0.9
		c-0.2-0.9-0.5-1.9-1-2.7l0-0.1l0,0c-0.5-0.8-1.2-1.6-2-2.2c-0.2-0.2-0.5-0.3-0.7-0.5c-0.2-0.2-0.5-0.3-0.7-0.5L118,141.9
		c-0.3-0.1-0.6-0.2-0.9-0.2c-0.5-0.2-1.1-0.4-1.7-0.5c-1.1-0.1-2.1-0.1-3.2,0.1c-0.6,0.1-1.1,0.3-1.6,0.6c-0.3,0.1-0.6,0.2-0.9,0.3
		l-153.6,93.9l0,0l0,0c-0.8,0.5-1.6,1.2-2.2,2c-0.2,0.2-0.3,0.4-0.4,0.6c-0.5,0.8-0.9,1.7-1.2,2.6c0,0.1,0,0.2,0,0.3
		c-0.1,0.6-0.2,1.1-0.2,1.7v256c0,3.2,1.8,6.2,4.7,7.6l102.4,51.2c0.1,0,0.2,0,0.2,0.1c1.1,0.5,2.3,0.8,3.6,0.8l0,0l0,0l0,0
		c0.8,0,1.5-0.1,2.3-0.3c0.3-0.1,0.6-0.2,0.9-0.4c0.4-0.1,0.9-0.3,1.3-0.5l123.6-75.5v110.9c0,3.2,1.8,6.2,4.7,7.6L298,652.1
		c0.1,0,0.2,0,0.2,0.1c1.1,0.5,2.3,0.8,3.6,0.8l0,0l0,0l0,0c0.8,0,1.5-0.1,2.3-0.3c0.2-0.1,0.4-0.2,0.6-0.3c0.5-0.2,1.1-0.4,1.6-0.7
		l153.6-93.9c0.3-0.2,0.5-0.4,0.7-0.7c0.9-0.7,1.7-1.5,2.2-2.5c0.3-0.5,0.5-0.9,0.7-1.4c0.2-0.6,0.3-1.1,0.3-1.7
		c0.1-0.3,0.1-0.6,0.2-0.9v-256c0-0.3-0.1-0.5-0.1-0.8C463.9,293.5,463.8,293.2,463.8,292.9z M353.5,253.1l84.4,42.2l-136.4,83.4
		l-84.4-42.2L353.5,253.1z M293.3,417.3L208,374.7v-23.6l85.3,42.7V417.3z M208,393.7l85.3,42.7V460L208,417.3V393.7z M208,460
		v-23.6l85.3,42.7v23.6L208,460z M310.4,393.3l136.5-83.4v236l-136.5,83.4V393.3z M-30.9,299.9l85.3,42.7v23.6l-85.3-42.7V299.9z
		 M54.4,323.5l-85.3-42.7v-23.6l85.3,42.7V323.5z M-30.9,342.5l85.3,42.7v23.6l-85.3-42.7V342.5z M62.5,284.9l-84.4-42.2l136.4-83.4
		l84.4,42.2L62.5,284.9z M-30.9,494.1V385.2l85.3,42.7v108.9L-30.9,494.1z M71.5,535.4v-236L208,216V322l-13,7.9l0,0l0,0
		c-0.8,0.5-1.6,1.2-2.2,2c-0.2,0.2-0.3,0.4-0.4,0.6c-0.5,0.8-0.9,1.7-1.2,2.6c0,0.1,0,0.2,0,0.3c-0.1,0.6-0.2,1.1-0.2,1.7v125.1
		L71.5,535.4z M208,588V479.1l85.3,42.7v108.9L208,588z"/>
	<path class="st1" d="M449.4,203.2l-11,11v-22.1c0-14.1-11.5-25.6-25.6-25.6H233.6c-4.7,0-8.5,3.8-8.5,8.5s3.8,8.5,8.5,8.5h179.2
		c4.7,0,8.5,3.8,8.5,8.5v22.1l-11-11c-3.3-3.3-8.7-3.3-12,0.1c-3.3,3.3-3.3,8.7-0.1,12l25.6,25.6c2.4,2.4,6.1,3.2,9.3,1.9l0,0
		c0.9-0.4,1.8-1,2.5-1.7c0.1-0.1,0.2-0.1,0.3-0.2l25.6-25.6c2.2-2.2,3-5.3,2.3-8.3c-0.8-3-3.1-5.3-6.1-6.1S451.6,201.1,449.4,203.2z
		"/>
	<path class="st1" d="M5.7,590.8c2.1,2.2,5.3,3.1,8.3,2.3c3-0.8,5.3-3.1,6.1-6.1c0.8-3-0.1-6.1-2.3-8.3l-25.6-25.6
		c-0.7-0.7-1.6-1.3-2.5-1.7c-0.3-0.1-0.6-0.2-0.8-0.3c-1-0.3-2-0.4-3-0.5c-0.9,0-1.8,0.2-2.7,0.5c-0.1,0-0.2,0-0.2,0.1l0,0
		c-0.9,0.4-1.8,1-2.5,1.7c-0.1,0.1-0.2,0.1-0.3,0.2l-25.6,25.6c-2.2,2.1-3.1,5.3-2.3,8.3c0.8,3,3.1,5.3,6.1,6.1
		c3,0.8,6.1-0.1,8.3-2.3l11-11v22.1c0,14.1,11.5,25.6,25.6,25.6h179.2c4.7,0,8.5-3.8,8.5-8.5s-3.8-8.5-8.5-8.5H3.2
		c-4.7,0-8.5-3.8-8.5-8.5v-22.1L5.7,590.8z"/>
</g>
</svg>
