<?xml version="1.0" encoding="utf-8"?>
<!-- Generator: Adobe Illustrator 23.0.1, SVG Export Plug-In . SVG Version: 6.00 Build 0)  -->
<svg version="1.1" id="Capa_1" xmlns="http://www.w3.org/2000/svg" xmlns:xlink="http://www.w3.org/1999/xlink" x="0px" y="0px"
	 viewBox="536.7 141 490.7 512" style="enable-background:new 536.7 141 490.7 512;" xml:space="preserve">
<path d="M995.3,439.7H824.7c-17.6,0-32,14.4-32,32v106.7c0,17.6,14.4,32,32,32h74.7v21.3h-32c-5.9,0-10.7,4.8-10.7,10.7
	c0,5.9,4.8,10.7,10.7,10.7h85.3c5.9,0,10.7-4.8,10.7-10.7c0-5.9-4.8-10.7-10.7-10.7h-32v-21.3h74.7c17.6,0,32-14.4,32-32V471.7
	C1027.3,454,1013,439.7,995.3,439.7z M1006,578.3c0,5.9-4.8,10.7-10.7,10.7H824.7c-5.9,0-10.7-4.8-10.7-10.7v-10.7h192V578.3z
	 M1006,546.3H814v-74.7c0-5.9,4.8-10.7,10.7-10.7h170.7c5.9,0,10.7,4.8,10.7,10.7V546.3z M739.3,439.7H568.7c-17.6,0-32,14.4-32,32
	v106.7c0,17.6,14.4,32,32,32h74.7v21.3h-32c-5.9,0-10.7,4.8-10.7,10.7c0,5.9,4.8,10.7,10.7,10.7h85.3c5.9,0,10.7-4.8,10.7-10.7
	c0-5.9-4.8-10.7-10.7-10.7h-32v-21.3h74.7c17.6,0,32-14.4,32-32V471.7C771.3,454,757,439.7,739.3,439.7z M750,578.3
	c0,5.9-4.8,10.7-10.7,10.7H568.7c-5.9,0-10.7-4.8-10.7-10.7v-10.7h192V578.3z M750,546.3H558v-74.7c0-5.9,4.8-10.7,10.7-10.7h170.7
	c5.9,0,10.7,4.8,10.7,10.7V546.3z M910,418.3c5.9,0,10.7-4.8,10.7-10.7v-21.3c0-5.9-4.8-10.7-10.7-10.7H792.7V365
	c0-5.9-4.8-10.7-10.7-10.7s-10.7,4.8-10.7,10.7v10.7H654c-5.9,0-10.7,4.8-10.7,10.7v21.3c0,5.9,4.8,10.7,10.7,10.7
	s10.7-4.8,10.7-10.7V397h234.7v10.7C899.3,413.6,904.1,418.3,910,418.3z"/>
<path d="M824.7,205H910c5.9,0,10.7-4.8,10.7-10.7s-4.8-10.7-10.7-10.7h-85.3c-5.9,0-10.7,4.8-10.7,10.7S818.8,205,824.7,205z
	 M632.7,205c5.9,0,10.7-4.8,10.7-10.7s-4.8-10.7-10.7-10.7s-10.7,4.8-10.7,10.7S626.8,205,632.7,205z M824.7,290.3H910
	c5.9,0,10.7-4.8,10.7-10.7S915.9,269,910,269h-85.3c-5.9,0-10.7,4.8-10.7,10.7S818.8,290.3,824.7,290.3z M632.7,290.3
	c5.9,0,10.7-4.8,10.7-10.7s-4.8-10.7-10.7-10.7s-10.7,4.8-10.7,10.7S626.8,290.3,632.7,290.3z M611.3,333h320c17.6,0,32-14.4,32-32
	v-42.7c0-8.2-3.2-15.7-8.3-21.3c5.1-5.7,8.3-13.1,8.3-21.3V173c0-17.6-14.4-32-32-32h-320c-17.6,0-32,14.4-32,32v42.7
	c0,8.2,3.2,15.7,8.3,21.3c-5.1,5.7-8.3,13.1-8.3,21.3V301C579.3,318.6,593.7,333,611.3,333z M600.7,173c0-5.9,4.8-10.7,10.7-10.7
	h320c5.9,0,10.7,4.8,10.7,10.7v42.7c0,5.9-4.8,10.7-10.7,10.7h-320c-5.9,0-10.7-4.8-10.7-10.7V173z M600.7,258.3
	c0-5.9,4.8-10.7,10.7-10.7h320c5.9,0,10.7,4.8,10.7,10.7V301c0,5.9-4.8,10.7-10.7,10.7h-320c-5.9,0-10.7-4.8-10.7-10.7V258.3z"/>
</svg>
