<?xml version="1.0" encoding="utf-8"?>
<!-- Generator: Adobe Illustrator 23.0.1, SVG Export Plug-In . SVG Version: 6.00 Build 0)  -->
<svg version="1.1" id="Layer_1" xmlns="http://www.w3.org/2000/svg" xmlns:xlink="http://www.w3.org/1999/xlink" x="0px" y="0px"
	 viewBox="0 0 435.6 458" style="enable-background:new 0 0 435.6 458;" xml:space="preserve">
<g>
	<path d="M95,87c-13.5-0.5-25.6,8.2-29.4,21.2c-3.8,13,1.6,26.8,13.3,33.7c11.6,6.9,26.4,5,36-4.5c7.1-7.1,10.1-17.3,8-27.1
		C120,97.1,108.5,87.5,95,87z M104.9,127.5c-3.7,3.8-9.1,5.4-14.2,4.2c-5.8-1.3-10.4-5.9-11.7-11.7c-1-4.6,0.2-9.3,3.1-13
		c2.9-3.6,7.3-5.8,12-5.8c1.1,0,2.3,0.1,3.4,0.4c5.8,1.3,10.4,5.9,11.7,11.7C110.3,118.4,108.7,123.8,104.9,127.5z"/>
	<path d="M269.3,302.9c3.9,0,7-3.1,7-7v-30.5c0-3.9-3.1-7-7-7c-3.9,0-7,3.1-7,7v30.5C262.3,299.7,265.4,302.9,269.3,302.9z"/>
	<path d="M87.7,309.4c9.8,2.1,20-0.9,27.1-8c7.1-7.1,10.1-17.3,8-27.1c-3.1-14.3-16.3-24.1-30.9-23c-14.6,1.1-26.2,12.6-27.2,27.2
		C63.6,293.1,73.5,306.2,87.7,309.4z M83.2,269.8L83.2,269.8c2.9-2.9,6.8-4.6,10.8-4.6c1.1,0,2.3,0.1,3.4,0.4
		c5.8,1.3,10.4,5.9,11.7,11.7c1.1,5.1-0.5,10.5-4.2,14.2c-3.7,3.7-9.1,5.3-14.2,4.2c-5.8-1.3-10.4-5.9-11.7-11.7
		C77.8,278.8,79.4,273.5,83.2,269.8z"/>
	<path d="M239.3,302.9c3.9,0,7-3.1,7-7v-30.5c0-3.9-3.1-7-7-7c-3.9,0-7,3.1-7,7v30.5C232.3,299.7,235.4,302.9,239.3,302.9z"/>
	<path d="M299.3,302.9c3.9,0,7-3.1,7-7v-30.5c0-3.9-3.1-7-7-7c-3.9,0-7,3.1-7,7v30.5C292.3,299.7,295.4,302.9,299.3,302.9z"/>
	<path d="M250.3,168H48.4c-4.3,0-8.4-1.7-11.4-4.8c-3-3.1-4.7-7.2-4.6-11.5V81.6c0-9,7.1-16.6,16.1-16.6h211.3l-8.3-14h-203
		c-16.7,0-30.1,13.8-30.1,30.6v70.2c0,8,3.1,15.7,8.7,21.4c5.6,5.7,13.3,8.9,21.3,8.9h129.9v33H48.4c-16.7,0-30.1,13.9-30.1,30.6
		v70.2c0,8,3.1,15.7,8.7,21.4c5.6,5.7,13.3,8.9,21.3,8.9h129.9v34.8c-15.9,2.8-28.4,15.3-31.2,31.2H51.6
		c-3.5-12.7-15.8-20.8-28.9-19.1C9.7,394.7,0,405.8,0,419c0,13.2,9.7,24.3,22.8,26.1c13,1.8,25.4-6.4,28.9-19.1h95.4
		c3.4,18.6,19.5,32,38.4,32c18.9,0,35-13.5,38.4-32h95.4c3.5,12.6,15.8,20.7,28.7,18.9c12.9-1.8,22.6-12.8,22.6-25.9
		c0-13.1-9.7-24.1-22.6-25.9c-12.9-1.8-25.2,6.3-28.7,18.9h-95.4c-3-16-15.5-28.4-31.5-31.2V346h130.2c16.7,0,30.8-13.5,30.8-30.2
		v-70.2c0-16.7-14.1-30.6-30.8-30.6H192.3v-33h71.9L250.3,168z M26.4,431.4c-6.7,0-12.2-5.5-12.2-12.2c0-6.7,5.5-12.2,12.2-12.2
		c6.7,0,12.2,5.5,12.2,12.2C38.6,425.9,33.1,431.4,26.4,431.4z M344.5,407c6.7,0,12.2,5.5,12.2,12.2c0,6.7-5.5,12.2-12.2,12.2
		c-6.7,0-12.2-5.5-12.2-12.2C332.3,412.4,337.8,407,344.5,407z M203.2,401.4c4.7,4.7,7.3,11.1,7.3,17.8c0,13.8-11.2,25-25,25
		c-13.8,0-25-11.2-25-25c0-13.8,11.2-25,25-25C192.1,394.1,198.5,396.7,203.2,401.4z M323,229c9,0,16.3,7.3,16.3,16.3v70.4
		c0,9-7.3,16.3-16.3,16.3H48.6c-9,0-16.3-7.3-16.3-16.3v-70.4c0-9,7.3-16.3,16.3-16.3H323z"/>
</g>
<g>
	<polygon points="259.3,182 259.3,182 261.5,184.2 	"/>
	<g>
		<path d="M429.3,83.5l-16.4-1.6c-1.9-6.7-4.6-13.1-8-19.1l10.4-12.6c2.3-2.8,2.1-6.8-0.4-9.4l-20.1-20.3c-2.6-2.6-6.6-2.8-9.4-0.5
			l-12.6,10.5c-6-3.4-12.4-6.2-19.1-8.1L352,6.2c-0.4-3.6-3.4-6.3-7-6.2h-28.8c-3.6-0.1-6.6,2.6-7,6.2l-1.6,16.3
			c-6.7,1.9-13.1,4.6-19.1,8L276,20.1c-2.8-2.3-6.9-2.1-9.4,0.4l-20.3,20.3c-2.6,2.5-2.8,6.6-0.4,9.3l0.9,0.9l11,11.2
			c0,0-3.2,2.4-9.5,19.6l-16.4,1.7c-3.6,0.4-6.3,3.4-6.2,7v28.8c0,3.6,2.7,6.6,6.2,7l16.4,1.6c1.9,6.7,4.6,13.1,8,19.1l-10.4,12.5
			c-2.1,2.5-2.1,6.5-0.3,8.5h-0.1l14,14h0l2.2,2.2l0.7,0.7l0,0l4.3,4.3c2.6,2.6,6.6,2.8,9.4,0.5l12.6-10.5c6,3.5,12.4,6.2,19.1,8.1
			l1.6,16.4c0.3,3.6,3.4,6.3,7,6.3h28.8c3.6,0,6.6-2.8,7-6.3l1.6-16.4c6.7-1.9,13.1-4.6,19.1-8l12.6,10.4c2.8,2.3,6.9,2.1,9.4-0.4
			l20.3-20.3c2.6-2.6,2.8-6.6,0.4-9.4l-10.4-12.6c3.4-6,6.2-12.4,8.1-19.1l16.2-1.6c3.6-0.4,6.3-3.4,6.3-7V90.5
			C435.6,86.9,432.9,83.9,429.3,83.5z M421.6,112.9l-14.7,1.4c-3,0.3-5.5,2.5-6.1,5.4c-1.9,8.5-5.3,16.6-10.1,23.9
			c-1.7,2.6-1.5,5.9,0.5,8.3l9.6,11.5l-11.3,11.3l-11.5-9.6c-2.4-2-5.8-2.2-8.3-0.4c-7.3,4.8-15.3,8.2-23.8,10
			c-3,0.7-5.2,3.2-5.5,6.2l-1.4,15h-16.1l-1.5-15c-0.3-3-2.5-5.5-5.5-6.2c-8.5-1.9-16.6-5.3-23.9-10.1c-2.6-1.6-5.9-1.4-8.3,0.5
			l-11.5,9.6l-11.3-11.3l9.6-11.5c2-2.4,2.2-5.8,0.4-8.3c-4.8-7.2-8.2-15.3-10.1-23.8c-0.6-3-3.1-5.2-6.1-5.5l-15-1.5V96.8l14.9-1.5
			c3-0.3,5.5-2.5,6.1-5.4c1.9-8.5,5.3-16.6,10.1-23.9c1.7-2.6,1.5-5.9-0.5-8.3l-2.4-2.8c-0.4-0.8-1-1.5-1.7-2.1l-5.5-6.6L272,34.9
			l11.5,9.6c2.4,2,5.8,2.2,8.3,0.4c7.3-4.8,15.3-8.2,23.8-10c3-0.6,5.2-3,5.5-6l1.4-14.9h16.1l1.4,14.9c0.3,3,2.5,5.5,5.5,6.1
			c8.5,1.9,16.6,5.3,23.9,10c2.6,1.6,5.9,1.4,8.3-0.5l11.5-9.6l11.1,11.2l-9.6,11.6c-2,2.4-2.1,5.8-0.4,8.3
			c4.8,7.2,8.2,15.3,10.1,23.8c0.6,3,3.1,5.2,6.1,5.5l15,1.4V112.9z"/>
		<path d="M330.6,46.4c-32.3,0-58.4,26.2-58.4,58.5c0,32.3,26.2,58.4,58.5,58.4c32.3,0,58.4-26.2,58.4-58.5
			C389,72.6,362.9,46.4,330.6,46.4z M330.6,149.3c-24.5,0-44.4-20-44.4-44.5c0-24.5,19.9-44.4,44.5-44.4c24.5,0,44.4,19.9,44.4,44.5
			C375.1,129.4,355.1,149.3,330.6,149.3z"/>
	</g>
	<polygon points="261.5,184.2 262.1,184.9 262.1,184.9 	"/>
</g>
</svg>
